<?xml version="1.0" encoding="utf-8"?>
<!-- Generator: Adobe Illustrator 23.0.3, SVG Export Plug-In . SVG Version: 6.00 Build 0)  -->
<svg version="1.1" id="Layer_1" xmlns="http://www.w3.org/2000/svg" xmlns:xlink="http://www.w3.org/1999/xlink" x="0px" y="0px"
	 viewBox="0 0 100 100" style="enable-background:new 0 0 100 100;" xml:space="preserve">
<style type="text/css">
	.st0{fill:none;}
	.st1{fill:#2062AF;}
	.st2{fill:#3C9CD7;}
	.st3{fill:#FFFFFF;}
	.st4{fill:url(#SVGID_1_);}
	.st5{fill:url(#SVGID_2_);}
	.st6{fill:url(#SVGID_3_);}
	.st7{opacity:5.000000e-02;enable-background:new    ;}
	.st8{fill:url(#SVGID_4_);}
</style>
<path class="st0" d="M-1200-1200h2500v2500h-2500V-1200z"/>
<path class="st1" d="M79,92.2L50,100l-29-7.8l-6.7-72.5h71.4L79,92.2z"/>
<path class="st2" d="M50,25.6v68.2l0.1,0l23.5-6.3l5.4-61.9L50,25.6L50,25.6z"/>
<path d="M33.5,9V4.7h6.3V0h-11v13.3h11V9H33.5z M51.2,4.7h4.4V0h-11v4.7C46,6.2,46.8,6.9,48.9,9c-1.2,0-4.4,0-4.4,0v4.3h11V9
	L51.2,4.7L51.2,4.7z M66.8,4.7h4.4V0h-11v4.7c1.5,1.5,2.2,2.2,4.4,4.3c-1.2,0-4.4,0-4.4,0v4.3h11V9L66.8,4.7L66.8,4.7z"/>
<path class="st3" d="M50,43.7l-20.8,8.6l0.7,8.6L50,52.3l21.3-9.1l0.9-8.8L50,43.7L50,43.7z"/>
<linearGradient id="SVGID_1_" gradientUnits="userSpaceOnUse" x1="-1017.7867" y1="-1576.0267" x2="-1017.7867" y2="-1579.733" gradientTransform="matrix(4.6418 0 0 4.6418 4763.9551 7376.4976)">
	<stop  offset="0.387" style="stop-color:#D1D3D4;stop-opacity:0"/>
	<stop  offset="1" style="stop-color:#D1D3D4"/>
</linearGradient>
<path class="st4" d="M29.2,52.3l0.7,8.6L50,52.3v-8.6L29.2,52.3z"/>
<linearGradient id="SVGID_2_" gradientUnits="userSpaceOnUse" x1="-1013.156" y1="-1577.8754" x2="-1013.156" y2="-1581.7278" gradientTransform="matrix(4.6418 0 0 4.6418 4763.9551 7376.4976)">
	<stop  offset="0.387" style="stop-color:#D1D3D4;stop-opacity:0"/>
	<stop  offset="1" style="stop-color:#D1D3D4"/>
</linearGradient>
<path class="st5" d="M72.2,34.4L50,43.7v8.6l21.3-9.1L72.2,34.4z"/>
<linearGradient id="SVGID_3_" gradientUnits="userSpaceOnUse" x1="-1020.0157" y1="-1574.3738" x2="-1011.1143" y2="-1574.3738" gradientTransform="matrix(4.6418 0 0 4.6418 4763.9551 7376.4976)">
	<stop  offset="0" style="stop-color:#E8E7E5"/>
	<stop  offset="1" style="stop-color:#FFFFFF"/>
</linearGradient>
<path class="st6" d="M29.2,52.3l0.7,8.6L60.7,61L60,72.4l-10.1,2.9l-9.7-2.5l-0.6-7.1h-9.1l1.2,13.7L50,84.8l18.2-5.3l2.4-27.2H29.2
	z"/>
<path class="st7" d="M50,52.3H29.2l0.7,8.6L50,61L50,52.3L50,52.3z M50,75.2L50,75.2l-9.8-2.4l-0.6-7.1h-9.1l1.2,13.7L50,84.8V75.2z
	"/>
<linearGradient id="SVGID_4_" gradientUnits="userSpaceOnUse" x1="-1020.4253" y1="-1580.7847" x2="-1010.7612" y2="-1580.7847" gradientTransform="matrix(4.6418 0 0 4.6418 4763.9551 7376.4976)">
	<stop  offset="0" style="stop-color:#E8E7E5"/>
	<stop  offset="1" style="stop-color:#FFFFFF"/>
</linearGradient>
<path class="st8" d="M27.3,34.4h44.9l-0.9,8.8H28.4L27.3,34.4L27.3,34.4z"/>
<path class="st7" d="M50,34.4H27.3l1.1,8.8H50L50,34.4L50,34.4z"/>
</svg>
