<?xml version="1.0" encoding="utf-8"?>
<!-- Generator: Adobe Illustrator 23.0.3, SVG Export Plug-In . SVG Version: 6.00 Build 0)  -->
<svg version="1.1" id="Layer_1" xmlns="http://www.w3.org/2000/svg" xmlns:xlink="http://www.w3.org/1999/xlink" x="0px" y="0px"
	 viewBox="0 0 100 100" style="enable-background:new 0 0 100 100;" xml:space="preserve">
<style type="text/css">
	.st0{fill:#E44D26;}
	.st1{fill:#F16529;}
	.st2{fill:#EBEBEB;}
	.st3{fill:#FFFFFF;}
</style>
<g>
	<path class="st0" d="M21,92l-6.4-72.3h70.8L79,92l-29,8L21,92z"/>
	<path class="st1" d="M50,93.8l23.4-6.5L79,25.6H50V93.8z"/>
	<path class="st2" d="M50,52.4H38.3l-0.8-9.1H50v-8.9H27.8l0.2,2.4l2.2,24.4H50V52.4z M50,75.4L50,75.4l-9.9-2.7l-0.6-7.1h-8.9
		l1.2,13.9l18.2,5l0,0V75.4z"/>
	<path d="M21.2,0h4.5v4.5h4.1V0h4.5v13.5h-4.5V9h-4.1v4.5h-4.5L21.2,0z M40.2,4.5h-4V0h12.4v4.5h-4v9h-4.5L40.2,4.5L40.2,4.5z
		 M50.7,0h4.7l2.9,4.7L61.2,0h4.7v13.5h-4.5V6.8l-3.1,4.8h-0.1l-3.1-4.8v6.7h-4.4L50.7,0L50.7,0z M68.1,0h4.5v9H79v4.5H68.1V0z"/>
	<path class="st3" d="M50,52.4v8.9h10.9l-1,11.5L50,75.4v9.2l18.2-5l0.1-1.5l2.1-23.3l0.2-2.4h-2.4L50,52.4z M50,34.4v8.9h21.4
		l0.2-2l0.4-4.5l0.2-2.4L50,34.4z"/>
</g>
</svg>
