<?xml version="1.0" encoding="utf-8"?>
<!-- Generator: Adobe Illustrator 23.0.3, SVG Export Plug-In . SVG Version: 6.00 Build 0)  -->
<svg version="1.1" id="Layer_1" xmlns="http://www.w3.org/2000/svg" xmlns:xlink="http://www.w3.org/1999/xlink" x="0px" y="0px"
	 viewBox="0 0 100 100" style="enable-background:new 0 0 100 100;" xml:space="preserve">
<style type="text/css">
	.st0{clip-path:url(#SVGID_2_);}
	.st1{clip-path:url(#SVGID_4_);}
	.st2{clip-path:url(#SVGID_6_);}
	.st3{clip-path:url(#SVGID_8_);}
	.st4{fill-rule:evenodd;clip-rule:evenodd;fill:#6E81B6;}
	.st5{fill-rule:evenodd;clip-rule:evenodd;fill:#FFFFFF;}
	.st6{fill-rule:evenodd;clip-rule:evenodd;}
</style>
<g>
	<defs>
		<path id="SVGID_1_" d="M50,76.2c27.5,0,49.8-11.7,49.8-26.2S77.5,23.8,50,23.8S0.2,35.5,0.2,50S22.5,76.2,50,76.2L50,76.2z"/>
	</defs>
	<clipPath id="SVGID_2_">
		<use xlink:href="#SVGID_1_"  style="overflow:visible;"/>
	</clipPath>
	<g class="st0">
		<g>
			<defs>
				<rect id="SVGID_3_" x="0.2" y="23.8" width="99.5" height="52.3"/>
			</defs>
			<clipPath id="SVGID_4_">
				<use xlink:href="#SVGID_3_"  style="overflow:visible;"/>
			</clipPath>
			<g class="st1">
				
					<image style="overflow:visible;enable-background:new    ;" width="365" height="196" xlink:href="F34DFA5E.png"  transform="matrix(0.2732 0 0 -0.2732 0.2337 76.889)">
				</image>
			</g>
		</g>
	</g>
</g>
<g>
	<defs>
		<path id="SVGID_5_" d="M50,76.2c27.5,0,49.8-11.7,49.8-26.2S77.5,23.8,50,23.8S0.2,35.5,0.2,50S22.5,76.2,50,76.2L50,76.2z"/>
	</defs>
	<clipPath id="SVGID_6_">
		<use xlink:href="#SVGID_5_"  style="overflow:visible;"/>
	</clipPath>
	<g class="st2">
		<g>
			<defs>
				<rect id="SVGID_7_" x="0.2" y="23.8" width="99.5" height="52.3"/>
			</defs>
			<clipPath id="SVGID_8_">
				<use xlink:href="#SVGID_7_"  style="overflow:visible;"/>
			</clipPath>
			<g class="st3">
				
					<image style="overflow:visible;enable-background:new    ;" width="365" height="196" xlink:href="F34DFA62.png"  transform="matrix(0.2732 0 0 -0.2732 0.2337 76.889)">
				</image>
			</g>
		</g>
	</g>
</g>
<path class="st4" d="M50,74.2c26.4,0,47.8-10.8,47.8-24.2S76.4,25.8,50,25.8C23.6,25.8,2.2,36.6,2.2,50S23.6,74.2,50,74.2L50,74.2z"
	/>
<path class="st5" d="M59.7,57.8l2.4-12.2c0.5-2.8,0.1-4.8-1.3-6.1c-1.4-1.3-3.7-1.9-7.1-1.9h-4.1l1.2-6c0.1-0.4-0.2-0.8-0.6-0.9
	c0,0-0.1,0-0.1,0h-5.7c-0.4,0-0.7,0.3-0.8,0.6l-2.5,13c-0.2-1.5-0.8-2.7-1.7-3.7c-1.7-1.9-4.3-2.9-7.8-2.9h-11
	c-0.4,0-0.7,0.3-0.8,0.6l-5.1,26.2c0,0.2,0,0.5,0.2,0.6c0.1,0.2,0.4,0.3,0.6,0.3h5.7c0.4,0,0.7-0.3,0.8-0.6l1.2-6.3h4.3
	c2.2,0,4.1-0.2,5.6-0.7c1.5-0.5,2.9-1.3,4.1-2.4c1-0.9,1.8-1.9,2.4-3l-1,5.2c0,0.2,0,0.5,0.2,0.6c0.1,0.2,0.4,0.3,0.6,0.3h5.7
	c0.4,0,0.7-0.3,0.8-0.6l2.8-14.4h3.9c1.7,0,2.1,0.3,2.3,0.5c0.1,0.1,0.4,0.6,0.1,2l-2.3,11.6c-0.1,0.4,0.2,0.8,0.6,0.9
	c0,0,0.1,0,0.1,0h5.8C59.3,58.4,59.6,58.2,59.7,57.8L59.7,57.8z M33.4,47.7c-0.4,1.8-1,3.1-2,3.9c-1,0.8-2.6,1.1-4.7,1.1h-2.5
	l1.8-9.4h3.3c2.4,0,3.4,0.5,3.8,0.9C33.6,44.9,33.7,46.1,33.4,47.7z M83.6,40.5c-1.7-1.9-4.3-2.9-7.8-2.9h-11
	c-0.4,0-0.7,0.3-0.8,0.6l-5.1,26.2c0,0.2,0,0.5,0.2,0.6c0.1,0.2,0.4,0.3,0.6,0.3h5.7c0.4,0,0.7-0.3,0.8-0.6l1.2-6.3h4.3
	c2.2,0,4.1-0.2,5.6-0.7c1.5-0.5,2.9-1.3,4.1-2.4c1-0.9,1.8-2,2.5-3.1s1.1-2.4,1.3-3.7C85.8,45.1,85.2,42.4,83.6,40.5L83.6,40.5z
	 M78,47.7c-0.4,1.8-1,3.1-2,3.9c-1,0.8-2.6,1.1-4.7,1.1h-2.5l1.8-9.4h3.3c2.4,0,3.4,0.5,3.8,0.9C78.2,44.9,78.3,46.1,78,47.7
	L78,47.7z"/>
<path class="st6" d="M29.3,42.6c2.2,0,3.6,0.4,4.3,1.2c0.7,0.8,0.9,2.2,0.5,4.1c-0.4,2-1.2,3.5-2.3,4.3c-1.1,0.9-2.8,1.3-5.1,1.3
	h-3.5l2.1-11H29.3L29.3,42.6z M15.4,64.6h5.7l1.4-7h4.9c2.2,0,3.9-0.2,5.3-0.7c1.4-0.5,2.7-1.2,3.8-2.3c1-0.9,1.7-1.9,2.3-2.9
	c0.6-1.1,1-2.2,1.3-3.5c0.6-3.1,0.1-5.5-1.4-7.3c-1.5-1.7-3.9-2.6-7.2-2.6h-11L15.4,64.6z M44.3,31.4h5.7l-1.4,7h5.1
	c3.2,0,5.4,0.6,6.6,1.7c1.2,1.1,1.6,2.9,1.1,5.4l-2.4,12.2h-5.8l2.3-11.6c0.3-1.3,0.2-2.2-0.3-2.7c-0.4-0.5-1.4-0.7-2.8-0.7h-4.5
	l-2.9,15h-5.7L44.3,31.4z M73.9,42.6c2.2,0,3.6,0.4,4.3,1.2c0.7,0.8,0.9,2.2,0.5,4.1c-0.4,2-1.2,3.5-2.3,4.3
	c-1.1,0.9-2.8,1.3-5.1,1.3h-3.5l2.1-11H73.9z M60,64.6h5.7l1.4-7h4.9c2.2,0,3.9-0.2,5.3-0.7c1.4-0.5,2.7-1.2,3.8-2.3
	c1-0.9,1.7-1.9,2.3-2.9s1-2.2,1.3-3.5c0.6-3.1,0.1-5.5-1.4-7.3c-1.5-1.7-3.9-2.6-7.2-2.6h-11L60,64.6L60,64.6z"/>
</svg>
