<?xml version="1.0" encoding="utf-8"?>
<!-- Generator: Adobe Illustrator 23.0.3, SVG Export Plug-In . SVG Version: 6.00 Build 0)  -->
<svg version="1.1" id="Layer_1" xmlns="http://www.w3.org/2000/svg" xmlns:xlink="http://www.w3.org/1999/xlink" x="0px" y="0px"
	 viewBox="0 0 100 100" style="enable-background:new 0 0 100 100;" xml:space="preserve">
<style type="text/css">
	.st0{clip-path:url(#SVGID_2_);}
	.st1{fill:#00749A;}
	.st2{fill:#464342;}
</style>
<g>
	<defs>
		<rect id="SVGID_1_" x="0" y="0" width="100" height="100"/>
	</defs>
	<clipPath id="SVGID_2_">
		<use xlink:href="#SVGID_1_"  style="overflow:visible;"/>
	</clipPath>
	<g class="st0">
		<path class="st1" d="M255.6,39.4h-17.3v1.8c5.4,0,6.3,1.2,6.3,8v12.4c0,6.9-0.9,8.1-6.3,8.1c-4.2-0.6-7-2.8-10.9-7.1l-4.5-4.8
			c6-1.1,9.2-4.8,9.2-9.1c0-5.3-4.6-9.4-13.1-9.4H202v1.8c5.4,0,6.3,1.2,6.3,8v12.4c0,6.9-0.9,8.1-6.3,8.1v1.8h19.3v-1.8
			c-5.4,0-6.3-1.3-6.3-8.1v-3.5h1.6l10.8,13.5h28.2c13.9,0,19.9-7.4,19.9-16.2C275.5,46.6,269.5,39.4,255.6,39.4L255.6,39.4z
			 M215,55.2V42.3h4c4.4,0,6.3,3,6.3,6.5c0,3.4-1.9,6.4-6.3,6.4L215,55.2z M255.9,68.6h-0.7c-3.5,0-4-0.9-4-5.3v-21h4.7
			c10.1,0,11.9,7.4,11.9,13.1C267.8,61.3,266,68.6,255.9,68.6z M148,58.7l6.7-19.8c1.9-5.7,1.1-7.4-5.1-7.4v-1.9h18.2v1.9
			c-6.1,0-7.6,1.5-10,8.5l-11.1,33.1h-1.3l-9.9-30.3l-10.1,30.3h-1.3l-10.8-33.1c-2.3-7.1-3.9-8.5-9.5-8.5v-1.9h21.5v1.9
			c-5.7,0-7.3,1.4-5.2,7.4l6.5,19.8l9.8-29.1h1.8L148,58.7L148,58.7z M181,72.9c-10.7,0-19.4-7.9-19.4-17.4
			c0-9.5,8.7-17.3,19.4-17.3s19.4,7.9,19.4,17.3C200.4,65,191.7,72.9,181,72.9z M181,41.1c-8.9,0-12,8-12,14.3
			c0,6.4,3.1,14.3,12,14.3c9,0,12.1-7.9,12.1-14.3C193.1,49.1,190,41.1,181,41.1L181,41.1z"/>
		<path class="st2" d="M299.4,69.7v1.9h-22.2v-1.9c6.5,0,7.7-1.6,7.7-11.3V42.9c0-9.7-1.2-11.2-7.7-11.2v-1.9h20.1
			c10,0,15.5,5.1,15.5,12c0,6.7-5.5,11.9-15.5,11.9h-5.5v4.7C291.8,68.1,292.9,69.7,299.4,69.7L299.4,69.7z M297.3,33.2h-5.5V50h5.5
			c5.4,0,7.9-3.8,7.9-8.3C305.2,37,302.7,33.2,297.3,33.2z M379.4,62.5l-0.5,1.7c-0.9,3.2-1.9,4.4-8.8,4.4h-1.4c-5,0-5.9-1.2-5.9-8
			v-4.5c7.6,0,8.1,0.7,8.1,5.7h1.8V47.4H371c0,5-0.6,5.7-8.1,5.7V42.3h5.3c6.9,0,7.9,1.2,8.8,4.4l0.5,1.8h1.5l-0.7-9.1h-28.5v1.8
			c5.4,0,6.3,1.2,6.3,8v12.4c0,6.3-0.7,7.9-5,8.1c-4.1-0.6-6.9-2.8-10.7-7l-4.5-4.8c6-1.1,9.2-4.8,9.2-9.1c0-5.3-4.6-9.4-13.1-9.4
			H315v1.8c5.4,0,6.3,1.2,6.3,8v12.4c0,6.9-0.9,8.1-6.3,8.1v1.8h19.3v-1.8c-5.4,0-6.3-1.3-6.3-8.1v-3.5h1.6l10.8,13.5h39.8l0.6-9.1
			L379.4,62.5L379.4,62.5z M328,55.2V42.3h4c4.4,0,6.3,3,6.3,6.5c0,3.4-1.9,6.4-6.3,6.4L328,55.2z M399.1,72.9c-3.9,0-7.3-2-8.7-3.3
			c-0.5,0.5-1.4,1.9-1.5,3.3h-1.8V59.5h1.9c0.8,6.4,5.2,10.2,11,10.2c3.1,0,5.6-1.7,5.6-4.7c0-2.5-2.2-4.5-6.2-6.3l-5.5-2.6
			c-3.9-1.8-6.8-5-6.8-9.3c0-4.7,4.4-8.6,10.4-8.6c3.2,0,5.9,1.2,7.6,2.5c0.5-0.4,1-1.5,1.3-2.6h1.8v11.4h-2
			c-0.7-4.6-3.2-8.3-8.3-8.3c-2.7,0-5.2,1.5-5.2,4c0,2.5,2,3.9,6.7,6l5.3,2.6c4.7,2.2,6.5,5.8,6.5,8.7
			C410.9,68.6,405.6,72.9,399.1,72.9L399.1,72.9z M428.9,72.9c-3.9,0-7.3-2-8.7-3.3c-0.5,0.5-1.4,1.9-1.5,3.3h-1.8V59.5h1.9
			c0.8,6.4,5.2,10.2,11,10.2c3.1,0,5.6-1.7,5.6-4.7c0-2.5-2.2-4.5-6.2-6.3l-5.5-2.6c-3.9-1.8-6.8-5-6.8-9.3c0-4.7,4.4-8.6,10.4-8.6
			c3.2,0,5.9,1.2,7.6,2.5c0.5-0.4,1-1.5,1.3-2.6h1.8v11.4h-2c-0.7-4.6-3.2-8.3-8.3-8.3c-2.7,0-5.2,1.5-5.2,4c0,2.5,2,3.9,6.7,6
			l5.3,2.6c4.7,2.2,6.5,5.8,6.5,8.7C440.7,68.6,435.4,72.9,428.9,72.9L428.9,72.9z"/>
		<g>
			<path class="st1" d="M7.1,50c0,17,9.9,31.7,24.2,38.6L10.8,32.5C8.4,38,7.1,44,7.1,50L7.1,50z M79,47.8c0-5.3-1.9-9-3.5-11.8
				c-2.2-3.5-4.2-6.5-4.2-10.1c0-3.9,3-7.6,7.2-7.6c0.2,0,0.4,0,0.6,0c-7.6-7-17.8-11.3-29-11.3c-15,0-28.2,7.7-35.8,19.3
				c1,0,2,0.1,2.8,0.1c4.5,0,11.4-0.5,11.4-0.5c2.3-0.1,2.6,3.3,0.3,3.5c0,0-2.3,0.3-4.9,0.4l15.6,46.5l9.4-28.2L42,29.9
				c-2.3-0.1-4.5-0.4-4.5-0.4c-2.3-0.1-2-3.7,0.3-3.5c0,0,7.1,0.5,11.3,0.5c4.5,0,11.4-0.5,11.4-0.5c2.3-0.1,2.6,3.3,0.3,3.5
				c0,0-2.3,0.3-4.9,0.4L71.4,76l4.3-14.3C77.5,55.8,79,51.5,79,47.8L79,47.8z"/>
			<path class="st1" d="M50.8,53.8L37.9,91.1c3.9,1.2,8,1.7,12.1,1.7c5,0,9.8-0.9,14.2-2.4c-0.1-0.2-0.2-0.4-0.3-0.6L50.8,53.8z
				 M87.6,29.4c0.2,1.4,0.3,2.8,0.3,4.4c0,4.4-0.8,9.2-3.3,15.4L71.6,87.1C84.3,79.6,92.9,65.8,92.9,50
				C92.9,42.8,91.1,35.7,87.6,29.4L87.6,29.4z"/>
			<path class="st1" d="M50,0C22.4,0,0,22.4,0,50c0,27.6,22.4,50,50,50c27.6,0,50-22.4,50-50C100,22.4,77.6,0,50,0z M50,97.7
				C23.7,97.7,2.3,76.3,2.3,50C2.3,23.7,23.7,2.3,50,2.3c26.3,0,47.7,21.4,47.7,47.7C97.7,76.3,76.3,97.7,50,97.7L50,97.7z"/>
		</g>
	</g>
</g>
</svg>
