<?xml version="1.0" encoding="iso-8859-1"?>
<!-- Uploaded to: SVG Repo, www.svgrepo.com, Generator: SVG Repo Mixer Tools -->
<svg fill="#000000" height="800px" width="800px" version="1.1" id="Layer_1" xmlns="http://www.w3.org/2000/svg" xmlns:xlink="http://www.w3.org/1999/xlink" 
	 viewBox="0 0 512 512" xml:space="preserve">
<g>
	<g>
		<path d="M427.935,285.555c18.327-13.048,30.316-34.448,30.316-58.61c0-37.168-28.34-67.84-64.545-71.544
			c-14.6-21.224-39.046-35.174-66.696-35.174c-4.007,0-7.941,0.311-11.792,0.879c-15.516-14.524-36.34-23.443-59.219-23.443
			c-22.877,0-43.7,8.917-59.214,23.44c-3.853-0.567-7.789-0.875-11.796-0.875c-27.651,0-52.096,13.949-66.696,35.174
			c-36.205,3.705-64.545,34.377-64.545,71.544c0,24.161,11.988,45.561,30.316,58.61C35.157,302.765,0,349.42,0,404.137
			c0,5.633,4.566,10.199,10.199,10.199h42.502h1.354h57.116v-0.143c0.533,0.086,1.077,0.143,1.635,0.143h286.389
			c0.207,0,0.41-0.018,0.615-0.031v0.031h56.096h3.394h42.501c5.633,0,10.199-4.566,10.199-10.199
			C512,349.42,476.843,302.765,427.935,285.555z M404.779,178.867c19.32,7.434,33.074,26.171,33.074,48.08
			c0,26.078-19.481,47.679-44.652,51.05c-6.952-3.663-14.237-6.772-21.804-9.259c21.979-14.481,36.524-39.368,36.524-67.599
			C407.921,193.414,406.811,185.948,404.779,178.867z M330.917,140.765c31.55,2.023,56.606,28.32,56.606,60.372
			c0,33.367-27.145,60.512-60.512,60.512c-8.32,0-16.248-1.695-23.468-4.751c23.586-15.52,39.198-42.212,39.198-72.497
			C342.74,168.498,338.419,153.594,330.917,140.765z M256,118.062c36.581,0,66.341,29.76,66.341,66.341
			c0,36.581-29.76,66.341-66.341,66.341c-36.58,0-66.341-29.76-66.341-66.341C189.659,147.822,219.42,118.062,256,118.062z
			 M181.084,140.766c-7.502,12.829-11.823,27.734-11.823,43.636c0,30.284,15.611,56.976,39.197,72.496
			c-7.219,3.056-15.147,4.751-23.467,4.751c-33.367,0-60.512-27.145-60.512-60.512C124.477,169.085,149.533,142.788,181.084,140.766
			z M74.147,226.947c0-21.912,13.753-40.662,33.078-48.094c-2.034,7.085-3.146,14.556-3.146,22.286
			c0,28.232,14.545,53.118,36.524,67.599c-7.567,2.487-14.852,5.597-21.804,9.259C93.628,274.626,74.147,253.025,74.147,226.947z
			 M42.87,393.938H20.888c3.521-36.454,25.715-67.526,56.871-83.517C57.917,333.091,45.135,362.082,42.87,393.938z M102.954,393.938
			H63.322c4.501-54.16,44.511-98.39,96.621-109.299C127.488,310.78,105.864,349.841,102.954,393.938z M123.392,393.938
			C128.62,325.355,186.099,271.143,256,271.143s127.38,54.212,132.608,122.795H123.392z M409.046,393.938
			c-2.91-44.097-24.534-83.158-56.989-109.299c52.11,10.909,92.12,55.139,96.621,109.299H409.046z M469.13,393.938
			c-2.263-31.846-15.039-60.828-34.869-83.495c31.143,15.994,53.332,47.05,56.85,83.495H469.13z"/>
	</g>
</g>
<g>
	<g>
		<path d="M207.645,300.632c-2.89-4.837-9.154-6.413-13.988-3.526c-27.942,16.693-48.311,44.341-55.883,75.855
			c-1.317,5.477,2.057,10.984,7.534,12.3c0.801,0.193,1.602,0.285,2.392,0.285c4.607,0,8.785-3.143,9.909-7.819
			c6.298-26.211,23.251-49.213,46.511-63.109C208.954,311.728,210.533,305.467,207.645,300.632z"/>
	</g>
</g>
<g>
	<g>
		<path d="M255.857,279.987c-9.507,0-18.975,1.104-28.143,3.28c-5.481,1.3-8.869,6.799-7.568,12.279
			c1.113,4.689,5.296,7.846,9.915,7.846c0.78,0,1.573-0.09,2.364-0.278c7.626-1.81,15.51-2.728,23.432-2.728
			c5.633,0,10.199-4.566,10.199-10.199C266.056,284.553,261.49,279.987,255.857,279.987z"/>
	</g>
</g>
</svg>