<?xml version="1.0" encoding="iso-8859-1"?>
<!-- Uploaded to: SVG Repo, www.svgrepo.com, Generator: SVG Repo Mixer Tools -->
<svg fill="#000000" height="800px" width="800px" version="1.1" id="Layer_1" xmlns="http://www.w3.org/2000/svg" xmlns:xlink="http://www.w3.org/1999/xlink" 
	 viewBox="0 0 512 512" xml:space="preserve">
<g>
	<g>
		<path d="M478.33,51.307H33.67C15.105,51.307,0,66.411,0,84.977v342.046c0,18.566,15.105,33.67,33.67,33.67h444.66
			c18.566,0,33.67-15.105,33.67-33.67V84.977C512,66.411,496.895,51.307,478.33,51.307z M495.967,427.023
			c0,9.725-7.912,17.637-17.637,17.637H33.67c-9.725,0-17.637-7.912-17.637-17.637V135.749h479.933V427.023z M495.967,119.716
			H16.033V84.977c0-9.725,7.912-17.637,17.637-17.637h444.66c9.725,0,17.637,7.912,17.637,17.637V119.716z"/>
	</g>
</g>
<g>
	<g>
		<path d="M469.779,85.511H127.733c-4.427,0-8.017,3.589-8.017,8.017s3.589,8.017,8.017,8.017h342.046
			c4.427,0,8.017-3.589,8.017-8.017S474.206,85.511,469.779,85.511z"/>
	</g>
</g>
<g>
	<g>
		<path d="M178.843,327.547c-1.32-4.056-4.764-6.96-8.987-7.573l-21.903-3.183l-9.795-19.847c-1.889-3.828-5.714-6.206-9.982-6.206
			c-4.268,0-8.094,2.378-9.982,6.205l-9.795,19.847l-21.902,3.182c-4.224,0.614-7.667,3.517-8.987,7.575
			c-1.319,4.059-0.24,8.432,2.817,11.411l15.85,15.449l-3.741,21.815c-0.721,4.207,0.976,8.379,4.43,10.888
			c1.952,1.417,4.234,2.138,6.532,2.138c1.769,0,3.548-0.427,5.191-1.291l19.591-10.3l19.591,10.3
			c3.777,1.986,8.269,1.661,11.723-0.847c3.453-2.509,5.15-6.681,4.428-10.889l-3.741-21.814l15.848-15.449
			C179.082,335.98,180.162,331.607,178.843,327.547z M145.966,345.872c-1.89,1.842-2.751,4.496-2.306,7.096l2.775,16.179
			l-14.529-7.638c-1.168-0.614-2.45-0.92-3.73-0.92s-2.562,0.307-3.73,0.92l-14.529,7.638l2.775-16.179
			c0.446-2.601-0.416-5.255-2.306-7.096l-11.756-11.459l16.245-2.36c2.611-0.379,4.869-2.019,6.036-4.386l7.264-14.721l7.265,14.721
			c1.168,2.365,3.425,4.006,6.036,4.386l16.245,2.36L145.966,345.872z"/>
	</g>
</g>
<g>
	<g>
		<path d="M306.669,327.547c-1.321-4.056-4.765-6.96-8.988-7.573l-21.903-3.183l-9.795-19.847c-1.889-3.828-5.714-6.206-9.982-6.206
			c-4.268,0-8.094,2.378-9.982,6.205l-9.795,19.847l-21.902,3.182c-4.224,0.614-7.668,3.517-8.987,7.576
			c-1.319,4.06-0.239,8.433,2.817,11.411l15.85,15.449l-3.741,21.815c-0.721,4.207,0.976,8.379,4.43,10.888
			c1.952,1.417,4.234,2.138,6.532,2.138c1.769,0,3.548-0.426,5.191-1.291l19.591-10.3l19.591,10.299
			c3.777,1.987,8.269,1.663,11.723-0.847c3.453-2.509,5.15-6.681,4.43-10.889l-3.741-21.814l15.849-15.449
			C306.908,335.98,307.988,331.607,306.669,327.547z M273.791,345.872c-1.89,1.842-2.751,4.496-2.306,7.096l2.775,16.179
			l-14.529-7.638c-2.337-1.227-5.125-1.227-7.461,0l-14.529,7.638l2.775-16.179c0.446-2.601-0.416-5.255-2.306-7.096l-11.756-11.459
			l16.245-2.36c2.611-0.379,4.868-2.019,6.036-4.386L256,312.946l7.265,14.721c1.168,2.365,3.425,4.006,6.036,4.386l16.245,2.36
			L273.791,345.872z"/>
	</g>
</g>
<g>
	<g>
		<path d="M434.493,327.546c-1.322-4.056-4.765-6.959-8.988-7.572l-21.903-3.183l-9.795-19.847
			c-1.889-3.828-5.714-6.206-9.982-6.206s-8.094,2.378-9.982,6.205l-9.795,19.847l-21.903,3.183
			c-4.224,0.614-7.667,3.517-8.986,7.575c-1.319,4.06-0.239,8.433,2.817,11.411l15.85,15.449l-3.741,21.815
			c-0.721,4.207,0.976,8.379,4.428,10.888c3.454,2.509,7.945,2.833,11.724,0.847l19.591-10.3l19.591,10.299
			c1.643,0.865,3.422,1.291,5.191,1.291c2.298,0,4.581-0.719,6.532-2.138c3.453-2.509,5.15-6.681,4.43-10.889l-3.741-21.814
			l15.85-15.45C434.733,335.979,435.813,331.606,434.493,327.546z M401.615,345.872c-1.89,1.842-2.751,4.496-2.306,7.096
			l2.775,16.179l-14.529-7.638c-2.337-1.227-5.125-1.227-7.461,0l-14.529,7.638l2.775-16.179c0.446-2.601-0.416-5.255-2.306-7.096
			l-11.756-11.459l16.245-2.36c2.611-0.379,4.868-2.019,6.036-4.386l7.265-14.721l7.264,14.721c1.167,2.365,3.425,4.006,6.036,4.386
			l16.245,2.36L401.615,345.872z"/>
	</g>
</g>
<g>
	<g>
		<path d="M452.676,256.534H59.324c-13.851,0-25.119,11.268-25.119,25.119V401.37c0,13.851,11.268,25.119,25.119,25.119h393.353
			c13.851,0,25.119-11.268,25.119-25.119V281.653C477.795,267.803,466.527,256.534,452.676,256.534z M461.762,401.37
			c0,5.01-4.076,9.086-9.086,9.086H59.324c-5.01,0-9.086-4.076-9.086-9.086V281.653c0-5.01,4.076-9.086,9.086-9.086h393.353
			c5.01,0,9.086,4.076,9.086,9.086V401.37z"/>
	</g>
</g>
<g>
	<g>
		<path d="M230.347,222.33H127.733c-4.427,0-8.017,3.589-8.017,8.017s3.589,8.017,8.017,8.017h102.614
			c4.427,0,8.017-3.589,8.017-8.017S234.774,222.33,230.347,222.33z"/>
	</g>
</g>
<g>
	<g>
		<path d="M76.426,153.921H42.221c-4.427,0-8.017,3.589-8.017,8.017s3.589,8.017,8.017,8.017h34.205
			c4.427,0,8.017-3.589,8.017-8.017S80.853,153.921,76.426,153.921z"/>
	</g>
</g>
<g>
	<g>
		<path d="M179.04,153.921H110.63c-4.427,0-8.017,3.589-8.017,8.017s3.589,8.017,8.017,8.017h68.409
			c4.427,0,8.017-3.589,8.017-8.017S183.467,153.921,179.04,153.921z"/>
	</g>
</g>
<g>
	<g>
		<path d="M281.653,153.921h-68.409c-4.427,0-8.017,3.589-8.017,8.017s3.589,8.017,8.017,8.017h68.409
			c4.427,0,8.017-3.589,8.017-8.017S286.081,153.921,281.653,153.921z"/>
	</g>
</g>
<g>
	<g>
		<path d="M281.653,222.33h-17.102c-4.427,0-8.017,3.589-8.017,8.017s3.589,8.017,8.017,8.017h17.102
			c4.427,0,8.017-3.589,8.017-8.017S286.081,222.33,281.653,222.33z"/>
	</g>
</g>
<g>
	<g>
		<path d="M93.528,222.33H42.221c-4.427,0-8.017,3.589-8.017,8.017s3.589,8.017,8.017,8.017h51.307c4.427,0,8.017-3.589,8.017-8.017
			S97.956,222.33,93.528,222.33z"/>
	</g>
</g>
<g>
	<g>
		<path d="M127.733,188.125H42.221c-4.427,0-8.017,3.589-8.017,8.017s3.589,8.017,8.017,8.017h85.511
			c4.427,0,8.017-3.589,8.017-8.017S132.16,188.125,127.733,188.125z"/>
	</g>
</g>
<g>
	<g>
		<path d="M281.653,188.125h-34.205c-4.427,0-8.017,3.589-8.017,8.017s3.589,8.017,8.017,8.017h34.205
			c4.427,0,8.017-3.589,8.017-8.017S286.081,188.125,281.653,188.125z"/>
	</g>
</g>
<g>
	<g>
		<path d="M213.244,188.125h-51.307c-4.427,0-8.017,3.589-8.017,8.017s3.589,8.017,8.017,8.017h51.307
			c4.427,0,8.017-3.589,8.017-8.017S217.672,188.125,213.244,188.125z"/>
	</g>
</g>
<g>
	<g>
		<path d="M461.228,153.921H324.409c-9.136,0-16.568,7.432-16.568,16.568v51.307c0,9.136,7.432,16.568,16.568,16.568h136.818
			c9.136,0,16.568-7.432,16.568-16.568v-51.307C477.795,161.353,470.363,153.921,461.228,153.921z M461.762,221.795
			c0,0.295-0.239,0.534-0.534,0.534H324.409c-0.295,0-0.534-0.239-0.534-0.534v-51.307c0-0.295,0.239-0.534,0.534-0.534h136.818
			c0.295,0,0.534,0.239,0.534,0.534V221.795z"/>
	</g>
</g>
<g>
	<g>
		<circle cx="42.221" cy="93.528" r="8.017"/>
	</g>
</g>
<g>
	<g>
		<circle cx="67.875" cy="93.528" r="8.017"/>
	</g>
</g>
<g>
	<g>
		<circle cx="93.528" cy="93.528" r="8.017"/>
	</g>
</g>
</svg>