<svg width="89" height="26" viewBox="0 0 89 26" fill="none" xmlns="http://www.w3.org/2000/svg">
<g clip-path="url(#clip0_1_7479)">
<g clip-path="url(#clip1_1_7479)">
<g clip-path="url(#clip2_1_7479)">
<path d="M27.7226 0.555176H23.7178V25.5852H27.7226V0.555176Z" fill="white"/>
<path d="M41.7393 17.6008C41.7393 21.4314 38.5184 21.7367 37.5603 21.7367C35.1664 21.7367 34.7309 19.496 34.7309 18.1444V8.56494H30.7261V18.1244C30.7261 20.4972 31.471 22.4556 32.7765 23.7612C33.9299 24.9155 35.658 25.5463 37.5302 25.5463C38.8578 25.5463 40.7381 25.1328 41.7393 24.2187V25.5853H45.7441V8.56494H41.7393V17.6008Z" fill="white"/>
<path d="M53.7538 2.55762H49.749V8.56482H46.7454V12.5696H49.749V25.5852H53.7538V12.5696H56.7574V8.56482H53.7538V2.55762Z" fill="white"/>
<path d="M69.3695 20.4963C68.4974 21.2802 67.3461 21.7148 66.0825 21.7148C63.2972 21.7148 61.2518 19.6693 61.2518 16.861C61.2518 14.0526 63.2321 12.0932 66.0825 12.0932C67.324 12.0932 68.4974 12.5067 69.3915 13.2907L69.9992 13.8133L72.6995 11.1141L72.0237 10.5043C70.4348 9.06961 68.3252 8.26465 66.0815 8.26465C61.0755 8.26465 57.4402 11.877 57.4402 16.8399C57.4402 21.7818 61.1627 25.5233 66.0815 25.5233C68.3673 25.5233 70.4988 24.7184 72.0677 23.2606L72.7205 22.6509L69.9782 19.9537L69.3695 20.4963Z" fill="white"/>
<path d="M86.9937 10.0486C85.8403 8.89517 84.4887 8.26442 82.6164 8.26442C81.2889 8.26442 79.7851 8.67791 78.7839 9.59101V0.555176H74.7791V25.5852H78.7839V16.2089C78.7839 12.3783 81.5051 12.074 82.4633 12.074C84.8571 12.074 84.7911 14.3157 84.7911 15.6653V25.5852H88.7959V15.6863C88.7959 13.3135 88.3003 11.3551 86.9937 10.0486Z" fill="white"/>
<path d="M65.9504 14.0093C67.5503 14.0093 68.8468 15.3038 68.8468 16.9047C68.8468 18.5037 67.5503 19.8002 65.9504 19.8002C64.3515 19.8002 63.0559 18.5037 63.0559 16.9047C63.0569 15.3048 64.3525 14.0093 65.9504 14.0093Z" fill="#FF3D2E"/>
<path d="M18.1111 19.2985C16.5882 20.8654 14.5198 21.7144 12.3431 21.7144C7.8818 21.7144 4.63791 18.2102 4.63791 13.4004C4.63791 8.56862 7.8818 5.06442 12.3431 5.06442C14.4987 5.06442 16.5442 5.91244 18.09 7.45829L18.6988 8.06802L21.376 5.39082L20.7883 4.78108C18.5686 2.49535 15.565 1.25586 12.3431 1.25586C5.77027 1.25586 0.829346 6.47912 0.829346 13.4214C0.829346 20.3427 5.79229 25.545 12.3431 25.545C15.587 25.545 18.5906 24.2835 20.8103 21.9977L21.398 21.388L18.7428 18.6677L18.1111 19.2985Z" fill="white"/>
</g>
</g>
</g>
<defs>
<clipPath id="clip0_1_7479">
<rect width="88" height="25.03" fill="white" transform="translate(0.8125 0.555176)"/>
</clipPath>
<clipPath id="clip1_1_7479">
<rect width="88" height="25.03" fill="white" transform="translate(0.8125 0.555176)"/>
</clipPath>
<clipPath id="clip2_1_7479">
<rect width="87.9664" height="25.03" fill="white" transform="translate(0.829346 0.555176)"/>
</clipPath>
</defs>
</svg>
