<svg width="128" height="40" viewBox="0 0 128 40" fill="none" xmlns="http://www.w3.org/2000/svg">
<g clip-path="url(#clip0_1_9300)">
<mask id="mask0_1_9300" style="mask-type:luminance" maskUnits="userSpaceOnUse" x="0" y="0" width="128" height="40">
<path d="M127.528 0H0.472168V40H127.528V0Z" fill="white"/>
</mask>
<g mask="url(#mask0_1_9300)">
<path d="M45.4722 15.5001C45.4722 14.3334 46.4166 13.7778 47.3611 13.7778C48.3055 13.7778 49.2499 14.3334 49.2499 15.5001C49.2499 16.6112 48.3055 17.1667 47.3611 17.1667C46.4166 17.2223 45.4722 16.6112 45.4722 15.5001Z" fill="#343535"/>
</g>
<mask id="mask1_1_9300" style="mask-type:luminance" maskUnits="userSpaceOnUse" x="0" y="0" width="128" height="40">
<path d="M127.528 0H0.472168V40H127.528V0Z" fill="white"/>
</mask>
<g mask="url(#mask1_1_9300)">
<path d="M45.6387 26.9444H49.0831V18H45.6387" fill="#343535"/>
</g>
<mask id="mask2_1_9300" style="mask-type:luminance" maskUnits="userSpaceOnUse" x="0" y="0" width="128" height="40">
<path d="M127.528 0H0.472168V40H127.528V0Z" fill="white"/>
</mask>
<g mask="url(#mask2_1_9300)">
<path d="M57.4167 26.9447V21.9447C57.4167 20.8336 56.75 20.4447 56.1389 20.4447C55.3056 20.4447 54.5833 21.0002 54.5833 22.1669V26.9447H51.25V17.8335H54.25L54.4167 18.8336C55.1944 17.9447 56.3056 17.6113 57.3056 17.6113C59.1944 17.6113 60.8611 18.6669 60.8611 21.8891V26.9447H57.4167Z" fill="#343535"/>
</g>
<mask id="mask3_1_9300" style="mask-type:luminance" maskUnits="userSpaceOnUse" x="0" y="0" width="128" height="40">
<path d="M127.528 0H0.472168V40H127.528V0Z" fill="white"/>
</mask>
<g mask="url(#mask3_1_9300)">
<path d="M67.0277 15.2778V17.8889H69.0832V20.5001H67.0277V23.5001C67.0277 24.1667 67.4166 24.3889 67.9166 24.3889C68.2499 24.3889 68.6388 24.2778 68.9166 24.0556L69.6388 26.5556C68.861 27.0001 67.9721 27.1667 67.0277 27.1667C65.2499 27.1667 63.5832 26.3334 63.6388 23.5001V20.5001H62.1943V17.8889H63.6388V15.6112L67.0277 15.2778Z" fill="#343535"/>
</g>
<mask id="mask4_1_9300" style="mask-type:luminance" maskUnits="userSpaceOnUse" x="0" y="0" width="128" height="40">
<path d="M127.528 0H0.472168V40H127.528V0Z" fill="white"/>
</mask>
<g mask="url(#mask4_1_9300)">
<path d="M80.1386 23.3335H73.8053C74.0275 24.1669 75.0831 24.5002 75.8053 24.5002C76.8053 24.5002 77.5275 24.2224 78.1386 23.778L79.8053 25.6113C78.6942 26.6113 77.2497 27.1113 75.6386 27.1113C72.7497 27.1113 70.3608 25.7224 70.3608 22.3891C70.3608 19.0558 72.9719 17.6113 75.4164 17.6113C78.6386 17.6113 80.9164 19.778 80.1386 23.3335ZM77.1386 21.1669C77.0275 19.7224 74.0831 19.6669 73.8608 21.1669H77.1386Z" fill="#343535"/>
</g>
<mask id="mask5_1_9300" style="mask-type:luminance" maskUnits="userSpaceOnUse" x="0" y="0" width="128" height="40">
<path d="M127.528 0H0.472168V40H127.528V0Z" fill="white"/>
</mask>
<g mask="url(#mask5_1_9300)">
<path d="M85.2498 14.0557H81.9165V26.9446H85.2498V14.0557Z" fill="#343535"/>
</g>
<mask id="mask6_1_9300" style="mask-type:luminance" maskUnits="userSpaceOnUse" x="0" y="0" width="128" height="40">
<path d="M127.528 0H0.472168V40H127.528V0Z" fill="white"/>
</mask>
<g mask="url(#mask6_1_9300)">
<path d="M89.1387 13.7778C90.0831 13.7778 91.0276 14.3334 91.0276 15.5001C91.0276 16.6112 90.0831 17.1667 89.1387 17.1667C88.1942 17.1667 87.2498 16.6112 87.2498 15.5001C87.1942 14.3889 88.1942 13.7778 89.1387 13.7778ZM90.8053 18.0001H87.4164V26.9445H90.8053V18.0001Z" fill="#343535"/>
</g>
<mask id="mask7_1_9300" style="mask-type:luminance" maskUnits="userSpaceOnUse" x="0" y="0" width="128" height="40">
<path d="M127.528 0H0.472168V40H127.528V0Z" fill="white"/>
</mask>
<g mask="url(#mask7_1_9300)">
<path d="M96.4164 20.3891L97.4164 23.3335L98.3053 20.3891L99.3053 17.8335H102.861L99.1386 27.0002H95.7497L91.8608 17.8335H95.4164L96.4164 20.3891Z" fill="#343535"/>
</g>
<mask id="mask8_1_9300" style="mask-type:luminance" maskUnits="userSpaceOnUse" x="0" y="0" width="128" height="40">
<path d="M127.528 0H0.472168V40H127.528V0Z" fill="white"/>
</mask>
<g mask="url(#mask8_1_9300)">
<path d="M105.695 13.7778C106.639 13.7778 107.583 14.3334 107.583 15.5001C107.583 16.6112 106.639 17.1667 105.695 17.1667C104.75 17.1667 103.806 16.6112 103.806 15.5001C103.806 14.3889 104.75 13.7778 105.695 13.7778ZM107.417 18.0001H104.028V26.9445H107.417V18.0001Z" fill="#343535"/>
</g>
<mask id="mask9_1_9300" style="mask-type:luminance" maskUnits="userSpaceOnUse" x="0" y="0" width="128" height="40">
<path d="M127.528 0H0.472168V40H127.528V0Z" fill="white"/>
</mask>
<g mask="url(#mask9_1_9300)">
<path d="M113.75 15.2778V17.8889H115.805V20.5001H113.75V23.5001C113.75 24.1667 114.139 24.3889 114.639 24.3889C114.972 24.3889 115.361 24.2778 115.639 24.0556L116.361 26.5556C115.583 27.0001 114.694 27.1667 113.75 27.1667C111.972 27.1667 110.305 26.3334 110.361 23.5001V20.5001H108.917V17.8889H110.361V15.6112L113.75 15.2778Z" fill="#343535"/>
</g>
<mask id="mask10_1_9300" style="mask-type:luminance" maskUnits="userSpaceOnUse" x="0" y="0" width="128" height="40">
<path d="M127.528 0H0.472168V40H127.528V0Z" fill="white"/>
</mask>
<g mask="url(#mask10_1_9300)">
<path d="M124.361 17.8335H127.528V26.8891H124.417L124.25 25.8891C123.472 26.778 122.25 27.1113 121.25 27.0558C118.583 26.8891 117.083 25.0002 117.083 22.3336C117.083 19.6669 118.861 17.6113 121.472 17.6113C122.75 17.6113 123.639 18.0558 124.139 18.778L124.361 17.8335ZM120.472 22.3891C120.472 23.6669 121.306 24.3891 122.306 24.3891C123.472 24.3891 124.195 23.4447 124.195 22.3891C124.195 21.1669 123.528 20.3891 122.306 20.3891C121.306 20.3891 120.472 21.1113 120.472 22.3891Z" fill="#343535"/>
</g>
<mask id="mask11_1_9300" style="mask-type:luminance" maskUnits="userSpaceOnUse" x="0" y="0" width="128" height="40">
<path d="M127.528 0H0.472168V40H127.528V0Z" fill="white"/>
</mask>
<g mask="url(#mask11_1_9300)">
<path d="M34.8612 5.11117C30.5279 4.77783 25.3612 6.33339 20.4723 9.55561C19.0834 10.5001 17.6946 11.5001 16.3612 12.7223C15.9168 13.1667 15.4168 13.5556 14.9723 14.0001C14.9168 14.0556 14.8612 14.1112 14.7501 14.1667C14.6946 14.2223 14.639 14.3334 14.5279 14.3889C14.0834 14.8334 13.639 15.2778 13.2501 15.7778C12.0834 17.1112 11.0279 18.5001 10.0834 19.8889C6.86122 24.7778 5.30566 29.9445 5.639 34.2778L11.1946 28.7223C11.6946 27.1667 12.3612 25.5556 13.1946 24.0001C13.639 24.5001 14.0279 24.9445 14.5279 25.3889C14.5834 25.4445 14.639 25.5001 14.6946 25.5556C14.7501 25.6112 14.8612 25.7223 14.9168 25.7778C19.7501 30.5001 25.3612 33.5001 30.4168 34.3889C31.9168 34.6667 33.3612 34.7223 34.6946 34.6112L29.8612 29.7778L29.139 29.0556C25.4168 27.8889 21.5834 25.6667 18.3057 22.3889C18.2501 22.3334 18.139 22.2223 18.0834 22.1667C18.0279 22.1112 17.9723 22.0556 17.9168 22.0001C17.2501 21.3334 16.5834 20.6112 16.0279 19.8889C16.639 19.1667 17.2501 18.4445 17.9168 17.7778C17.9723 17.7223 18.0279 17.6112 18.139 17.5556C18.1946 17.5001 18.2501 17.4445 18.3612 17.3889C19.0279 16.7223 19.7501 16.0556 20.4723 15.5001C21.1946 16.1112 21.9168 16.7223 22.5834 17.3889C22.639 17.4445 22.6946 17.5001 22.7501 17.5556C22.8057 17.6112 22.9168 17.7223 22.9723 17.7778C26.2501 21.1112 28.4723 24.9445 29.639 28.6667L30.3057 29.3334L35.1946 34.2223C35.3057 32.8334 35.1946 31.3889 34.9723 29.8889C34.0834 24.7778 31.0834 19.1667 26.3612 14.3334C26.3057 14.2778 26.1946 14.1667 26.139 14.1112C26.0834 14.0556 26.0279 14.0001 25.9723 13.9445C25.5279 13.5001 25.0279 13.0556 24.5834 12.6112C26.139 11.7223 27.7501 11.0556 29.3057 10.6112L34.8612 5.11117Z" fill="#EC7323"/>
</g>
<mask id="mask12_1_9300" style="mask-type:luminance" maskUnits="userSpaceOnUse" x="0" y="0" width="128" height="40">
<path d="M127.528 0H0.472168V40H127.528V0Z" fill="white"/>
</mask>
<g mask="url(#mask12_1_9300)">
<path d="M6.08347 34.6664C10.4168 34.9998 15.5835 33.4442 20.4724 30.222C21.8612 29.2776 23.2501 28.2776 24.5835 27.0553C25.0279 26.6109 25.5279 26.222 25.9724 25.7776C26.0279 25.722 26.0835 25.6664 26.1946 25.6109C26.2501 25.5553 26.3057 25.4442 26.4168 25.3887C26.8612 24.9442 27.3057 24.4998 27.6946 23.9998C28.8612 22.6664 29.9168 21.2776 30.8612 19.8887C34.0835 14.9998 35.639 9.83311 35.3057 5.49978L29.7501 11.0553C29.2501 12.6109 28.5835 14.222 27.7501 15.7776C27.3057 15.2776 26.9168 14.8331 26.4168 14.3887C26.3612 14.3331 26.3057 14.2776 26.2501 14.222C26.1946 14.1664 26.0835 14.0553 26.0279 13.9998C21.1946 9.27756 15.5835 6.27756 10.5279 5.38867C9.02791 5.11089 7.58347 5.05533 6.25013 5.16645L11.0279 9.99978L11.7501 10.722C15.4724 11.8887 19.3057 14.1109 22.5835 17.3887C22.639 17.4442 22.7501 17.5553 22.8057 17.6109C22.8612 17.6664 22.9168 17.722 22.9724 17.7776C23.639 18.4442 24.3057 19.1664 24.8612 19.8887C24.2501 20.6109 23.639 21.3331 22.9724 21.9998C22.9168 22.0553 22.8612 22.1664 22.7501 22.222C22.6946 22.2776 22.639 22.3331 22.5279 22.3887C21.8612 23.0553 21.139 23.722 20.4168 24.2776C19.6946 23.6664 18.9724 23.0553 18.3057 22.3887C18.2501 22.3331 18.1946 22.2776 18.139 22.222C18.0835 22.1664 17.9724 22.0553 17.9168 21.9998C14.639 18.6664 12.4168 14.8331 11.2501 11.1109L10.5835 10.4442L5.75013 5.55533C5.63902 6.94422 5.75013 8.38867 5.97235 9.88867C6.86124 14.9998 9.86124 20.6109 14.5835 25.4442C14.639 25.4998 14.7501 25.6109 14.8057 25.6664C14.8612 25.722 14.9168 25.7776 14.9724 25.8331C15.4168 26.2776 15.9168 26.722 16.3612 27.1664C14.8057 28.0553 13.1946 28.722 11.639 29.1664L6.08347 34.6664Z" fill="#EC7323"/>
</g>
<mask id="mask13_1_9300" style="mask-type:luminance" maskUnits="userSpaceOnUse" x="0" y="0" width="128" height="40">
<path d="M127.528 0H0.472168V40H127.528V0Z" fill="white"/>
</mask>
<g mask="url(#mask13_1_9300)">
<path d="M37.8053 22.6668C39.2498 22.6668 40.472 21.5002 40.472 20.0002C40.472 18.5002 39.3053 17.3335 37.8053 17.3335C36.3609 17.3335 35.1387 18.5002 35.1387 20.0002C35.1387 21.5002 36.3609 22.6668 37.8053 22.6668Z" fill="#EC7323"/>
</g>
<mask id="mask14_1_9300" style="mask-type:luminance" maskUnits="userSpaceOnUse" x="0" y="0" width="128" height="40">
<path d="M127.528 0H0.472168V40H127.528V0Z" fill="white"/>
</mask>
<g mask="url(#mask14_1_9300)">
<path d="M3.13883 22.6112C4.58328 22.6112 5.8055 21.4445 5.8055 19.9445C5.8055 18.5001 4.63883 17.2778 3.13883 17.2778C1.69439 17.2778 0.472168 18.4445 0.472168 19.9445C0.472168 21.4445 1.63883 22.6112 3.13883 22.6112Z" fill="#EC7323"/>
</g>
<mask id="mask15_1_9300" style="mask-type:luminance" maskUnits="userSpaceOnUse" x="0" y="0" width="128" height="40">
<path d="M127.528 0H0.472168V40H127.528V0Z" fill="white"/>
</mask>
<g mask="url(#mask15_1_9300)">
<path d="M20.4723 39.9998C21.9168 39.9998 23.139 38.8332 23.139 37.3332C23.139 35.8887 21.9723 34.6665 20.4723 34.6665C18.9723 34.6665 17.8057 35.8332 17.8057 37.3332C17.8057 38.8332 19.0279 39.9998 20.4723 39.9998Z" fill="#EC7323"/>
</g>
<mask id="mask16_1_9300" style="mask-type:luminance" maskUnits="userSpaceOnUse" x="0" y="0" width="128" height="40">
<path d="M127.528 0H0.472168V40H127.528V0Z" fill="white"/>
</mask>
<g mask="url(#mask16_1_9300)">
<path d="M20.4723 5.33333C21.9168 5.33333 23.139 4.16667 23.139 2.66667C23.139 1.16667 21.9168 0 20.4723 0C19.0279 0 17.8057 1.16667 17.8057 2.66667C17.8057 4.11111 19.0279 5.33333 20.4723 5.33333Z" fill="#EC7323"/>
</g>
</g>
<defs>
<clipPath id="clip0_1_9300">
<rect width="127.056" height="40" fill="white" transform="translate(0.472168)"/>
</clipPath>
</defs>
</svg>
