<?xml version="1.0" encoding="iso-8859-1"?>
<!-- Uploaded to: SVG Repo, www.svgrepo.com, Generator: SVG Repo Mixer Tools -->
<svg fill="#000000" height="800px" width="800px" version="1.1" id="Layer_1" xmlns="http://www.w3.org/2000/svg" xmlns:xlink="http://www.w3.org/1999/xlink" 
	 viewBox="0 0 512 512" xml:space="preserve">
<g>
	<g>
		<path d="M394.004,141.22c-7.724,0-14.004,6.244-14.004,13.92v51.928c0,2.208,1.788,4,4,4c2.212,0,4-1.792,4-4V155.14
			c0-3.264,2.696-5.92,6.004-5.92c3.304,0,5.996,2.656,5.996,5.92v115.928c0,2.208,1.788,4,4,4c2.212,0,4-1.792,4-4V155.14
			C408,147.468,401.724,141.22,394.004,141.22z"/>
	</g>
</g>
<g>
	<g>
		<path d="M450,141.22c-7.72,0-14,6.244-14,13.92v136.144c0,7.672,6.28,13.916,14,13.916c7.72,0,14-6.244,14-13.916V155.14
			C464,147.468,457.72,141.22,450,141.22z M456,291.28c0,3.26-2.692,5.916-6,5.916c-3.308,0-6-2.652-6-5.916V155.136
			c0-3.264,2.692-5.92,6-5.92c3.308,0,6,2.656,6,5.924V291.28z"/>
	</g>
</g>
<g>
	<g>
		<path d="M338.004,141.22c-7.724,0-14.004,6.244-14.004,13.92v27.928c0,2.208,1.788,4,4,4c2.212,0,4-1.792,4-4V155.14
			c0-3.264,2.696-5.92,6.004-5.92c3.304,0,5.996,2.656,5.996,5.92v51.928c0,2.208,1.788,4,4,4c2.212,0,4-1.792,4-4V155.14
			C352,147.468,345.724,141.22,338.004,141.22z"/>
	</g>
</g>
<g>
	<g>
		<path d="M282.004,141.22c-7.724,0-14.004,6.244-14.004,13.92v59.928c0,2.208,1.788,4,4,4c2.212,0,4-1.792,4-4V155.14
			c0-3.264,2.696-5.92,6.004-5.92c3.304,0,5.996,2.656,5.996,5.92v51.928c0,2.208,1.788,4,4,4c2.212,0,4-1.792,4-4V155.14
			C296,147.468,289.724,141.22,282.004,141.22z"/>
	</g>
</g>
<g>
	<g>
		<path d="M226.004,141.22c-7.724,0-14.004,6.244-14.004,13.92v123.928c0,2.208,1.788,4,4,4c2.212,0,4-1.792,4-4V155.14
			c0-3.264,2.696-5.92,6.004-5.92c3.304,0,5.996,2.656,5.996,5.92v103.928c0,2.208,1.788,4,4,4c2.212,0,4-1.792,4-4V155.14
			C240,147.468,233.724,141.22,226.004,141.22z"/>
	</g>
</g>
<g>
	<g>
		<path d="M170,141.22c-7.72,0-14,6.244-14,13.92v44.152c0,7.672,6.28,13.92,14,13.92c7.72,0,14-6.244,14-13.92V155.14
			C184,147.468,177.72,141.22,170,141.22z M176,199.288c0,3.264-2.692,5.92-6,5.92s-6-2.656-6-5.92v-44.152
			c0-3.264,2.692-5.92,6-5.92s6,2.656,6,5.924V199.288z"/>
	</g>
</g>
<g>
	<g>
		<path d="M112.072,95.6L91.444,49.116c-9.112-20.22-24.34-30.048-46.56-30.048H4c-2.212,0-4,1.792-4,4v20c0,2.208,1.788,4,4,4
			h40.296c12.936,0,14.948,4.176,18.892,12.376l17.488,39.84c0.66,1.5,2.124,2.396,3.668,2.396c0.536-0.004,1.08-0.112,1.604-0.344
			c2.02-0.884,2.944-3.244,2.056-5.268L70.456,56.1c-4.22-8.76-8.2-17.032-26.16-17.032H8v-12h36.884
			c19,0,31.476,8.048,39.256,25.316l20.62,46.464c0.896,2.016,3.24,2.936,5.276,2.032C112.056,99.984,112.968,97.62,112.072,95.6z"
			/>
	</g>
</g>
<g>
	<g>
		<path d="M500,115.068c-2.212,0-4,1.792-4,4v194.128c0,6.416-5.244,13.872-12,13.872h-84c-2.212,0-4,1.792-4,4s1.788,4,4,4h84
			c11.784,0,20-11.524,20-21.872V119.068C504,116.86,502.212,115.068,500,115.068z"/>
	</g>
</g>
<g>
	<g>
		<path d="M236,327.064h-35.004c-6.912,0-15.292-5.828-18.292-12.72l-83.08-192.76c-0.876-2.028-3.236-2.956-5.252-2.088
			c-2.028,0.872-2.964,3.228-2.088,5.256l83.084,192.776c4.28,9.836,15.54,17.54,25.632,17.54h35c2.212,0,4-1.796,4-4.004
			S238.212,327.064,236,327.064z"/>
	</g>
</g>
<g>
	<g>
		<path d="M172.032,397.436c-26.328,0-47.744,21.42-47.744,47.752c0,26.328,21.42,47.744,47.744,47.744
			c26.328,0,47.748-21.42,47.752-47.744C219.784,418.856,198.36,397.436,172.032,397.436z M172.032,484.936
			c-21.916,0-39.744-17.828-39.744-39.744c0-21.92,17.828-39.752,39.744-39.752c21.916,0,39.748,17.832,39.752,39.752
			C211.784,467.108,193.948,484.936,172.032,484.936z"/>
	</g>
</g>
<g>
	<g>
		<path d="M108,95.068H88c-2.212,0-4,1.792-4,4s1.788,4,4,4h20c2.212,0,4-1.792,4-4S110.212,95.068,108,95.068z"/>
	</g>
</g>
<g>
	<g>
		<path d="M195.728,441.188c-2.212,0-4,1.792-4,4c0,10.856-8.836,19.688-19.696,19.688c-10.86,0-19.692-8.832-19.692-19.688
			c0-10.86,8.832-19.696,19.692-19.696c2.212,0,4-1.792,4-4s-1.788-4-4-4c-15.272,0-27.692,12.424-27.692,27.696
			c0,15.268,12.424,27.688,27.692,27.688s27.696-12.42,27.696-27.688C199.728,442.98,197.94,441.188,195.728,441.188z"/>
	</g>
</g>
<g>
	<g>
		<path d="M464.252,397.436c-26.332,0-47.748,21.42-47.748,47.752c0,26.328,21.42,47.744,47.748,47.744
			c26.332,0,47.748-21.42,47.748-47.744C512,418.86,490.584,397.436,464.252,397.436z M464.252,484.936
			c-21.92,0-39.748-17.828-39.748-39.744c0-21.92,17.832-39.752,39.748-39.752c21.92,0,39.748,17.832,39.748,39.748
			S486.172,484.936,464.252,484.936z"/>
	</g>
</g>
<g>
	<g>
		<path d="M487.944,441.188c-2.212,0-4,1.792-4,4c0,10.856-8.832,19.688-19.692,19.688s-19.692-8.832-19.692-19.688
			c0-10.86,8.832-19.696,19.692-19.696c2.212,0,4-1.792,4-4s-1.788-4-4-4c-15.272,0-27.692,12.424-27.692,27.696
			c0,15.268,12.424,27.688,27.692,27.688c15.272,0,27.692-12.42,27.692-27.688C491.944,442.98,490.156,441.188,487.944,441.188z"/>
	</g>
</g>
<g>
	<g>
		<path d="M420,451.068H216c-2.212,0-4,1.792-4,4s1.788,4,4,4h204c2.212,0,4-1.792,4-4S422.212,451.068,420,451.068z"/>
	</g>
</g>
<g>
	<g>
		<path d="M420,431.068H216c-2.212,0-4,1.792-4,4s1.788,4,4,4h204c2.212,0,4-1.792,4-4S422.212,431.068,420,431.068z"/>
	</g>
</g>
<g>
	<g>
		<path d="M211.784,328.716c-2.02-0.876-4.38,0.056-5.256,2.092l-29.352,68.188c-0.872,2.028,0.064,4.384,2.092,5.256
			c0.516,0.224,1.052,0.328,1.584,0.328c1.548,0,3.024-0.904,3.672-2.42l29.352-68.188
			C214.748,331.944,213.812,329.588,211.784,328.716z"/>
	</g>
</g>
<g>
	<g>
		<path d="M233.932,328.724c-2.052-0.892-4.384,0.048-5.264,2.072l-33.304,76.548c-0.88,2.024,0.048,4.384,2.072,5.264
			c0.52,0.224,1.06,0.332,1.592,0.332c1.548,0,3.016-0.9,3.672-2.404l33.304-76.548
			C236.884,331.964,235.956,329.604,233.932,328.724z"/>
	</g>
</g>
<g>
	<g>
		<path d="M500,95.068H84c-6.616,0-12,5.384-12,12v4c0,6.616,5.384,12,12,12h416c6.616,0,12-5.384,12-12v-4
			C512,100.452,506.616,95.068,500,95.068z M504,111.068c0,2.204-1.792,4-4,4H84c-2.208,0-4-1.796-4-4v-4c0-2.204,1.792-4,4-4h416
			c2.208,0,4,1.796,4,4V111.068z"/>
	</g>
</g>
<g>
	<g>
		<path d="M367.388,260.26c-1.184-1.868-3.66-2.416-5.524-1.236c-1.864,1.184-2.42,3.656-1.236,5.52
			c7.184,11.324,9.528,24.772,6.6,37.864c-2.928,13.096-10.78,24.264-22.104,31.448c-23.392,14.836-54.48,7.872-69.308-15.508
			c-7.184-11.328-9.528-24.776-6.6-37.864c2.928-13.092,10.78-24.26,22.112-31.444c13.66-8.668,30.78-10.204,45.796-4.116
			c1.088,0.44,2.148,0.908,3.204,1.428c1.988,0.976,4.38,0.164,5.356-1.82c0.98-1.98,0.164-4.38-1.816-5.356
			c-1.228-0.608-2.472-1.156-3.732-1.668c-17.408-7.06-37.256-5.276-53.092,4.772c-13.136,8.328-22.236,21.276-25.636,36.452
			c-3.396,15.176-0.676,30.764,7.652,43.896c11.072,17.46,29.964,27.02,49.256,27.02c10.66,0,21.44-2.92,31.096-9.036
			C376.52,323.408,384.584,287.36,367.388,260.26z"/>
	</g>
</g>
<g>
	<g>
		<path d="M417.772,273.568l-9.628-0.764c-2.348-11.172-7.008-22.128-13.62-32l5.944-7.108c4.744-5.596,4.36-14.396-0.872-19.624
			l-4.38-4.352c-5.012-5.012-14.208-5.392-19.624-0.8l-7.216,6.108c-9.768-6.432-20.472-10.852-31.9-13.168l-0.776-9.476
			c-0.6-7.34-7.08-13.316-14.44-13.316h-6.16c-7.348,0-13.828,5.972-14.44,13.304l-0.776,9.48
			c-11.412,2.312-22.108,6.728-31.88,13.16L260.8,208.9c-5.428-4.592-14.604-4.196-19.612,0.816l-4.356,4.356
			c-5.208,5.208-5.564,14.008-0.812,19.608l6.04,7.128c-6.444,9.676-11.02,20.628-13.384,32l-9.176,0.756
			c-7.34,0.604-13.3,7.088-13.288,14.432l-0.008,6.164c0,7.356,5.964,13.836,13.296,14.44l9.02,0.74
			c2.28,11.456,6.828,22.52,13.28,32.324l-5.772,6.8c-4.764,5.616-4.4,14.416,0.8,19.616l4.364,4.376
			c5.024,5.012,14.184,5.392,19.616,0.792l6.716-5.704c9.904,6.624,20.788,11.152,32.416,13.496l0.724,8.724
			c0.604,7.336,7.08,13.304,14.436,13.304h6.164c7.356,0,13.832-5.964,14.444-13.308l0.712-8.72
			c11.624-2.348,22.508-6.88,32.428-13.504l6.732,5.704c2.56,2.168,5.876,3.364,9.344,3.364c3.876,0,7.624-1.52,10.264-4.168
			l4.348-4.348c5.22-5.192,5.58-13.996,0.812-19.628l-5.768-6.804c6.44-9.788,10.98-20.844,13.264-32.304l9.932-0.752
			c7.712-0.636,14.224-7.248,14.224-14.44v-6.152C432,280.82,425.492,274.208,417.772,273.568z M424,294.156
			c0,2.98-3.408,6.184-6.856,6.468l-12.992,0.988c-1.84,0.14-3.348,1.524-3.644,3.348c-2.012,12.392-6.928,24.372-14.216,34.648
			c-1.056,1.492-0.972,3.508,0.212,4.904l7.744,9.128c2.1,2.48,1.936,6.5-0.36,8.788l-4.36,4.36
			c-2.184,2.188-6.396,2.368-8.776,0.356l-9.072-7.688c-1.404-1.192-3.44-1.268-4.916-0.2c-10.464,7.492-22.156,12.36-34.748,14.468
			c-1.808,0.304-3.176,1.792-3.328,3.62l-0.96,11.768c-0.264,3.228-3.224,5.956-6.464,5.956H315.1c-3.236,0-6.196-2.728-6.46-5.96
			l-0.98-11.776c-0.148-1.824-1.52-3.316-3.328-3.616c-12.604-2.104-24.288-6.964-34.728-14.456c-0.7-0.504-1.516-0.752-2.332-0.752
			c-0.924,0-1.848,0.32-2.592,0.952l-9.052,7.688c-2.372,2.02-6.6,1.828-8.784-0.344l-4.36-4.372
			c-2.292-2.292-2.456-6.316-0.36-8.788l7.748-9.124c1.18-1.396,1.272-3.412,0.212-4.904c-7.404-10.44-12.192-22.096-14.232-34.648
			c-0.296-1.816-1.788-3.192-3.62-3.344l-12.08-0.992c-3.224-0.268-5.952-3.228-5.952-6.46l0.008-6.168
			c-0.004-3.236,2.716-6.192,5.944-6.46l12.212-1.004c1.82-0.152,3.304-1.512,3.612-3.312c2.112-12.304,7.08-24.172,14.36-34.324
			c1.068-1.492,0.988-3.516-0.2-4.916l-8.02-9.472c-2.092-2.464-1.924-6.484,0.368-8.78l4.356-4.352
			c2.188-2.192,6.412-2.368,8.788-0.368l9.524,8.08c1.388,1.18,3.4,1.268,4.896,0.216c10.32-7.296,21.84-12.048,34.232-14.124
			c1.804-0.304,3.176-1.792,3.328-3.62l1.024-12.524c0.272-3.24,3.232-5.976,6.468-5.976h6.16c3.244,0,6.204,2.736,6.464,5.968
			l1.028,12.524c0.152,1.828,1.52,3.316,3.324,3.62c12.416,2.084,23.94,6.84,34.252,14.132c1.484,1.056,3.504,0.968,4.896-0.212
			l9.544-8.08c2.368-2.012,6.588-1.836,8.804,0.364l4.38,4.348c2.308,2.304,2.496,6.328,0.4,8.804L386.436,238
			c-1.172,1.4-1.248,3.416-0.184,4.9c7.488,10.428,12.532,22.3,14.596,34.32c0.308,1.804,1.8,3.164,3.624,3.312l12.656,1.004
			c3.468,0.288,6.872,3.492,6.872,6.468V294.156z"/>
	</g>
</g>
</svg>