<?xml version="1.0" encoding="iso-8859-1"?>
<!-- Uploaded to: SVG Repo, www.svgrepo.com, Generator: SVG Repo Mixer Tools -->
<svg fill="#000000" version="1.1" id="Layer_1" xmlns="http://www.w3.org/2000/svg" xmlns:xlink="http://www.w3.org/1999/xlink" 
	 viewBox="0 0 496 496" xml:space="preserve">
<g>
	<g>
		<g>
			<path d="M464,80.808V0H32v80.808C13.768,84.528,0,100.688,0,120v288c0,22.056,17.944,40,40,40h112v32h-32v16h256v-16h-32v-32h112
				c22.056,0,40-17.944,40-40V120C496,100.688,482.232,84.528,464,80.808z M48,16h400v48H48V16z M48,80h400v272H48V80z M328,480H168
				v-32h160V480z M480,408c0,13.232-10.768,24-24,24H40c-13.232,0-24-10.768-24-24v-8h464V408z M480,384H16V120
				c0-10.416,6.712-19.216,16-22.528V368h432V97.472c9.288,3.312,16,12.112,16,22.528V384z"/>
			<rect x="64" y="32" width="16" height="16"/>
			<rect x="96" y="32" width="16" height="16"/>
			<rect x="128" y="32" width="16" height="16"/>
			<path d="M64,208h368V96H64V208z M80,112h336v80H80V112z"/>
			<rect x="264" y="224" width="168" height="16"/>
			<rect x="264" y="256" width="168" height="16"/>
			<rect x="264" y="288" width="168" height="16"/>
			<rect x="416" y="320" width="16" height="16"/>
			<rect x="264" y="320" width="136" height="16"/>
			<path d="M64,336h184V224H64V336z M80,240h152v80H80V240z"/>
		</g>
	</g>
</g>
</svg>