<?xml version="1.0" encoding="utf-8"?>
<!-- Generator: Adobe Illustrator 23.0.3, SVG Export Plug-In . SVG Version: 6.00 Build 0)  -->
<svg version="1.1" id="Layer_1" xmlns="http://www.w3.org/2000/svg" xmlns:xlink="http://www.w3.org/1999/xlink" x="0px" y="0px"
	 viewBox="0 0 100 100" style="enable-background:new 0 0 100 100;" xml:space="preserve">
<style type="text/css">
	.st0{fill:url(#SVGID_1_);}
	.st1{fill:url(#SVGID_2_);}
	.st2{fill:url(#SVGID_3_);}
	.st3{fill:url(#SVGID_4_);}
	.st4{opacity:0.2;fill:#56C7DA;enable-background:new    ;}
	.st5{fill:url(#SVGID_5_);}
	.st6{fill:url(#SVGID_6_);}
</style>
<g>
	
		<linearGradient id="SVGID_1_" gradientUnits="userSpaceOnUse" x1="0.3812" y1="54" x2="99.6188" y2="54" gradientTransform="matrix(1 0 0 -1 0 102)">
		<stop  offset="0" style="stop-color:#95DCF6"/>
		<stop  offset="1" style="stop-color:#507EFF"/>
	</linearGradient>
	<path class="st0" d="M85.1,42.5c0-0.2,0-0.5,0-0.7c0-14.8-12.1-26.9-26.9-26.9c-9.8,0-18.8,5.4-23.5,13.8c-2-0.9-4.2-1.4-6.5-1.4
		c-8,0-14.6,6.1-15.4,14.2C5.4,44.7,0.4,52.2,0.4,60.4c0,11.4,9.3,20.7,20.7,20.7H80c10.8,0,19.6-8.8,19.6-19.6
		C99.6,52.5,93.6,44.8,85.1,42.5z"/>
	
		<radialGradient id="SVGID_2_" cx="51.3783" cy="21.9545" r="42.1679" gradientTransform="matrix(1 0 0 -1 0 102)" gradientUnits="userSpaceOnUse">
		<stop  offset="0" style="stop-color:#009ADA"/>
		<stop  offset="1" style="stop-color:#1E88E5;stop-opacity:0"/>
	</radialGradient>
	<path class="st1" d="M85.1,42.5c0-0.2,0-0.5,0-0.7c0-14.8-12.1-26.9-26.9-26.9c-9.8,0-18.8,5.4-23.5,13.8c-2-0.9-4.2-1.4-6.5-1.4
		c-8,0-14.6,6.1-15.4,14.2C5.4,44.7,0.4,52.2,0.4,60.4c0,11.4,9.3,20.7,20.7,20.7H80c10.8,0,19.6-8.8,19.6-19.6
		C99.6,52.5,93.6,44.8,85.1,42.5z"/>
	
		<linearGradient id="SVGID_3_" gradientUnits="userSpaceOnUse" x1="62.1732" y1="48.8641" x2="97.7829" y2="32.259" gradientTransform="matrix(1 0 0 -1 0 102)">
		<stop  offset="0" style="stop-color:#FFFFFF;stop-opacity:6.000000e-02"/>
		<stop  offset="1" style="stop-color:#FFFFFF;stop-opacity:0"/>
	</linearGradient>
	<circle class="st2" cx="80" cy="61.4" r="19.6"/>
	
		<linearGradient id="SVGID_4_" gradientUnits="userSpaceOnUse" x1="35.9145" y1="51.672" x2="5.9365" y2="31.342" gradientTransform="matrix(1 0 0 -1 0 102)">
		<stop  offset="0" style="stop-color:#FFFFFF;stop-opacity:0"/>
		<stop  offset="1" style="stop-color:#FFFFFF;stop-opacity:6.000000e-02"/>
	</linearGradient>
	<circle class="st3" cx="21.1" cy="60.4" r="20.7"/>
	<circle class="st4" cx="28.3" cy="42.8" r="15.5"/>
	
		<linearGradient id="SVGID_5_" gradientUnits="userSpaceOnUse" x1="58.2698" y1="87.0792" x2="58.2698" y2="33.3255" gradientTransform="matrix(1 0 0 -1 0 102)">
		<stop  offset="0" style="stop-color:#00ACCD;stop-opacity:0.2"/>
		<stop  offset="0.1274" style="stop-color:#1AB4D2;stop-opacity:0.1745"/>
		<stop  offset="0.4001" style="stop-color:#5CCADF;stop-opacity:0.12"/>
		<stop  offset="0.7929" style="stop-color:#C5ECF4;stop-opacity:4.141600e-02"/>
		<stop  offset="1" style="stop-color:#FFFFFF;stop-opacity:0"/>
	</linearGradient>
	<circle class="st5" cx="58.3" cy="41.8" r="26.9"/>
	
		<linearGradient id="SVGID_6_" gradientUnits="userSpaceOnUse" x1="10.5408" y1="67.9002" x2="95.8471" y2="28.1213" gradientTransform="matrix(1 0 0 -1 0 102)">
		<stop  offset="0" style="stop-color:#FFFFFF;stop-opacity:0.1"/>
		<stop  offset="1" style="stop-color:#FFFFFF;stop-opacity:0"/>
	</linearGradient>
	<path class="st6" d="M85.1,42.5c0-0.2,0-0.5,0-0.7c0-14.8-12.1-26.9-26.9-26.9c-9.8,0-18.8,5.4-23.5,13.8c-2-0.9-4.2-1.4-6.5-1.4
		c-8,0-14.6,6.1-15.4,14.2C5.4,44.7,0.4,52.2,0.4,60.4c0,11.4,9.3,20.7,20.7,20.7H80c10.8,0,19.6-8.8,19.6-19.6
		C99.6,52.5,93.6,44.8,85.1,42.5z"/>
</g>
</svg>
