<?xml version="1.0" encoding="utf-8"?>
<!-- Generator: Adobe Illustrator 23.0.3, SVG Export Plug-In . SVG Version: 6.00 Build 0)  -->
<svg version="1.1" id="Layer_1" xmlns="http://www.w3.org/2000/svg" xmlns:xlink="http://www.w3.org/1999/xlink" x="0px" y="0px"
	 viewBox="0 0 100 100" style="enable-background:new 0 0 100 100;" xml:space="preserve">
<style type="text/css">
	.st0{fill:#004711;}
	.st1{fill:#00B159;}
</style>
<path class="st0" d="M30.2,46.1L26,18.8L9.2,8.5l5,25.7L30.2,46.1L30.2,46.1z M34.1,75.5l-2.7-19.4l-15-12.3L20.3,63L34.1,75.5z
	 M22.2,71.2l2.7,14.5l12.8,13.1L35.8,84L22.2,71.2L22.2,71.2z M60.3,66.7l-6.6-4.8c0,0-0.1,1.7-0.3,1.8l-4.8,3.3l5.2,4.3l0.3,4.8
	l6.2,5L60.3,66.7L60.3,66.7z M80.1,52.6l-1.2,13.6l-4.4-2.9c0,0,0.5-6.9,0.5-6.9c0,0-8.5-5.7-8.5-5.7l0.3-6.3L80.1,52.6z"/>
<path class="st1" d="M52.2,34.9L50.9,9.4L26,18.8l4.2,27.3L52.2,34.9L52.2,34.9z M53.3,63.7l-1-19.4L31.4,56.1L34.5,76L53.3,63.7
	L53.3,63.7z M53.7,71.5L35.8,84L38,99.3l16.3-12.8L53.7,71.5z M60.5,66.6l0.3,14.8L73.7,71L74.4,57L60.5,66.6L60.5,66.6z M91.3,45.3
	l-1.7,13l-10.1,8l1.2-13.6L91.3,45.3L91.3,45.3z"/>
<path d="M54.3,71.3C54.3,71.3,54.3,71.3,54.3,71.3c0-0.1,0-0.1,0-0.2c0,0,0-0.1,0-0.1c0,0,0,0,0,0c0,0,0-0.1-0.1-0.1c0,0,0,0,0,0
	l0,0L49.3,67l4.4-2.9c0.2-0.1,0.3-0.3,0.3-0.5l0-1l5.8,4.4l0.1,13.4l-5.4-4.5L54.3,71.3L54.3,71.3z M30.9,56.3l2.7,18.3L20.8,62.7
	L17.1,45L30.9,56.3L30.9,56.3z M52.8,63.3L34.9,75.2l-2.8-18.8L52,45.1L52.8,63.3z M50.5,10l1.1,24.6l-21,10.8l-3.9-26.3L50.5,10z
	 M25.4,19.1L29.2,45L14.8,33.8L9.7,9.4L25.4,19.1L25.4,19.1z M25.6,85.6l-2.7-13.1l12.2,11.8L37,97.6L25.6,85.6z M53.8,86.1
	L38.3,98.3l-2.1-13.9l16.9-12L53.8,86.1z M73.1,70.8l-12,9.5L61,66.9l13-9.2L73.1,70.8z M74.8,63.2l0.4-6.6c0,0,0,0,0,0c0,0,0,0,0,0
	c0,0,0-0.1,0-0.1c0,0,0,0,0-0.1c0,0,0-0.1-0.1-0.1c0,0,0,0,0,0c0,0-0.1-0.1-0.1-0.1c0,0,0,0,0,0c0,0,0,0-0.1-0.1l-8.1-5.3l0.1-5.8
	l12.8,7.9l-1.1,13L74.8,63.2L74.8,63.2z M79.8,65.6l1.1-12.8L91,45.7l-1.7,12.4L79.8,65.6L79.8,65.6z M92.4,44.3
	C92.4,44.3,92.4,44.3,92.4,44.3C92.4,44.3,92.4,44.3,92.4,44.3c0-0.1,0-0.2-0.1-0.2c0,0,0-0.1-0.1-0.1c0,0,0,0,0,0
	c0,0-0.1-0.1-0.1-0.1c0,0,0,0,0,0c0,0,0,0,0,0c0,0,0,0,0,0l-13.8-7.6c-0.2-0.1-0.4-0.1-0.6,0l-11.6,7c0,0,0,0-0.1,0c0,0,0,0-0.1,0
	c0,0,0,0-0.1,0.1c0,0,0,0,0,0.1c0,0,0,0.1,0,0.1c0,0,0,0,0,0.1c0,0,0,0.1,0,0.1c0,0,0,0,0,0.1l-0.1,6.1l-4.7-3.1
	c-0.2-0.1-0.4-0.1-0.6,0L53.5,51l-0.3-6.9c0,0,0,0,0,0c0,0,0-0.1,0-0.1c0,0,0,0,0-0.1c0,0,0-0.1,0-0.1c0,0,0,0,0-0.1c0,0,0,0,0-0.1
	c0,0,0,0-0.1-0.1c0,0,0,0,0,0l-7.1-4.7l6.6-3.4c0.2-0.1,0.3-0.3,0.3-0.6L51.7,9.2c0,0,0-0.1,0-0.1c0,0,0,0,0,0c0-0.1,0-0.1-0.1-0.1
	c0,0,0,0,0,0c0,0-0.1-0.1-0.1-0.1c0,0,0,0,0,0c0,0,0,0-0.1,0c0,0,0,0,0,0c0,0,0,0,0,0L33.4,0.1C33.3,0,33.1,0,33,0.1L8.6,7.6l0,0
	c0,0,0,0,0,0c0,0-0.1,0-0.1,0.1l0,0c0,0,0,0,0,0c0,0-0.1,0.1-0.1,0.1c0,0,0,0,0,0.1c0,0,0,0,0,0.1c0,0,0,0.1,0,0.1c0,0,0,0,0,0.1
	c0,0,0,0,0,0c0,0,0,0.1,0,0.1c0,0,0,0.1,0,0.1c0,0,0,0,0,0l5.4,26c0,0.1,0.1,0.3,0.2,0.4l7.4,5.7l-5.3,2.5c0,0,0,0,0,0c0,0,0,0,0,0
	c0,0,0,0,0,0c0,0-0.1,0-0.1,0.1c0,0,0,0,0,0c0,0,0,0.1-0.1,0.1c0,0,0,0,0,0c0,0.1,0,0.1,0,0.2v0c0,0,0,0,0,0c0,0,0,0.1,0,0.1
	c0,0,0,0,0,0l4.1,19.6c0,0.1,0.1,0.2,0.2,0.3l5.1,4.8l-3.4,2.1c0,0-0.1,0.1-0.1,0.1c0,0,0,0,0,0c0,0-0.1,0.1-0.1,0.1
	c0,0.1-0.1,0.1-0.1,0.2c0,0.1,0,0.1,0,0.2c0,0,0,0,0,0L24.5,86c0,0.1,0.1,0.2,0.2,0.3l12.8,13.5c0,0,0,0,0.1,0.1c0,0,0,0,0,0
	c0,0,0.1,0.1,0.1,0.1c0,0,0,0,0,0c0,0,0,0,0,0c0.1,0,0.1,0,0.2,0c0.1,0,0.1,0,0.2,0c0,0,0,0,0,0c0,0,0,0,0.1,0c0,0,0,0,0,0l16.5-13
	c0.2-0.1,0.2-0.3,0.2-0.5l-0.4-8.9l5.5,4.6c0,0,0,0,0,0c0,0,0.1,0,0.1,0.1c0,0,0,0,0,0c0,0,0,0,0,0c0.1,0,0.1,0,0.2,0
	c0.1,0,0.1,0,0.2,0c0,0,0,0,0,0c0,0,0,0,0,0c0,0,0.1,0,0.1-0.1c0,0,0,0,0,0l13.2-10.4c0.1-0.1,0.2-0.3,0.2-0.4l0.4-6.6l4,2.8
	c0,0,0,0,0,0c0,0,0,0,0,0c0,0,0,0,0.1,0c0,0,0,0,0,0c0.1,0,0.1,0,0.2,0c0.1,0,0.1,0,0.2,0c0,0,0,0,0,0c0,0,0,0,0,0
	c0,0,0.1,0,0.1-0.1c0,0,0,0,0,0l10.8-8.5c0.1-0.1,0.2-0.2,0.2-0.4l1.9-14C92.4,44.4,92.4,44.4,92.4,44.3
	C92.4,44.4,92.4,44.4,92.4,44.3L92.4,44.3z"/>
</svg>
