<?xml version="1.0" encoding="utf-8"?>
<!-- Generator: Adobe Illustrator 23.0.3, SVG Export Plug-In . SVG Version: 6.00 Build 0)  -->
<svg version="1.1" id="Layer_1" xmlns="http://www.w3.org/2000/svg" xmlns:xlink="http://www.w3.org/1999/xlink" x="0px" y="0px"
	 viewBox="0 0 100 100" style="enable-background:new 0 0 100 100;" xml:space="preserve">
<style type="text/css">
	.st0{fill:url(#SVGID_1_);}
	.st1{fill:url(#SVGID_2_);}
	.st2{fill:#FFFFFF;}
</style>
<linearGradient id="SVGID_1_" gradientUnits="userSpaceOnUse" x1="-1671.7339" y1="-1174.379" x2="-1669.8174" y2="-1163.5104" gradientTransform="matrix(-9.7656 0 0 9.7656 -16266.1133 11465.4688)">
	<stop  offset="0" style="stop-color:#FAAE42"/>
	<stop  offset="1" style="stop-color:#EF3E31"/>
</linearGradient>
<path class="st0" d="M22.2,0.5h55.4c2.7,0,5.3,0.4,7.8,1.3c3.7,1.3,7,3.6,9.5,6.7c2.5,3,4.2,6.7,4.8,10.6c0.2,1.4,0.3,2.9,0.3,4.3
	v53.5c0,1.7-0.1,3.4-0.4,5.1c-0.8,3.8-2.6,7.4-5.3,10.3c-2.6,2.9-6.1,5.1-9.8,6.2c-2.3,0.7-4.6,1-7,1c-1.1,0-55.5,0-56.3,0
	c-4-0.2-7.9-1.5-11.2-3.7c-3.2-2.2-5.9-5.2-7.6-8.7c-1.5-3-2.2-6.3-2.2-9.6v-55C0.1,19.2,0.8,16,2.2,13c1.7-3.5,4.3-6.5,7.5-8.7
	C13.1,2.1,17,0.8,21,0.6C21.4,0.5,21.8,0.5,22.2,0.5z"/>
<linearGradient id="SVGID_2_" gradientUnits="userSpaceOnUse" x1="27.6546" y1="77.3436" x2="26.2526" y2="69.3923" gradientTransform="matrix(9.7656 0 0 -9.7656 -219.1406 757.4219)">
	<stop  offset="0" style="stop-color:#E39F3A"/>
	<stop  offset="1" style="stop-color:#D33929"/>
</linearGradient>
<path class="st1" d="M84.3,81.5c-0.4-0.5-0.7-1.1-1.2-1.6c-1-1.2-2.1-2.2-3.4-3c-1.6-1-3.4-1.7-5.3-1.8c-1.3-0.1-2.7,0.2-3.9,0.6
	c-1.2,0.4-2.5,1-3.6,1.7c-1.4,0.7-2.7,1.4-4.2,2c-1.7,0.7-3.5,1.2-5.3,1.6c-2.3,0.4-4.6,0.6-7,0.5c-4.2-0.1-8.4-0.7-12.3-1.9
	c-3.5-1-6.9-2.5-10-4.3c-2.8-1.6-5.3-3.4-7.8-5.5c-2-1.7-3.8-3.5-5.5-5.5c-1.2-1.4-2.3-2.8-3.4-4.3c-0.4-0.6-0.8-1.2-1.2-1.8L0,47.4
	V22.4C0,10.3,9.9,0.5,22.1,0.5h19.7l14.6,14.7c33,22.2,22.3,46.7,22.3,46.7S88.1,72.3,84.3,81.5z"/>
<path class="st2" d="M56.5,15.2c33,22.2,22.3,46.7,22.3,46.7s9.4,10.5,5.6,19.6c0,0-3.9-6.4-10.3-6.4c-6.2,0-9.9,6.4-22.5,6.4
	c-28,0-41.2-23.2-41.2-23.2c25.2,16.4,42.4,4.8,42.4,4.8c-11.4-6.5-35.5-37.8-35.5-37.8c21,17.7,30.1,22.4,30.1,22.4
	c-5.4-4.4-20.7-26.2-20.7-26.2c12.2,12.2,36.4,29.3,36.4,29.3C70,32,56.5,15.2,56.5,15.2z"/>
</svg>
