<?xml version="1.0" encoding="iso-8859-1"?>
<!-- Uploaded to: SVG Repo, www.svgrepo.com, Generator: SVG Repo Mixer Tools -->
<!DOCTYPE svg PUBLIC "-//W3C//DTD SVG 1.1//EN" "http://www.w3.org/Graphics/SVG/1.1/DTD/svg11.dtd">
<svg fill="#000000" version="1.1" id="Capa_1" xmlns="http://www.w3.org/2000/svg" xmlns:xlink="http://www.w3.org/1999/xlink" 
	 width="800px" height="800px" viewBox="0 0 71.009 71.009"
	 xml:space="preserve">
<g>
	<g>
		<g>
			<path d="M70.559,13.553c-0.223,0.672-0.672,1.344-1.344,2.016l-17.92,17.473c-0.225-2.017-0.447-4.031-1.345-5.375l14.784-14.785
				H5.375l14.784,14.785c-0.672,1.79-1.12,3.584-1.344,5.375L1.568,15.57c-0.672-0.672-1.12-1.345-1.344-2.017
				C0,14.002,0,14.674,0,15.346V53.2c0,0.672,0.224,1.121,0.224,1.793l20.608-13.889c0.672,1.566,1.568,2.688,2.688,4.029
				L4.256,58.127c0.224,0,0.224,0,0.448,0h61.599c0.227,0,0.227,0,0.449,0L47.264,45.138c1.119-1.119,2.016-2.688,2.688-4.031
				l20.832,13.888c0.225-0.448,0.225-1.121,0.225-1.793v-38.08C71.008,14.674,70.784,14.002,70.559,13.553z M40.096,39.763
				c-1.568,0-2.465-0.673-2.688-2.466l0,0c-1.12,1.567-2.464,2.466-4.256,2.466c-2.016,0-3.584-1.568-3.584-4.033
				c0-3.585,2.688-7.169,7.168-7.169c1.345,0,2.688,0.449,3.584,0.896l-0.896,5.377c-0.226,1.791,0,2.688,0.896,2.688
				c1.345,0,3.136-1.792,3.136-5.152c0-4.031-2.688-6.943-7.616-6.943c-4.48,0-8.736,3.584-8.736,9.631
				c0,5.152,3.36,8.289,7.84,8.289c1.568,0,3.359-0.445,4.48-0.896l0.672,1.793c-1.793,0.896-3.584,1.118-5.825,1.118
				c-5.152,0-9.632-3.584-9.632-9.631c0-6.271,4.48-11.646,11.423-11.646c5.377,0,9.185,3.584,9.185,9.184
				C45.695,37.074,43.456,39.763,40.096,39.763z"/>
			<path d="M32.928,35.506c0,1.119,0.448,2.017,1.568,2.017s2.463-1.568,2.688-3.359l0.447-3.137c-0.225,0-0.672-0.225-0.896-0.225
				C34.496,31.026,32.928,33.042,32.928,35.506z"/>
		</g>
	</g>
</g>
</svg>