<!DOCTYPE svg PUBLIC "-//W3C//DTD SVG 1.1//EN" "http://www.w3.org/Graphics/SVG/1.1/DTD/svg11.dtd">
<!-- Uploaded to: SVG Repo, www.svgrepo.com, Transformed by: SVG Repo Mixer Tools -->
<svg width="800px" height="800px" viewBox="0 0 20 20" xmlns="http://www.w3.org/2000/svg" fill="#000000" transform="matrix(-1, 0, 0, 1, 0, 0)">
<g id="SVGRepo_bgCarrier" stroke-width="0"/>
<g id="SVGRepo_tracerCarrier" stroke-linecap="round" stroke-linejoin="round"/>
<g id="SVGRepo_iconCarrier"> <rect x="0" fill="none" width="20" height="20"/> <g> <path d="M12.06 6l-.21-.2c-.52-.54-.43-.79.08-1.3l2.72-2.75c.81-.82.96-1.21 1.73-.48l.21.2zm.53.45l4.4-4.4c.7.94 2.34 3.47 1.53 5.34-.73 1.67-1.09 1.75-2 3-1.85 2.11-4.18 4.37-6 6.07-1.26.91-1.31 1.33-3 2-1.8.71-4.4-.89-5.38-1.56l4.4-4.4 1.18 1.62c.34.46 1.2-.06 1.8-.66 1.04-1.05 3.18-3.18 4-4.07.59-.59 1.12-1.45.66-1.8zM1.57 16.5l-.21-.21c-.68-.74-.29-.9.52-1.7l2.74-2.72c.51-.49.75-.6 1.27-.11l.2.21z"/> </g> </g>
</svg>