<?xml version="1.0" encoding="utf-8"?>
<!-- Generator: Adobe Illustrator 23.0.3, SVG Export Plug-In . SVG Version: 6.00 Build 0)  -->
<svg version="1.1" id="Layer_1" xmlns="http://www.w3.org/2000/svg" xmlns:xlink="http://www.w3.org/1999/xlink" x="0px" y="0px"
	 viewBox="0 0 100 100" style="enable-background:new 0 0 100 100;" xml:space="preserve">
<style type="text/css">
	.st0{fill:#0ACF83;}
	.st1{fill:#A259FF;}
	.st2{fill:#F24E1E;}
	.st3{fill:#FF7262;}
	.st4{fill:#1ABCFE;}
</style>
<title>Figma.logo</title>
<desc>Created using Figma</desc>
<path id="path0_fill" class="st0" d="M33.5,99.6c9.1,0,16.5-7.4,16.5-16.5V66.5H33.5c-9.1,0-16.5,7.4-16.5,16.5S24.3,99.6,33.5,99.6
	z"/>
<path id="path1_fill" class="st1" d="M16.9,50c0-9.1,7.4-16.5,16.5-16.5H50v33.1H33.5C24.3,66.5,16.9,59.1,16.9,50z"/>
<path id="path1_fill_1_" class="st2" d="M16.9,16.9c0-9.1,7.4-16.5,16.5-16.5H50v33.1H33.5C24.3,33.5,16.9,26.1,16.9,16.9z"/>
<path id="path2_fill" class="st3" d="M50,0.4h16.5c9.1,0,16.5,7.4,16.5,16.5s-7.4,16.5-16.5,16.5H50V0.4z"/>
<path id="path3_fill" class="st4" d="M83.1,50c0,9.1-7.4,16.5-16.5,16.5S50,59.1,50,50s7.4-16.5,16.5-16.5S83.1,40.9,83.1,50z"/>
</svg>
