<?xml version="1.0" encoding="utf-8"?>
<!-- Generator: Adobe Illustrator 23.0.3, SVG Export Plug-In . SVG Version: 6.00 Build 0)  -->
<svg version="1.1" id="Layer_1" xmlns="http://www.w3.org/2000/svg" xmlns:xlink="http://www.w3.org/1999/xlink" x="0px" y="0px"
	 viewBox="0 0 100 100" style="enable-background:new 0 0 100 100;" xml:space="preserve">
<style type="text/css">
	.st0{fill:#DC395F;}
	.st1{fill:#FFFFFF;}
</style>
<path class="st0" d="M90.9,0H9.1C4.1,0,0,4.1,0,9.1v81.9c0,5,4.1,9.1,9.1,9.1h81.9c5,0,9.1-4.1,9.1-9.1V9.1C100,4.1,95.9,0,90.9,0"
	/>
<path class="st1" d="M33.4,31.5c3.3,0,6.1-2.6,6.1-6c0-3.4-2.8-6-6.1-6s-6.1,2.6-6.1,6C27.3,28.9,30.1,31.5,33.4,31.5 M20.8,63.7
	c-0.4,1.5-0.5,3.2-0.5,4.5c0,5.3,2.9,8.8,9,8.8c5.1,0,9.2-3,12.1-7.9l-1.8,7.2h10.1l5.8-23.1c1.4-5.8,4.2-8.9,8.4-8.9
	c3.3,0,5.4,2.1,5.4,5.5c0,1-0.1,2.1-0.4,3.2l-3,10.6c-0.4,1.5-0.6,3.1-0.6,4.5c0,5,3,8.7,9.2,8.7c5.3,0,9.5-3.4,11.9-11.6l-4-1.5
	c-2,5.5-3.7,6.5-5,6.5c-1.3,0-2.1-0.9-2.1-2.7c0-0.8,0.2-1.7,0.4-2.8l2.9-10.3c0.7-2.4,1-4.6,1-6.6c0-7.7-4.7-11.8-10.3-11.8
	c-5.3,0-10.7,4.8-13.4,9.8l2-9H42.3l-2.2,8h7.2l-4.4,17.7c-3.5,7.7-9.9,7.9-10.7,7.7c-1.3-0.3-2.2-0.8-2.2-2.5c0-1,0.2-2.4,0.6-4.1
	L37.5,37H20.4l-2.2,8h7.1L20.8,63.7"/>
</svg>
