<?xml version="1.0" encoding="utf-8"?>
<!-- Generator: Adobe Illustrator 23.0.3, SVG Export Plug-In . SVG Version: 6.00 Build 0)  -->
<svg version="1.1" id="Layer_1" xmlns="http://www.w3.org/2000/svg" xmlns:xlink="http://www.w3.org/1999/xlink" x="0px" y="0px"
	 viewBox="0 0 100 100" style="enable-background:new 0 0 100 100;" xml:space="preserve">
<style type="text/css">
	.st0{fill-rule:evenodd;clip-rule:evenodd;fill:#21C0C0;}
	.st1{fill-rule:evenodd;clip-rule:evenodd;fill:#FFFFFE;}
</style>
<title>logo_stacked_color_inverted</title>
<desc>Created with Sketch.</desc>
<g id="logo_stacked_color_inverted">
	<g id="justinmind-logo" transform="translate(139.000000, 53.000000)">
		<path id="Fill-1" class="st0" d="M-132.3,29.3c-2,0.2-3.8,1.2-5,2.8c-1.3,1.6-1.8,3.5-1.6,5.5c0.4,3.8,3.7,6.7,7.5,6.7
			c0.3,0,0.6,0,0.9,0c2-0.2,3.8-1.2,5-2.8c1.3-1.6,1.8-3.5,1.6-5.5c-0.4-3.8-3.7-6.7-7.5-6.7C-131.7,29.3-132,29.3-132.3,29.3z"/>
		<path id="Fill-2" class="st0" d="M-39.3-8.4c-1.3-11.5-6.8-22.1-15.5-29.8c-8.6-7.7-19.7-11.9-31.1-11.9h0c-1.8,0-3.6,0.1-5.3,0.3
			c-25.7,2.9-44.3,26.3-41.4,52c1.3,11.5,6.8,22.1,15.5,29.8C-108.5,39.8-97.5,44-86,44c1.8,0,3.6-0.1,5.3-0.3
			C-54.9,40.7-36.4,17.4-39.3-8.4"/>
		<path id="Fill-3" class="st1" d="M-119.1-17.6h4.7v8.3c0,3.7-2.6,5.9-6.9,5.9h-0.2v0.7h0.2c4.7,0,7.6-2.5,7.6-6.6v-8.9h-5.3V-17.6
			"/>
		<path id="Fill-4" class="st1" d="M-100.9-7.1c0,2.5-2.5,3.8-4.8,3.8c-2.3,0-4.8-1.3-4.8-3.8v-11.2h-0.7v11.2
			c0,2.9,2.8,4.5,5.5,4.5c3.6,0,5.5-2.3,5.5-4.4v-11.2h-0.7V-7.1"/>
		<path id="Fill-5" class="st1" d="M-92.3-10.9c-2.3-0.2-4.6-0.5-4.8-3c-0.1-0.9,0.1-1.6,0.6-2.2c0.8-1,2.2-1.6,3.8-1.7l0.1,0
			c1.5,0,2.8,0.5,3.6,1.3c0.4,0.4,0.7,1,0.8,1.6l0,0.4l0.7-0.1l0-0.3c-0.4-2.4-2.8-3.4-5-3.4c-1.9,0-3.6,0.7-4.5,1.9
			c-0.6,0.8-0.8,1.7-0.7,2.7c0.2,3.1,2.8,3.4,5.3,3.7c2.1,0.2,4.2,0.4,4.6,2.4c0.2,1.1,0,2-0.6,2.8c-0.9,1.1-2.4,1.7-4.1,1.7
			c-2.1,0-4.4-1.1-4.7-3.3l0-0.3l-0.7,0.1l0,0.3c0.3,2.5,2.9,3.9,5.3,3.9c1.9,0,3.7-0.8,4.7-2c0.8-0.9,1-2.1,0.7-3.3
			C-87.6-10.4-90-10.7-92.3-10.9"/>
		<polyline id="Fill-6" class="st1" points="-86.8,-17.6 -81.6,-17.6 -81.6,-2.7 -80.9,-2.7 -80.9,-17.6 -75.7,-17.6 -75.7,-18.3 
			-86.8,-18.3 -86.8,-17.6 		"/>
		<polyline id="Fill-7" class="st1" points="-121.4,-0.8 -118.2,-0.8 -118.2,13.4 -121.4,13.4 -121.4,14.1 -114.3,14.1 -114.3,13.4 
			-117.6,13.4 -117.6,-0.8 -114.3,-0.8 -114.3,-1.4 -121.4,-1.4 -121.4,-0.8 		"/>
		<polyline id="Fill-8" class="st1" points="-89.9,-1.4 -95,6.1 -100.1,-1.4 -101.4,-1.4 -101.4,-1.4 -102.1,-1.4 -102.1,12.8 
			-111.9,-1.4 -112.5,-1.5 -112.5,14.1 -111.8,14.1 -111.8,0 -102,14.1 -99.7,14.1 -99.7,3.2 -95.7,9.2 -94.4,9.2 -90.4,3.2 
			-90.4,14.1 -88.1,14.1 -88.1,-1.4 -89.9,-1.4 		"/>
		<polyline id="Fill-9" class="st1" points="-78,0.8 -80.9,0.8 -80.9,11.8 -78,11.8 -78,14.1 -86,14.1 -86,11.8 -83.1,11.8 
			-83.1,0.8 -86,0.8 -86,-1.4 -78,-1.4 -78,0.8 		"/>
		<polygon id="Fill-10" class="st1" points="-76,-1.4 -74.3,-1.4 -66.8,9.5 -66.8,-1.4 -64.6,-1.4 -64.6,14.1 -66.3,14.1 -73.8,3.3 
			-73.8,14.1 -76,14.1 		"/>
		<path id="Fill-11" class="st1" d="M-56.6-1.4c5.1,0,7.6,3.9,7.6,7.7c0,3.9-2.5,7.7-7.6,7.7h-5.5V-1.4H-56.6L-56.6-1.4z
			 M-56.6,11.8c3.6,0,5.4-2.7,5.4-5.5c0-2.7-1.8-5.5-5.4-5.5h-3.3v11H-56.6L-56.6,11.8z"/>
	</g>
</g>
</svg>
