<!DOCTYPE svg PUBLIC "-//W3C//DTD SVG 1.1//EN" "http://www.w3.org/Graphics/SVG/1.1/DTD/svg11.dtd">
<!-- Uploaded to: SVG Repo, www.svgrepo.com, Transformed by: SVG Repo Mixer Tools -->
<svg fill="#000000" height="800px" width="800px" version="1.1" id="Layer_1" xmlns="http://www.w3.org/2000/svg" xmlns:xlink="http://www.w3.org/1999/xlink" viewBox="0 0 512.00 512.00" xml:space="preserve" stroke="#000000" stroke-width="0.00512">
<g id="SVGRepo_bgCarrier" stroke-width="0"/>
<g id="SVGRepo_tracerCarrier" stroke-linecap="round" stroke-linejoin="round"/>
<g id="SVGRepo_iconCarrier"> <g> <g> <path d="M512,128C512,53.938,414.921,0,298.667,0c-70.833,0-135.913,20.276-175.239,54.201C51.047,73.852,0,116.965,0,170.667 v106.667V384c0,74.062,97.079,128,213.333,128c72.377,0,137.315-20.909,176.029-54.562C462.441,437.343,512,394.099,512,341.335 V234.669V128.002h0C512,128.001,512,128.001,512,128z M298.667,42.667c95.824,0,170.667,41.583,170.667,85.333 c0,0.003,0,0.006,0,0.01c0,0.717-0.027,1.435-0.069,2.154c-0.012,0.208-0.031,0.417-0.047,0.625 c-0.04,0.538-0.091,1.076-0.154,1.614c-0.024,0.205-0.049,0.409-0.076,0.614c-0.086,0.639-0.186,1.278-0.304,1.917 c-0.014,0.078-0.026,0.155-0.04,0.233c-3.246,16.97-17.886,33.965-41.976,47.881v-12.381c0-1.088-0.025-2.172-0.067-3.251 c-0.014-0.352-0.038-0.702-0.056-1.053c-0.037-0.728-0.078-1.455-0.134-2.179c-0.032-0.411-0.072-0.82-0.11-1.23 c-0.061-0.663-0.128-1.326-0.205-1.985c-0.05-0.426-0.104-0.85-0.16-1.275c-0.086-0.647-0.18-1.293-0.28-1.936 c-0.065-0.418-0.131-0.836-0.203-1.253c-0.114-0.662-0.24-1.321-0.369-1.978c-0.077-0.389-0.15-0.779-0.232-1.167 c-0.157-0.74-0.329-1.475-0.506-2.21c-0.072-0.297-0.136-0.597-0.21-0.893c-0.259-1.027-0.536-2.049-0.833-3.066 c-0.055-0.189-0.119-0.376-0.175-0.565c-0.248-0.828-0.505-1.653-0.779-2.474c-0.118-0.355-0.246-0.707-0.369-1.061 c-0.227-0.653-0.457-1.305-0.7-1.954c-0.147-0.392-0.3-0.782-0.453-1.172c-0.238-0.61-0.482-1.218-0.734-1.823 c-0.165-0.397-0.334-0.794-0.505-1.189c-0.261-0.602-0.53-1.202-0.805-1.8c-0.176-0.384-0.352-0.768-0.534-1.151 c-0.298-0.626-0.608-1.248-0.92-1.869c-0.174-0.345-0.343-0.692-0.522-1.036c-0.387-0.745-0.789-1.485-1.197-2.223 c-0.118-0.213-0.228-0.427-0.348-0.639c-0.533-0.946-1.083-1.887-1.651-2.821c-0.152-0.25-0.313-0.498-0.468-0.747 c-0.424-0.684-0.852-1.367-1.294-2.045c-0.222-0.34-0.452-0.677-0.678-1.015c-0.391-0.584-0.785-1.167-1.19-1.747 c-0.253-0.363-0.512-0.723-0.77-1.084c-0.397-0.554-0.8-1.106-1.209-1.656c-0.27-0.362-0.541-0.723-0.816-1.082 c-0.422-0.552-0.852-1.101-1.287-1.648c-0.273-0.344-0.545-0.689-0.824-1.032c-0.475-0.585-0.962-1.164-1.451-1.743 c-0.25-0.296-0.495-0.593-0.748-0.887c-0.681-0.79-1.376-1.574-2.083-2.353c-0.069-0.076-0.135-0.154-0.205-0.23 c-0.78-0.855-1.578-1.702-2.39-2.544c-0.254-0.263-0.516-0.523-0.773-0.785c-0.566-0.577-1.134-1.152-1.714-1.723 c-0.32-0.315-0.647-0.627-0.972-0.94c-0.533-0.514-1.07-1.026-1.615-1.535c-0.349-0.326-0.703-0.65-1.057-0.974 c-0.54-0.493-1.085-0.984-1.635-1.472c-0.362-0.321-0.724-0.641-1.091-0.96c-0.571-0.496-1.151-0.989-1.733-1.479 c-0.354-0.298-0.706-0.598-1.064-0.894c-0.656-0.543-1.324-1.08-1.994-1.616c-0.294-0.235-0.582-0.472-0.878-0.705 c-0.971-0.765-1.955-1.524-2.954-2.274c-0.128-0.096-0.26-0.19-0.388-0.286c-0.875-0.653-1.759-1.301-2.656-1.943 c-0.351-0.252-0.71-0.499-1.064-0.749c-0.684-0.482-1.371-0.963-2.067-1.439c-0.411-0.281-0.827-0.558-1.242-0.837 c-0.657-0.441-1.317-0.879-1.984-1.314c-0.435-0.284-0.873-0.566-1.313-0.848c-0.668-0.428-1.342-0.852-2.019-1.274 c-0.439-0.273-0.877-0.546-1.32-0.817c-0.712-0.435-1.432-0.865-2.154-1.294c-0.416-0.247-0.83-0.496-1.25-0.741 c-0.853-0.498-1.717-0.989-2.584-1.478c-0.294-0.166-0.583-0.335-0.879-0.5c-1.168-0.651-2.347-1.293-3.539-1.928 c-0.28-0.149-0.567-0.294-0.848-0.443c-0.916-0.482-1.837-0.962-2.767-1.435c-0.44-0.223-0.885-0.443-1.328-0.664 c-0.786-0.393-1.575-0.784-2.37-1.17c-0.489-0.237-0.981-0.471-1.473-0.705c-0.767-0.365-1.537-0.727-2.312-1.086 c-0.507-0.234-1.015-0.468-1.526-0.699c-0.784-0.356-1.574-0.708-2.367-1.057c-0.501-0.221-1-0.442-1.504-0.66 c-0.849-0.367-1.706-0.729-2.564-1.089c-0.454-0.19-0.904-0.383-1.361-0.571c-1.11-0.458-2.229-0.907-3.354-1.352 c-0.208-0.082-0.412-0.167-0.62-0.249c-1.337-0.525-2.685-1.039-4.043-1.546c-0.397-0.148-0.799-0.291-1.198-0.438 c-0.967-0.355-1.935-0.709-2.912-1.055c-0.514-0.182-1.033-0.36-1.55-0.54c-0.873-0.303-1.748-0.605-2.628-0.901 c-0.557-0.187-1.117-0.372-1.677-0.557c-0.861-0.283-1.725-0.563-2.593-0.84c-0.564-0.18-1.128-0.358-1.695-0.535 c-0.892-0.278-1.788-0.55-2.687-0.821c-0.546-0.164-1.09-0.33-1.639-0.491c-0.987-0.29-1.98-0.574-2.975-0.855 c-0.463-0.131-0.922-0.265-1.387-0.394c-1.461-0.406-2.93-0.803-4.408-1.19c-0.066-0.017-0.134-0.034-0.2-0.051 c-1.412-0.368-2.833-0.726-4.26-1.076c-0.492-0.121-0.989-0.236-1.483-0.355c-1.008-0.242-2.018-0.482-3.034-0.715 c-0.583-0.134-1.169-0.263-1.754-0.394c-0.944-0.211-1.889-0.419-2.839-0.622c-0.609-0.13-1.22-0.258-1.832-0.385 c-0.942-0.196-1.888-0.387-2.836-0.576c-0.611-0.121-1.221-0.242-1.834-0.36c-0.986-0.19-1.977-0.374-2.97-0.555 c-0.572-0.105-1.143-0.212-1.718-0.314c-1.142-0.203-2.289-0.397-3.439-0.589c-0.427-0.071-0.852-0.146-1.28-0.216 c-1.579-0.257-3.165-0.504-4.758-0.741c-0.319-0.047-0.642-0.09-0.961-0.136c-1.277-0.186-2.556-0.367-3.841-0.539 c-0.565-0.076-1.132-0.146-1.699-0.219c-0.759-0.098-1.516-0.2-2.278-0.293C270.717,43.583,284.529,42.667,298.667,42.667z M136.68,94.843c0.715-0.113,1.437-0.254,2.169-0.44c20.373-5.183,42.183-8.23,64.666-8.919c0.056-0.002,0.112-0.004,0.169-0.006 c1.4-0.042,2.804-0.072,4.209-0.095c0.231-0.004,0.46-0.011,0.692-0.014c1.58-0.023,3.163-0.036,4.749-0.036 c95.824,0,170.667,41.583,170.667,85.333c0,0.765-0.027,1.531-0.074,2.298c-0.009,0.146-0.025,0.293-0.035,0.439 c-0.049,0.673-0.11,1.347-0.196,2.022c-0.007,0.059-0.016,0.117-0.023,0.176c-1.488,11.286-8.072,22.734-19.849,33.771 c-0.782,0.733-1.47,1.5-2.11,2.282C332.605,237.235,277.703,256,213.333,256c-95.824,0-170.667-41.583-170.667-85.333 C42.667,139.586,80.446,109.604,136.68,94.843z M42.667,248.56c0.027,0.021,0.055,0.041,0.081,0.063 c1.138,0.9,2.297,1.789,3.473,2.668c0.333,0.249,0.676,0.493,1.012,0.74c0.855,0.629,1.715,1.255,2.589,1.873 c0.444,0.314,0.895,0.624,1.344,0.935c0.793,0.55,1.592,1.096,2.401,1.637c0.477,0.319,0.955,0.636,1.437,0.952 c0.822,0.539,1.654,1.072,2.491,1.602c0.464,0.293,0.925,0.588,1.393,0.879c0.965,0.599,1.943,1.189,2.927,1.776 c0.348,0.208,0.69,0.419,1.041,0.625c1.336,0.786,2.689,1.56,4.06,2.324c0.303,0.169,0.614,0.333,0.919,0.501 c1.076,0.592,2.16,1.18,3.257,1.759c0.494,0.261,0.995,0.517,1.494,0.775c0.93,0.481,1.865,0.959,2.808,1.431 c0.545,0.272,1.093,0.542,1.643,0.811c0.933,0.456,1.873,0.907,2.818,1.354c0.544,0.257,1.086,0.514,1.634,0.768 c1.035,0.479,2.082,0.95,3.132,1.417c0.459,0.204,0.914,0.412,1.376,0.614c1.513,0.662,3.038,1.313,4.58,1.951 c0.163,0.067,0.33,0.132,0.493,0.199c1.384,0.569,2.78,1.128,4.187,1.677c0.523,0.204,1.053,0.402,1.579,0.604 c1.064,0.407,2.131,0.811,3.208,1.206c0.603,0.222,1.21,0.44,1.817,0.658c1.031,0.37,2.066,0.736,3.108,1.096 c0.614,0.212,1.228,0.424,1.846,0.633c1.1,0.371,2.208,0.735,3.32,1.095c0.554,0.179,1.106,0.362,1.663,0.539 c1.478,0.468,2.967,0.926,4.466,1.374c0.191,0.057,0.378,0.117,0.569,0.174c1.691,0.502,3.396,0.988,5.112,1.463 c0.519,0.144,1.043,0.281,1.564,0.422c1.209,0.328,2.422,0.652,3.643,0.967c0.641,0.165,1.286,0.326,1.93,0.488 c1.125,0.282,2.254,0.559,3.388,0.83c0.671,0.16,1.342,0.319,2.016,0.475c1.157,0.268,2.321,0.529,3.487,0.786 c0.635,0.14,1.268,0.282,1.906,0.418c1.387,0.296,2.783,0.581,4.182,0.861c0.413,0.083,0.823,0.17,1.237,0.251 c1.813,0.355,3.637,0.695,5.471,1.022c0.476,0.085,0.957,0.163,1.435,0.246c1.368,0.238,2.74,0.47,4.119,0.692 c0.667,0.107,1.337,0.209,2.006,0.312c1.21,0.187,2.423,0.37,3.641,0.545c0.715,0.103,1.431,0.203,2.148,0.301 c1.213,0.166,2.43,0.326,3.65,0.48c0.693,0.088,1.385,0.177,2.081,0.26c1.362,0.164,2.731,0.317,4.102,0.465 c0.547,0.059,1.092,0.124,1.64,0.18c1.915,0.198,3.837,0.384,5.768,0.552c0.345,0.03,0.694,0.054,1.04,0.083 c1.592,0.134,3.189,0.26,4.792,0.374c0.67,0.047,1.342,0.088,2.014,0.132c1.294,0.085,2.59,0.165,3.891,0.236 c0.744,0.041,1.489,0.078,2.234,0.114c1.26,0.061,2.523,0.115,3.789,0.164c0.74,0.028,1.48,0.057,2.222,0.081 c1.354,0.044,2.712,0.077,4.072,0.105c0.64,0.014,1.278,0.031,1.919,0.042c1.995,0.032,3.995,0.052,6.003,0.052 s4.007-0.02,6.003-0.052c0.641-0.01,1.279-0.028,1.919-0.042c1.36-0.029,2.718-0.062,4.072-0.105 c0.742-0.024,1.482-0.052,2.222-0.081c1.266-0.048,2.529-0.103,3.79-0.164c0.746-0.036,1.491-0.073,2.234-0.114 c1.3-0.071,2.596-0.151,3.891-0.236c0.671-0.044,1.344-0.084,2.014-0.132c1.603-0.114,3.201-0.24,4.794-0.374 c0.345-0.029,0.693-0.053,1.038-0.083c1.931-0.168,3.853-0.354,5.768-0.552c0.549-0.057,1.093-0.121,1.64-0.18 c1.371-0.149,2.74-0.302,4.102-0.465c0.695-0.084,1.387-0.173,2.081-0.26c1.22-0.154,2.438-0.313,3.65-0.48 c0.717-0.098,1.433-0.199,2.148-0.301c1.218-0.175,2.431-0.358,3.641-0.545c0.669-0.104,1.339-0.205,2.006-0.312 c1.378-0.222,2.749-0.454,4.116-0.692c0.479-0.083,0.961-0.161,1.438-0.246c1.833-0.327,3.657-0.667,5.47-1.022 c0.414-0.081,0.823-0.168,1.236-0.251c1.4-0.28,2.797-0.565,4.184-0.861c0.637-0.136,1.269-0.278,1.902-0.417 c1.168-0.257,2.332-0.518,3.491-0.786c0.673-0.156,1.344-0.315,2.015-0.475c1.134-0.271,2.263-0.548,3.388-0.831 c0.644-0.162,1.289-0.322,1.93-0.488c1.22-0.315,2.432-0.638,3.64-0.966c0.522-0.142,1.048-0.279,1.568-0.423 c1.716-0.475,3.421-0.962,5.112-1.463c0.188-0.056,0.373-0.115,0.561-0.171c1.501-0.449,2.992-0.907,4.473-1.376 c0.557-0.176,1.107-0.359,1.661-0.538c1.113-0.36,2.222-0.724,3.323-1.096c0.617-0.208,1.23-0.42,1.842-0.632 c1.042-0.36,2.079-0.726,3.11-1.096c0.607-0.218,1.214-0.436,1.817-0.658c1.076-0.396,2.143-0.799,3.206-1.206 c0.527-0.202,1.058-0.4,1.582-0.605c1.407-0.549,2.801-1.108,4.185-1.676c0.164-0.067,0.331-0.132,0.495-0.199 c1.542-0.638,3.067-1.289,4.58-1.951c0.462-0.202,0.916-0.41,1.376-0.614c1.05-0.468,2.097-0.938,3.132-1.417 c0.548-0.254,1.09-0.511,1.634-0.768c0.946-0.447,1.886-0.897,2.818-1.354c0.55-0.269,1.098-0.539,1.643-0.811 c0.944-0.471,1.879-0.949,2.808-1.431c0.498-0.258,1-0.514,1.494-0.775c1.097-0.579,2.18-1.166,3.257-1.759 c0.305-0.168,0.616-0.332,0.919-0.501c1.37-0.763,2.723-1.538,4.06-2.324c0.351-0.207,0.694-0.418,1.043-0.626 c0.983-0.586,1.96-1.176,2.923-1.773c0.469-0.291,0.931-0.586,1.396-0.88c0.837-0.53,1.668-1.062,2.49-1.601 c0.482-0.316,0.961-0.633,1.437-0.952c0.808-0.541,1.607-1.087,2.401-1.637c0.449-0.311,0.9-0.621,1.344-0.935 c0.874-0.618,1.734-1.244,2.589-1.873c0.336-0.247,0.679-0.491,1.012-0.74c1.176-0.879,2.335-1.768,3.473-2.668 c0.027-0.021,0.055-0.041,0.081-0.063v28.773c0,0.004,0,0.008,0,0.012c0,0.76-0.027,1.522-0.074,2.285 c-0.009,0.151-0.025,0.302-0.036,0.452c-0.049,0.667-0.11,1.335-0.194,2.004c-0.008,0.064-0.017,0.129-0.026,0.193 c-1.49,11.283-8.074,22.728-19.847,33.762c-0.779,0.731-1.466,1.495-2.104,2.275c-29.106,25.583-84.011,44.351-148.385,44.351 c-95.824,0-170.667-41.583-170.667-85.333V248.56z M42.667,384v-28.773c0.027,0.021,0.055,0.041,0.081,0.063 c1.138,0.9,2.297,1.789,3.473,2.668c0.333,0.249,0.676,0.493,1.012,0.74c0.855,0.629,1.715,1.255,2.589,1.873 c0.444,0.314,0.895,0.624,1.344,0.935c0.793,0.55,1.593,1.096,2.401,1.638c0.476,0.318,0.953,0.635,1.434,0.95 c0.824,0.54,1.657,1.074,2.496,1.605c0.462,0.293,0.922,0.587,1.39,0.876c0.965,0.599,1.943,1.189,2.927,1.776 c0.348,0.208,0.69,0.419,1.041,0.625c1.336,0.785,2.689,1.56,4.06,2.324c0.303,0.169,0.614,0.333,0.919,0.501 c1.076,0.592,2.16,1.18,3.257,1.759c0.494,0.261,0.995,0.517,1.494,0.775c0.93,0.481,1.865,0.959,2.808,1.431 c0.545,0.272,1.093,0.542,1.643,0.811c0.933,0.456,1.873,0.907,2.818,1.354c0.544,0.257,1.086,0.514,1.634,0.768 c1.035,0.479,2.082,0.95,3.132,1.417c0.459,0.204,0.914,0.412,1.376,0.614c1.513,0.662,3.039,1.314,4.583,1.952 c0.155,0.064,0.314,0.125,0.47,0.189c1.391,0.572,2.794,1.134,4.208,1.686c0.523,0.204,1.053,0.402,1.579,0.604 c1.064,0.407,2.131,0.811,3.208,1.206c0.603,0.222,1.21,0.44,1.817,0.658c1.031,0.37,2.066,0.736,3.108,1.096 c0.614,0.212,1.228,0.424,1.846,0.633c1.1,0.371,2.208,0.735,3.32,1.095c0.554,0.179,1.106,0.362,1.663,0.539 c1.478,0.468,2.967,0.926,4.466,1.374c0.191,0.057,0.378,0.117,0.569,0.174c1.691,0.502,3.396,0.988,5.112,1.463 c0.519,0.144,1.043,0.281,1.564,0.422c1.209,0.328,2.422,0.652,3.643,0.967c0.641,0.165,1.286,0.326,1.93,0.488 c1.125,0.282,2.255,0.56,3.39,0.831c0.669,0.16,1.338,0.318,2.01,0.474c1.161,0.269,2.327,0.53,3.497,0.788 c0.633,0.139,1.264,0.281,1.899,0.416c1.387,0.296,2.783,0.581,4.183,0.861c0.413,0.083,0.823,0.17,1.237,0.251 c1.813,0.355,3.637,0.695,5.471,1.022c0.476,0.085,0.957,0.163,1.435,0.246c1.368,0.238,2.74,0.47,4.119,0.692 c0.667,0.107,1.337,0.209,2.006,0.312c1.21,0.187,2.423,0.37,3.641,0.545c0.715,0.103,1.431,0.203,2.148,0.301 c1.213,0.166,2.43,0.326,3.65,0.48c0.693,0.088,1.385,0.177,2.081,0.26c1.362,0.164,2.731,0.317,4.102,0.465 c0.547,0.059,1.092,0.124,1.64,0.18c1.915,0.198,3.837,0.384,5.768,0.552c0.345,0.03,0.694,0.054,1.04,0.083 c1.592,0.134,3.189,0.26,4.792,0.374c0.67,0.047,1.342,0.088,2.014,0.132c1.294,0.085,2.59,0.165,3.891,0.236 c0.744,0.041,1.489,0.078,2.234,0.114c1.26,0.061,2.523,0.115,3.789,0.164c0.74,0.028,1.48,0.057,2.222,0.081 c1.354,0.044,2.712,0.077,4.072,0.105c0.64,0.014,1.278,0.031,1.919,0.042c1.995,0.032,3.995,0.052,6.003,0.052 s4.007-0.02,6.003-0.052c0.641-0.01,1.279-0.028,1.919-0.042c1.36-0.029,2.718-0.062,4.072-0.105 c0.742-0.024,1.482-0.052,2.222-0.081c1.266-0.048,2.529-0.103,3.79-0.164c0.746-0.036,1.491-0.073,2.234-0.114 c1.3-0.071,2.596-0.151,3.891-0.236c0.671-0.044,1.344-0.084,2.014-0.132c1.603-0.114,3.201-0.24,4.794-0.374 c0.345-0.029,0.693-0.053,1.038-0.083c1.931-0.168,3.853-0.354,5.768-0.552c0.549-0.057,1.093-0.121,1.64-0.18 c1.371-0.149,2.74-0.302,4.102-0.465c0.695-0.084,1.387-0.173,2.081-0.26c1.22-0.154,2.438-0.313,3.65-0.48 c0.717-0.098,1.433-0.199,2.148-0.301c1.218-0.175,2.431-0.358,3.641-0.545c0.669-0.104,1.339-0.205,2.006-0.312 c1.378-0.222,2.749-0.454,4.116-0.692c0.479-0.083,0.961-0.161,1.438-0.246c1.833-0.327,3.657-0.667,5.47-1.022 c0.414-0.081,0.823-0.168,1.236-0.251c1.401-0.28,2.797-0.565,4.185-0.861c0.635-0.135,1.264-0.277,1.896-0.416 c1.171-0.258,2.339-0.519,3.5-0.788c0.671-0.156,1.34-0.314,2.008-0.474c1.135-0.271,2.265-0.549,3.39-0.831 c0.644-0.162,1.289-0.322,1.93-0.488c1.22-0.315,2.432-0.638,3.64-0.966c0.522-0.142,1.048-0.279,1.568-0.423 c1.716-0.475,3.421-0.962,5.112-1.463c0.188-0.056,0.373-0.115,0.561-0.171c1.501-0.449,2.992-0.907,4.473-1.376 c0.557-0.176,1.107-0.359,1.661-0.538c1.113-0.36,2.222-0.724,3.323-1.096c0.617-0.208,1.23-0.42,1.842-0.632 c1.042-0.36,2.079-0.726,3.11-1.096c0.607-0.218,1.214-0.436,1.817-0.658c1.076-0.396,2.143-0.799,3.206-1.206 c0.527-0.202,1.058-0.4,1.582-0.605c1.414-0.552,2.816-1.113,4.206-1.685c0.156-0.064,0.315-0.125,0.471-0.19 c1.543-0.638,3.069-1.29,4.583-1.952c0.462-0.202,0.916-0.41,1.376-0.614c1.05-0.468,2.097-0.938,3.132-1.417 c0.548-0.254,1.09-0.511,1.634-0.768c0.946-0.447,1.886-0.897,2.818-1.354c0.55-0.269,1.098-0.539,1.643-0.811 c0.944-0.471,1.879-0.949,2.808-1.431c0.498-0.258,1-0.514,1.494-0.775c1.097-0.579,2.18-1.166,3.257-1.759 c0.305-0.168,0.616-0.332,0.919-0.501c1.37-0.763,2.723-1.538,4.06-2.324c0.351-0.207,0.694-0.418,1.043-0.626 c0.983-0.586,1.96-1.176,2.924-1.774c0.468-0.29,0.929-0.585,1.392-0.878c0.839-0.531,1.671-1.065,2.495-1.604 c0.481-0.315,0.958-0.632,1.434-0.95c0.809-0.541,1.608-1.088,2.401-1.638c0.449-0.311,0.9-0.621,1.344-0.935 c0.874-0.618,1.734-1.244,2.589-1.873c0.336-0.247,0.679-0.491,1.012-0.74c1.176-0.879,2.335-1.768,3.473-2.668 c0.027-0.021,0.055-0.041,0.081-0.063V384c0,0.004,0,0.008,0,0.012c0,0.76-0.027,1.522-0.074,2.285 c-0.009,0.151-0.025,0.302-0.036,0.452c-0.049,0.667-0.11,1.335-0.194,2.004c-0.008,0.064-0.017,0.129-0.026,0.193 c-1.49,11.283-8.074,22.728-19.847,33.762c-0.779,0.731-1.466,1.495-2.104,2.275c-29.106,25.583-84.011,44.351-148.385,44.351 C117.509,469.333,42.667,427.75,42.667,384z M425.615,397.177c0.517-3.236,0.851-6.517,0.983-9.841 c0.045-1.108,0.068-2.219,0.068-3.334V384v-46.37c16.192-7.131,30.555-15.6,42.667-25.181v28.886 C469.333,361.141,453.441,381.357,425.615,397.177z M469.264,236.834c-0.012,0.205-0.031,0.409-0.046,0.614 c-0.041,0.543-0.091,1.087-0.156,1.631c-0.023,0.199-0.047,0.398-0.074,0.597c-0.087,0.65-0.188,1.3-0.309,1.951 c-0.012,0.066-0.022,0.133-0.034,0.199c-3.243,16.973-17.884,33.971-41.978,47.889v-12.379v-0.002v-46.372 c16.192-7.131,30.555-15.6,42.667-25.181v28.888C469.333,235.39,469.306,236.112,469.264,236.834z"/> </g> </g> </g>
</svg>