<?xml version="1.0" encoding="utf-8"?>
<!-- Uploaded to: SVG Repo, www.svgrepo.com, Generator: SVG Repo Mixer Tools -->
<svg width="800px" height="800px" viewBox="0 0 1024 1024" fill="#000000" class="icon"  version="1.1" xmlns="http://www.w3.org/2000/svg"><path d="M669.805838 0l-324.417289 139.035981L2.201403 59.785472v882.878479l351.761032 81.104322 328.356642-139.035981L1021.798597 964.446255V81.104322zM720.553971 798.761711v-5.793166a46.345327 46.345327 0 0 0-92.690654 0v14.367051l-231.726634 98.252094v-177.03915a46.345327 46.345327 0 0 0-92.690654 0v188.857208L94.892057 868.974881V176.343969l208.553972 48.19914v102.191446a46.345327 46.345327 0 0 0 92.690654 0V218.054764l231.726634-99.179v185.381308a46.345327 46.345327 0 1 0 92.690654 0V106.825979l208.553972 48.19914v511.188957a46.345327 46.345327 0 0 0-80.409142 43.33288c2.548993 7.183526 4.634533 13.671871 6.256619 19.465038a46.345327 46.345327 0 0 0 74.38425 23.172663v95.934827zM194.766237 681.04458a46.345327 46.345327 0 0 0-62.102738 21.087124c-7.415252 14.830505-11.122878 23.172663-11.122879 23.172664a46.345327 46.345327 0 0 0 85.275402 36.149355s3.244173-7.415252 8.805612-18.769858a46.345327 46.345327 0 0 0-20.855397-61.639285zM875.57909 564.254356c-5.097986-6.951799-10.427699-13.671871-16.220864-20.62367A46.345327 46.345327 0 1 0 788.449876 602.489251q6.720072 7.878706 12.513238 15.757411a46.345327 46.345327 0 0 0 74.615976-54.919212zM577.810364 493.114279l20.623671 3.244173a47.50396 47.50396 0 0 0 8.573885 0 46.345327 46.345327 0 0 0 8.342159-92.690654l-25.258203-3.939353a46.345327 46.345327 0 1 0-12.281512 92.690654zM446.189636 497.980539a46.345327 46.345327 0 0 0 12.513238-1.853813c6.024893-1.622086 12.049785-3.012446 18.306404-4.17108a46.345327 46.345327 0 1 0-16.452591-91.300294c-9.037339 1.622086-18.074678 3.707626-26.88029 6.256619a46.345327 46.345327 0 0 0 12.513239 91.068568zM275.175379 567.035076a46.345327 46.345327 0 0 0-64.883458 9.037339q-7.646979 10.195972-14.598778 20.160217A46.345327 46.345327 0 1 0 271.467753 648.834578l12.744965-17.379498a46.345327 46.345327 0 0 0-9.037339-64.420004zM813.244625 303.561892a46.345327 46.345327 0 0 0-46.345327 46.345327 196.96764 196.96764 0 0 1-29.197556 96.630007 46.345327 46.345327 0 0 0-54.224032 73.457343 987.618918 987.618918 0 0 1-239.141887 183.295768 46.345327 46.345327 0 0 0 43.564607 81.799502C502.730935 776.515954 859.589952 583.487667 859.589952 349.907219a46.345327 46.345327 0 0 0-46.345327-46.345327zM517.097986 650.688391a46.345327 46.345327 0 1 0-10.195972-92.690654 174.490156 174.490156 0 0 1-120.961303-34.990722A46.345327 46.345327 0 0 0 322.447613 463.45327a635.857886 635.857886 0 0 1-91.532021-153.634759 46.345327 46.345327 0 0 0-86.434035 33.368635c5.097986 13.208418 121.424757 309.123331 344.34578 309.123331a254.899298 254.899298 0 0 0 28.270649-1.622086z" /></svg>