<?xml version="1.0" encoding="utf-8"?>
<!-- Generator: Adobe Illustrator 23.0.3, SVG Export Plug-In . SVG Version: 6.00 Build 0)  -->
<svg version="1.1" id="Layer_1" xmlns="http://www.w3.org/2000/svg" xmlns:xlink="http://www.w3.org/1999/xlink" x="0px" y="0px"
	 viewBox="0 0 100 100" style="enable-background:new 0 0 100 100;" xml:space="preserve">
<style type="text/css">
	.st0{fill-rule:evenodd;clip-rule:evenodd;fill:#FFFFFF;}
	.st1{fill-rule:evenodd;clip-rule:evenodd;fill:#A6A385;}
	.st2{fill-rule:evenodd;clip-rule:evenodd;fill:#499D4A;}
	.st3{fill-rule:evenodd;clip-rule:evenodd;fill:#58AA50;}
</style>
<g>
	<path class="st0" d="M53.9,100l-2.7-0.9c0,0,0.3-13.6-4.6-14.5c-3.3-3.8,0.5-159.7,12.3-0.5c0,0-4.1,2-4.8,5.5
		C53.4,92.9,53.9,100,53.9,100L53.9,100z"/>
	<path class="st1" d="M53.9,100l-2.7-0.9c0,0,0.3-13.6-4.6-14.5c-3.3-3.8,0.5-159.7,12.3-0.5c0,0-4.1,2-4.8,5.5
		C53.4,92.9,53.9,100,53.9,100L53.9,100z"/>
	<path class="st0" d="M55.3,86.9c0,0,23.5-15.3,18-47.2C68,16.5,55.5,8.9,54.1,6c-1.5-2.1-2.9-5.7-2.9-5.7l1,64.5
		C52.2,64.8,50.2,84.5,55.3,86.9"/>
	<path class="st2" d="M55.3,86.9c0,0,23.5-15.3,18-47.2C68,16.5,55.5,8.9,54.1,6c-1.5-2.1-2.9-5.7-2.9-5.7l1,64.5
		C52.2,64.8,50.2,84.5,55.3,86.9"/>
	<path class="st0" d="M49.8,87.7c0,0-22.1-14.9-20.8-41.2C30.3,20.2,45.9,7.3,48.9,4.9c2-2.1,2-2.9,2.2-4.9
		c1.4,2.9,1.1,43.7,1.3,48.5C53,67,51.3,84.2,49.8,87.7z"/>
	<path class="st3" d="M49.8,87.7c0,0-22.1-14.9-20.8-41.2C30.3,20.2,45.9,7.3,48.9,4.9c2-2.1,2-2.9,2.2-4.9
		c1.4,2.9,1.1,43.7,1.3,48.5C53,67,51.3,84.2,49.8,87.7z"/>
</g>
</svg>
