<?xml version="1.0" encoding="iso-8859-1"?>
<!-- Uploaded to: SVG Repo, www.svgrepo.com, Generator: SVG Repo Mixer Tools -->
<svg fill="#000000" height="800px" width="800px" version="1.1" id="Layer_1" xmlns="http://www.w3.org/2000/svg" xmlns:xlink="http://www.w3.org/1999/xlink" 
	 viewBox="0 0 512 512" xml:space="preserve">
<g>
	<g>
		<g>
			<path d="M96,266.667c5.888,0,10.667-4.779,10.667-10.667v-21.333c0-5.888-4.779-10.667-10.667-10.667
				s-10.667,4.779-10.667,10.667V256C85.333,261.888,90.112,266.667,96,266.667z"/>
			<path d="M138.667,266.667c5.888,0,10.667-4.779,10.667-10.667v-21.333c0-5.888-4.779-10.667-10.667-10.667
				S128,228.779,128,234.667V256C128,261.888,132.779,266.667,138.667,266.667z"/>
			<path d="M138.667,330.667c5.888,0,10.667-4.779,10.667-10.667v-21.333c0-5.888-4.779-10.667-10.667-10.667
				S128,292.779,128,298.667V320C128,325.888,132.779,330.667,138.667,330.667z"/>
			<path d="M53.333,266.667C59.221,266.667,64,261.888,64,256v-21.333C64,228.779,59.221,224,53.333,224
				s-10.667,4.779-10.667,10.667V256C42.667,261.888,47.445,266.667,53.333,266.667z"/>
			<path d="M416,117.333h42.667c5.888,0,10.667-4.779,10.667-10.667V64c0-5.888-4.779-10.667-10.667-10.667H416
				c-5.888,0-10.667,4.779-10.667,10.667v42.667C405.333,112.555,410.112,117.333,416,117.333z M426.667,74.667H448V96h-21.333
				V74.667z"/>
			<path d="M96,330.667c5.888,0,10.667-4.779,10.667-10.667v-21.333c0-5.888-4.779-10.667-10.667-10.667
				s-10.667,4.779-10.667,10.667V320C85.333,325.888,90.112,330.667,96,330.667z"/>
			<path d="M53.333,330.667C59.221,330.667,64,325.888,64,320v-21.333C64,292.779,59.221,288,53.333,288
				s-10.667,4.779-10.667,10.667V320C42.667,325.888,47.445,330.667,53.333,330.667z"/>
			<path d="M330.667,288h42.667c5.888,0,10.667-4.779,10.667-10.667v-42.667c0-5.888-4.779-10.667-10.667-10.667h-42.667
				c-5.888,0-10.667,4.779-10.667,10.667v42.667C320,283.221,324.779,288,330.667,288z M341.333,245.333h21.333v21.333h-21.333
				V245.333z"/>
			<path d="M330.667,373.333h42.667c5.888,0,10.667-4.779,10.667-10.667V320c0-5.888-4.779-10.667-10.667-10.667h-42.667
				c-5.888,0-10.667,4.779-10.667,10.667v42.667C320,368.555,324.779,373.333,330.667,373.333z M341.333,330.667h21.333V352h-21.333
				V330.667z"/>
			<path d="M501.333,10.667H288c-5.888,0-10.667,4.779-10.667,10.667v213.333H192V192c0-5.888-4.779-10.667-10.667-10.667H10.667
				C4.779,181.333,0,186.112,0,192v298.667c0,5.888,4.779,10.667,10.667,10.667h170.667c5.888,0,10.667-4.779,10.667-10.667v-160
				h85.333v160c0,5.888,4.779,10.667,10.667,10.667h213.333c5.888,0,10.667-4.779,10.667-10.667V21.333
				C512,15.445,507.221,10.667,501.333,10.667z M128,480H64V373.333h64V480z M170.667,480h-21.333V362.667
				c0-5.888-4.779-10.667-10.667-10.667H53.333c-5.888,0-10.667,4.779-10.667,10.667V480H21.333V202.667h149.333V480z
				 M277.333,309.333H192V256h85.333V309.333z M490.667,480h-192V32h192V480z"/>
			<path d="M416,202.667h42.667c5.888,0,10.667-4.779,10.667-10.667v-42.667c0-5.888-4.779-10.667-10.667-10.667H416
				c-5.888,0-10.667,4.779-10.667,10.667V192C405.333,197.888,410.112,202.667,416,202.667z M426.667,160H448v21.333h-21.333V160z"
				/>
			<path d="M330.667,202.667h42.667c5.888,0,10.667-4.779,10.667-10.667v-42.667c0-5.888-4.779-10.667-10.667-10.667h-42.667
				c-5.888,0-10.667,4.779-10.667,10.667V192C320,197.888,324.779,202.667,330.667,202.667z M341.333,160h21.333v21.333h-21.333V160
				z"/>
			<path d="M330.667,458.667h42.667c5.888,0,10.667-4.779,10.667-10.667v-42.667c0-5.888-4.779-10.667-10.667-10.667h-42.667
				c-5.888,0-10.667,4.779-10.667,10.667V448C320,453.888,324.779,458.667,330.667,458.667z M341.333,416h21.333v21.333h-21.333V416
				z"/>
			<path d="M416,373.333h42.667c5.888,0,10.667-4.779,10.667-10.667V320c0-5.888-4.779-10.667-10.667-10.667H416
				c-5.888,0-10.667,4.779-10.667,10.667v42.667C405.333,368.555,410.112,373.333,416,373.333z M426.667,330.667H448V352h-21.333
				V330.667z"/>
			<path d="M416,288h42.667c5.888,0,10.667-4.779,10.667-10.667v-42.667c0-5.888-4.779-10.667-10.667-10.667H416
				c-5.888,0-10.667,4.779-10.667,10.667v42.667C405.333,283.221,410.112,288,416,288z M426.667,245.333H448v21.333h-21.333V245.333
				z"/>
			<path d="M330.667,117.333h42.667c5.888,0,10.667-4.779,10.667-10.667V64c0-5.888-4.779-10.667-10.667-10.667h-42.667
				C324.779,53.333,320,58.112,320,64v42.667C320,112.555,324.779,117.333,330.667,117.333z M341.333,74.667h21.333V96h-21.333
				V74.667z"/>
			<path d="M416,458.667h42.667c5.888,0,10.667-4.779,10.667-10.667v-42.667c0-5.888-4.779-10.667-10.667-10.667H416
				c-5.888,0-10.667,4.779-10.667,10.667V448C405.333,453.888,410.112,458.667,416,458.667z M426.667,416H448v21.333h-21.333V416z"
				/>
		</g>
	</g>
</g>
</svg>