<?xml version="1.0" ?>
<!-- Uploaded to: SVG Repo, www.svgrepo.com, Generator: SVG Repo Mixer Tools -->
<svg fill="#000000" width="800px" height="800px" viewBox="0 0 500 500" id="Layer_1" version="1.1" xml:space="preserve" xmlns="http://www.w3.org/2000/svg" xmlns:xlink="http://www.w3.org/1999/xlink">
<g id="mobile_00000026868392735989956930000001057925570772215989_">
<g id="mobile">
<g>
<g>
<g>
<path d="M378.28,477.39H121.72c-4.86,0-8.81-3.95-8.81-8.81V31.43c0-4.86,3.95-8.81,8.81-8.81h256.56       c4.86,0,8.81,3.95,8.81,8.81v437.15C387.09,473.43,383.14,477.39,378.28,477.39z M121.72,28.61c-1.55,0-2.81,1.26-2.81,2.81       v437.15c0,1.55,1.26,2.81,2.81,2.81h256.56c1.55,0,2.81-1.26,2.81-2.81V31.43c0-1.55-1.26-2.81-2.81-2.81H121.72z"/>
</g>
<g>
<path d="M250,466.12c-10.47,0-18.98-8.52-18.98-18.98s8.52-18.98,18.98-18.98c10.47,0,18.98,8.52,18.98,18.98       S260.47,466.12,250,466.12z M250,434.15c-7.16,0-12.98,5.83-12.98,12.98s5.82,12.98,12.98,12.98c7.16,0,12.98-5.83,12.98-12.98       S257.16,434.15,250,434.15z"/>
</g>
</g>
<path d="M277.4,42.15l-54.81,0c-0.41,0-0.75-0.33-0.75-0.75v-3.1c0-0.41,0.33-0.75,0.75-0.75h54.81c0.41,0,0.75,0.33,0.75,0.75     v3.1C278.15,41.81,277.82,42.15,277.4,42.15z"/>
</g>
<g>
<g>
<path d="M359.68,421.3H140.32c-6.07,0-11.02-4.94-11.02-11.02V70.74c0-6.07,4.94-11.02,11.02-11.02h219.36      c6.07,0,11.02,4.94,11.02,11.02v339.55C370.7,416.36,365.75,421.3,359.68,421.3z M140.32,65.72c-2.77,0-5.02,2.25-5.02,5.02      v339.55c0,2.77,2.25,5.02,5.02,5.02h219.36c2.77,0,5.02-2.25,5.02-5.02V70.74c0-2.77-2.25-5.02-5.02-5.02H140.32z"/>
</g>
<g>
<g>
<path d="M365.11,420.57L218.55,189.29l71.89-129.56h69.11c6.14,0,11.14,5,11.14,11.14v339.3c0,2.79-1.04,5.46-2.93,7.52       L365.11,420.57z M225.53,189.08L364.7,408.7V70.86c0-2.83-2.3-5.14-5.14-5.14h-65.58L225.53,189.08z"/>
</g>
<g>
<path d="M129.3,375.48V70.86c0-6.14,5-11.14,11.14-11.14h91.15l-72.34,121.42l71.29,117.72L129.3,375.48z M140.44,65.72       c-2.83,0-5.14,2.3-5.14,5.14v292.55l87.3-66.07l-70.35-116.18l68.78-115.44H140.44z"/>
</g>
<g>
<path d="M304.68,421.3H171.35l91.43-69.2L304.68,421.3z M189.22,415.3h104.82l-32.94-54.4L189.22,415.3z"/>
</g>
</g>
</g>
</g>
<g>
<g>
<path d="M311.33,189.49l-2.13-2.15c-0.94-0.95-22.89-23.36-21.36-41.74c0.5-5.97,3.34-10.86,8.45-14.54     c8.85-6.37,21.22-6.37,30.08,0c5.11,3.67,7.95,8.57,8.45,14.54c1.54,18.38-20.42,40.79-21.36,41.74L311.33,189.49z      M311.33,132.26c-4.07,0-8.14,1.22-11.53,3.66c-3.67,2.64-5.62,5.96-5.97,10.16c-1.06,12.59,12.21,28.79,17.51,34.72     c5.3-5.93,18.57-22.13,17.51-34.72c-0.35-4.2-2.31-7.52-5.98-10.16C319.47,133.48,315.4,132.26,311.33,132.26z M311.33,161.93     c-6.66,0-12.09-5.42-12.09-12.09s5.42-12.08,12.09-12.08s12.09,5.42,12.09,12.08S317.99,161.93,311.33,161.93z M311.33,143.76     c-3.36,0-6.09,2.73-6.09,6.08s2.73,6.09,6.09,6.09s6.09-2.73,6.09-6.09S314.68,143.76,311.33,143.76z"/>
</g>
</g>
<g>
<g>
<path d="M224.71,284.4c-0.27,0-0.54-0.02-0.82-0.07c-2.29-0.38-3.96-2.26-4.08-4.58l-1.9-38.56c-0.09-1.74,0.77-3.4,2.23-4.34     c1.46-0.94,3.33-1.03,4.88-0.24l34.35,17.64c2.06,1.06,3.08,3.36,2.49,5.61c-0.6,2.24-2.62,3.74-4.95,3.62l-20.21-0.96     l-7.47,18.81C228.47,283.21,226.68,284.4,224.71,284.4z M224,242.82l1.55,31.49l5.86-14.76c0.77-1.94,2.7-3.14,4.77-3.08     l15.86,0.75L224,242.82z"/>
</g>
</g>
<g>
<g>
<path d="M243.47,276.52c-0.96,0-1.9-0.48-2.44-1.35l-3.64-5.85c-0.84-1.35-0.43-3.12,0.92-3.96c1.35-0.84,3.12-0.42,3.96,0.92     l3.64,5.85c0.84,1.35,0.43,3.12-0.92,3.96C244.51,276.38,243.98,276.52,243.47,276.52z"/>
</g>
<g>
<path d="M256.66,297.73c-0.96,0-1.9-0.48-2.44-1.35l-6.6-10.6c-0.84-1.35-0.43-3.12,0.92-3.96c1.35-0.84,3.12-0.43,3.96,0.92     l6.6,10.6c0.84,1.35,0.43,3.12-0.92,3.96C257.71,297.59,257.18,297.73,256.66,297.73z"/>
</g>
<g>
<path d="M261.42,318.37c-0.87,0-1.72-0.39-2.29-1.13c-0.96-1.26-0.72-3.06,0.54-4.02l3.4-2.59l-2.26-3.64     c-0.84-1.35-0.43-3.12,0.92-3.96c1.34-0.84,3.12-0.43,3.96,0.92l5.02,8.07l-7.56,5.76C262.64,318.17,262.03,318.37,261.42,318.37     z"/>
</g>
<g>
<path d="M167.48,389.95c-0.87,0-1.72-0.39-2.29-1.13c-0.96-1.26-0.72-3.06,0.54-4.03l11.74-8.95c1.26-0.96,3.06-0.72,4.03,0.54     c0.96,1.26,0.72,3.06-0.54,4.03l-11.74,8.95C168.7,389.76,168.09,389.95,167.48,389.95z M190.96,372.06     c-0.87,0-1.72-0.39-2.29-1.13c-0.96-1.26-0.72-3.06,0.54-4.03l11.74-8.95c1.26-0.96,3.06-0.72,4.03,0.54     c0.96,1.26,0.72,3.06-0.54,4.03l-11.74,8.95C192.18,371.86,191.57,372.06,190.96,372.06z M214.45,354.16     c-0.87,0-1.72-0.39-2.29-1.13c-0.96-1.26-0.72-3.06,0.54-4.03l11.74-8.95c1.26-0.96,3.06-0.72,4.03,0.54     c0.96,1.26,0.72,3.06-0.54,4.03l-11.74,8.95C215.67,353.97,215.06,354.16,214.45,354.16z M237.94,336.26     c-0.87,0-1.72-0.39-2.29-1.13c-0.96-1.26-0.72-3.06,0.54-4.03l11.74-8.95c1.26-0.96,3.06-0.72,4.03,0.54     c0.96,1.26,0.72,3.06-0.54,4.03l-11.74,8.95C239.15,336.07,238.54,336.26,237.94,336.26z"/>
</g>
<g>
<path d="M150.25,403.08c-0.87,0-1.72-0.39-2.29-1.13c-0.96-1.26-0.72-3.06,0.54-4.03l5.48-4.18c1.26-0.96,3.07-0.72,4.03,0.54     c0.96,1.26,0.72,3.06-0.54,4.03l-5.48,4.18C151.47,402.89,150.86,403.08,150.25,403.08z"/>
</g>
</g>
</g>
</svg>