<?xml version="1.0" standalone="no"?>
<!DOCTYPE svg PUBLIC "-//W3C//DTD SVG 20010904//EN"
 "http://www.w3.org/TR/2001/REC-SVG-20010904/DTD/svg10.dtd">
<svg version="1.0" xmlns="http://www.w3.org/2000/svg"
 width="800.000000pt" height="800.000000pt" viewBox="0 0 800.000000 800.000000"
 preserveAspectRatio="xMidYMid meet">
<metadata>
Created by potrace 1.14, written by Peter Selinger 2001-2017
</metadata>
<g transform="translate(0.000000,800.000000) scale(0.100000,-0.100000)"
fill="#000000" stroke="none">
<path d="M568 7990 c-276 -47 -466 -215 -539 -475 -19 -65 -23 -106 -23 -220
-1 -209 21 -331 104 -575 112 -333 334 -776 575 -1150 203 -315 398 -595 547
-790 57 -75 298 -383 328 -420 48 -60 147 -180 174 -210 11 -14 39 -47 61 -75
22 -27 43 -52 46 -55 3 -3 34 -39 70 -80 35 -41 80 -93 100 -115 20 -22 94
-105 165 -185 71 -79 143 -159 159 -176 17 -17 86 -92 155 -165 143 -153 596
-608 746 -749 170 -161 259 -243 305 -284 24 -22 69 -62 99 -90 48 -44 156
-141 224 -199 12 -10 35 -31 51 -45 17 -15 57 -50 90 -77 33 -28 62 -52 65
-55 7 -7 166 -139 230 -190 30 -25 57 -47 60 -51 22 -27 596 -461 753 -570
114 -78 336 -227 412 -275 92 -59 364 -224 368 -224 2 0 50 -26 108 -58 385
-214 826 -382 1097 -419 106 -14 331 -8 402 11 62 17 180 64 190 76 3 3 22 16
42 28 108 66 214 236 247 397 27 127 21 328 -13 485 -26 121 -77 294 -97 332
-7 13 -12 24 -11 25 7 12 -111 279 -206 467 -66 129 -99 185 -104 175 -5 -8
-49 -85 -98 -171 -49 -87 -112 -192 -140 -233 -53 -78 -55 -92 -25 -140 16
-27 107 -252 138 -345 90 -265 106 -498 39 -573 -52 -59 -173 -65 -410 -22
-60 11 -244 75 -381 132 -397 165 -883 454 -1440 857 -50 36 -98 72 -108 80
-10 9 -56 44 -103 78 -47 35 -94 70 -105 79 -11 9 -114 92 -230 184 -115 92
-214 172 -220 179 -5 6 -30 27 -55 47 -25 20 -56 47 -70 59 -14 12 -47 40 -74
63 -27 23 -54 47 -60 52 -6 6 -45 39 -86 75 -41 36 -77 68 -80 71 -3 3 -34 31
-70 64 -431 386 -1057 1010 -1385 1379 -5 6 -30 34 -55 61 -45 50 -158 179
-193 219 -10 12 -28 32 -40 46 -12 14 -47 54 -77 90 -30 36 -57 67 -60 70 -14
13 -198 240 -302 370 -715 903 -1193 1714 -1327 2255 -45 184 -46 356 -1 411
87 104 381 68 785 -96 72 -29 149 -64 172 -76 23 -13 43 -20 45 -16 8 18 323
209 425 257 35 17 63 32 63 35 0 13 -336 181 -508 254 -162 68 -381 138 -522
167 -113 23 -339 33 -422 19z"/>
<path d="M3609 7486 c-2 -2 -38 -6 -79 -10 -108 -9 -215 -22 -265 -32 -11 -2
-31 -6 -45 -9 -30 -5 -116 -22 -149 -29 -410 -86 -887 -295 -1253 -547 -89
-62 -263 -192 -278 -209 -3 -3 -39 -34 -80 -70 -88 -77 -230 -219 -230 -230 0
-9 186 -321 235 -393 l32 -48 25 33 c28 37 190 202 258 263 124 112 366 288
500 364 140 80 438 221 467 221 2 0 -15 -26 -39 -57 -136 -181 -299 -482 -399
-740 l-44 -112 -368 1 c-203 0 -371 -2 -373 -5 -5 -5 149 -235 216 -324 l32
-43 184 0 c201 0 192 4 173 -64 -6 -21 -12 -46 -14 -55 -2 -9 -13 -56 -25
-106 -40 -168 -48 -140 92 -314 68 -85 134 -169 148 -187 14 -19 28 -34 32
-34 3 0 11 33 18 73 6 39 14 83 16 97 2 14 7 41 10 60 3 19 12 62 20 95 7 33
16 77 19 98 4 21 24 103 46 183 21 80 39 148 39 150 0 2 258 4 574 4 l574 0 0
-730 0 -730 -351 -2 -351 -3 84 -89 c47 -49 126 -132 175 -183 l90 -94 176 -1
177 -1 0 -176 1 -176 94 -90 c52 -49 134 -128 183 -175 l89 -84 3 351 2 351
686 0 686 0 -6 -127 c-4 -69 -9 -146 -11 -171 -3 -25 -7 -74 -10 -110 -5 -60
-19 -178 -30 -258 -3 -18 -8 -54 -11 -80 -3 -26 -12 -77 -19 -113 -8 -36 -17
-87 -20 -113 -8 -55 -111 -476 -119 -484 -3 -2 -64 -4 -136 -4 -71 1 -130 0
-130 -2 0 -5 176 -144 347 -273 136 -103 168 -123 177 -111 9 12 76 14 409 14
l397 1 -17 -21 c-79 -92 -200 -216 -281 -289 -23 -21 -40 -42 -37 -48 8 -12
249 -161 373 -231 52 -29 54 -29 75 -11 53 45 240 245 288 308 13 17 26 32 30
35 12 10 177 236 213 293 185 292 312 559 412 862 37 113 93 328 108 415 3 19
8 44 10 55 21 111 32 193 41 315 4 41 8 86 11 100 5 32 5 372 -1 466 -4 77
-13 173 -20 214 -2 14 -7 45 -10 70 -18 136 -43 257 -86 420 -248 936 -872
1742 -1719 2222 -270 153 -591 283 -870 354 -69 17 -234 53 -270 59 -25 4 -54
9 -65 11 -11 2 -58 9 -105 14 -47 6 -98 13 -115 16 -35 7 -609 16 -616 10z
m69 -1050 l0 -554 -504 0 c-277 0 -504 3 -504 7 0 19 65 164 130 290 184 354
422 631 653 761 65 36 97 45 173 49 l52 2 0 -555z m566 522 c114 -58 320 -234
403 -346 16 -20 36 -46 46 -57 30 -33 141 -205 200 -310 68 -122 170 -343 162
-354 -3 -5 -230 -9 -505 -10 l-500 0 0 556 0 556 76 -7 c46 -4 93 -15 118 -28z
m774 -178 c9 -5 60 -28 112 -51 395 -170 796 -463 1081 -791 l50 -57 -399 0
-399 0 -59 147 c-102 253 -232 496 -368 685 -53 73 -57 89 -18 67z m186 -1292
c17 -61 95 -377 99 -403 3 -16 10 -50 15 -75 6 -25 13 -63 16 -85 3 -22 8 -51
11 -65 6 -33 19 -123 34 -240 9 -65 15 -125 27 -270 1 -19 6 -95 10 -167 l7
-133 -687 0 -686 0 0 730 0 730 574 0 574 0 6 -22z m1359 -33 c166 -278 306
-643 371 -965 20 -100 44 -267 52 -362 l7 -78 -602 0 -601 0 -1 58 c-3 106
-15 300 -25 387 -2 22 -7 63 -9 90 -6 54 -23 188 -30 245 -5 31 -34 201 -50
285 -12 67 -49 225 -70 308 l-24 87 476 -2 477 -3 29 -50z m427 -1804 c0 -15
-7 -83 -15 -151 -51 -423 -171 -792 -378 -1167 l-62 -113 -50 -1 c-161 -2
-897 0 -899 3 -2 2 16 80 39 173 23 94 45 188 48 210 4 22 15 86 26 143 11 57
23 126 26 155 3 29 10 77 15 107 5 30 12 84 15 120 3 36 7 79 9 95 4 27 13
144 21 270 2 22 3 72 4 111 l1 72 600 0 600 0 0 -27z"/>
<path d="M462 5128 c-60 -162 -125 -395 -161 -578 -21 -109 -25 -138 -36 -230
-4 -30 -9 -66 -11 -80 -22 -139 -21 -644 1 -758 1 -9 6 -46 10 -82 4 -36 9
-74 11 -85 2 -10 6 -37 9 -60 4 -22 13 -68 20 -101 8 -34 17 -74 20 -88 3 -14
7 -36 10 -48 3 -13 7 -32 9 -44 33 -163 161 -506 275 -732 69 -139 207 -374
223 -380 4 -2 8 -8 8 -14 0 -9 116 -173 144 -205 6 -6 22 -26 36 -44 130 -174
410 -449 620 -611 86 -65 131 -98 136 -98 3 0 23 -13 43 -28 97 -76 420 -255
591 -327 36 -15 74 -31 85 -36 178 -78 495 -168 731 -208 110 -19 141 -23 242
-36 214 -27 601 -23 832 9 19 2 58 7 85 11 57 7 60 8 175 30 142 27 277 64
450 122 91 30 166 56 168 58 2 1 -72 54 -165 117 -92 63 -245 171 -340 240
l-171 127 -34 -31 c-58 -53 -141 -113 -207 -152 -50 -29 -77 -38 -130 -42 -36
-3 -72 -7 -78 -9 -10 -3 -13 61 -13 298 l-1 302 -182 152 c-100 83 -184 150
-186 148 -2 -2 -3 -205 -3 -451 l0 -447 -77 6 c-81 5 -103 14 -221 92 -130 86
-304 270 -426 450 -93 137 -226 390 -284 540 -8 21 -7 21 381 20 214 0 389 3
389 7 0 3 -26 29 -57 56 -32 28 -80 71 -108 97 -27 26 -91 84 -140 130 l-90
83 -205 0 c-342 1 -307 -3 -319 35 -23 70 -82 322 -106 448 -14 74 -28 143
-30 155 -2 11 -32 49 -66 85 -70 73 -255 270 -314 335 -35 38 -65 59 -52 37 3
-5 8 -44 11 -88 4 -44 9 -91 11 -105 5 -34 17 -128 21 -170 2 -19 6 -46 9 -60
2 -14 7 -38 9 -55 16 -112 16 -111 51 -280 15 -71 28 -139 31 -150 2 -11 14
-57 28 -102 l24 -83 -52 0 c-80 -1 -816 -1 -861 -1 -44 1 -42 -1 -117 136
-133 244 -253 553 -304 785 -4 19 -9 40 -10 45 -8 35 -34 178 -40 220 -3 28
-8 58 -9 67 -3 13 -16 142 -17 168 -2 40 -23 38 448 38 245 0 447 2 449 4 4 4
-42 60 -169 208 -12 14 -46 54 -75 90 l-54 65 -301 5 c-192 3 -300 9 -299 15
0 6 4 46 8 90 12 145 55 388 90 510 4 15 -24 61 -104 173 -61 85 -138 196
-173 248 -34 52 -65 94 -69 94 -4 0 -16 -24 -27 -52z m1838 -3373 c20 -49 44
-107 53 -129 9 -21 17 -40 17 -42 0 -7 106 -218 145 -289 46 -85 179 -291 208
-322 11 -13 19 -25 16 -27 -10 -10 -239 93 -384 172 -169 92 -401 253 -545
378 -75 65 -290 283 -317 320 l-22 30 397 -1 396 0 36 -90z"/>
</g>
</svg>
