<?xml version="1.0" encoding="iso-8859-1"?>
<!-- Uploaded to: SVG Repo, www.svgrepo.com, Generator: SVG Repo Mixer Tools -->
<svg fill="#000000" height="800px" width="800px" version="1.1" id="Layer_1" xmlns="http://www.w3.org/2000/svg" xmlns:xlink="http://www.w3.org/1999/xlink" 
	 viewBox="0 0 512 512" xml:space="preserve">
<g>
	<g>
		<path d="M327.844,321.94c-0.189-0.931-0.465-1.847-0.829-2.719c-0.364-0.885-0.814-1.729-1.338-2.514
			c-0.538-0.8-1.134-1.543-1.803-2.212c-0.683-0.669-1.425-1.28-2.225-1.802c-0.785-0.523-1.628-0.976-2.501-1.339
			c-0.887-0.364-1.788-0.638-2.719-0.827c-1.876-0.378-3.81-0.378-5.685,0c-0.931,0.189-1.847,0.464-2.719,0.827
			c-0.887,0.364-1.73,0.816-2.515,1.339c-0.8,0.522-1.541,1.133-2.21,1.802c-0.669,0.669-1.28,1.412-1.803,2.212
			c-0.523,0.785-0.974,1.629-1.338,2.514c-0.364,0.874-0.64,1.788-0.829,2.719c-0.189,0.932-0.291,1.89-0.291,2.835
			c0,0.945,0.102,1.905,0.291,2.85c0.189,0.931,0.465,1.832,0.829,2.719c0.364,0.872,0.814,1.716,1.338,2.501
			c0.523,0.8,1.134,1.543,1.803,2.212c0.669,0.683,1.41,1.28,2.21,1.818c0.785,0.522,1.628,0.974,2.515,1.338
			c0.872,0.364,1.789,0.638,2.719,0.827c0.931,0.19,1.89,0.276,2.835,0.276c0.96,0,1.905-0.087,2.85-0.276
			c0.931-0.189,1.847-0.464,2.719-0.827c0.872-0.363,1.716-0.816,2.501-1.338c0.8-0.538,1.541-1.134,2.225-1.818
			c0.669-0.669,1.265-1.412,1.803-2.212c0.523-0.785,0.974-1.629,1.338-2.501c0.364-0.887,0.64-1.789,0.829-2.719
			c0.189-0.945,0.276-1.905,0.276-2.85C328.12,323.83,328.033,322.87,327.844,321.94z"/>
	</g>
</g>
<g>
	<g>
		<path d="M480.576,207.946l-90.448-90.448V14.54c0-8.029-6.51-14.54-14.54-14.54h-50.891c-8.031,0-14.54,6.511-14.54,14.54v44.55
			l-79.433,79.433c-0.173,0.157-0.353,0.304-0.518,0.47c-14.558,14.559-35.769,26.472-58.313,36.019
			c-0.048,0.019-0.096,0.041-0.144,0.061c-52.005,21.998-111.043,31.401-111.89,31.532c-5.412,0.838-9.895,4.646-11.597,9.851
			c-1.701,5.207-0.333,10.927,3.539,14.801l65.811,65.811c-28.752,34.704-26.895,86.395,5.597,118.888
			c17.239,17.238,39.883,25.857,62.526,25.857c20.037,0,40.068-6.763,56.36-20.261l65.811,65.811
			c2.77,2.77,6.486,4.259,10.284,4.259c1.495,0,3.004-0.23,4.473-0.705c5.197-1.679,9.012-6.13,9.88-11.522
			c0.198-1.226,20.297-123.105,67.627-170.435c0.169-0.169,0.317-0.35,0.475-0.526l79.925-79.927
			C486.254,222.831,486.254,213.624,480.576,207.946z M339.238,29.081h21.811v108.733c0,6.014-4.891,10.905-10.905,10.905
			s-10.905-4.891-10.905-10.905V29.081z M143.773,395.393c-21.143-21.143-22.967-54.403-5.472-77.635l41.553,41.554l41.553,41.553
			C198.177,418.359,164.917,416.538,143.773,395.393z M309.213,447.541l-56.549-56.549l-104.49-104.49l-56.438-56.438
			c21.19-4.64,51.849-12.534,82.095-24.474l97.003,97.005c2.84,2.838,6.561,4.259,10.281,4.259s7.443-1.421,10.281-4.259
			c5.678-5.678,5.678-14.885,0-20.564l-89.117-89.118c13.684-6.897,26.581-14.745,37.633-23.648l130.008,130.008
			C336.652,340.818,317.681,409.533,309.213,447.541z M389.869,278.09L261.076,149.299l49.081-49.081v37.596
			c0,22.048,17.937,39.986,39.986,39.986c15.97,0,29.777-9.415,36.179-22.981l63.409,63.409L389.869,278.09z"/>
	</g>
</g>
<g>
	<g>
		<path d="M107.135,432.031c-5.678-5.677-14.885-5.677-20.563,0l-14.394,14.393c-5.678,5.678-5.678,14.885,0,20.564
			c2.84,2.838,6.561,4.259,10.281,4.259s7.443-1.421,10.281-4.259l14.394-14.393C112.813,446.917,112.813,437.71,107.135,432.031z"
			/>
	</g>
</g>
<g>
	<g>
		<path d="M193.232,462.563c-8.031,0-14.54,6.511-14.54,14.54v20.357c0,8.029,6.51,14.54,14.54,14.54
			c8.031,0,14.54-6.511,14.54-14.54v-20.357C207.772,469.074,201.262,462.563,193.232,462.563z"/>
	</g>
</g>
<g>
	<g>
		<path d="M62.063,331.396H41.707c-8.031,0-14.54,6.511-14.54,14.54c0,8.029,6.51,14.54,14.54,14.54h20.357
			c8.031,0,14.54-6.51,14.54-14.54C76.603,337.907,70.094,331.396,62.063,331.396z"/>
	</g>
</g>
</svg>