<?xml version="1.0" encoding="iso-8859-1"?>
<!-- Uploaded to: SVG Repo, www.svgrepo.com, Generator: SVG Repo Mixer Tools -->
<svg fill="#000000" height="800px" width="800px" version="1.1" id="Layer_1" xmlns="http://www.w3.org/2000/svg" xmlns:xlink="http://www.w3.org/1999/xlink" 
	 viewBox="0 0 512.002 512.002" xml:space="preserve">
<g>
	<g>
		<g>
			<path d="M256.001,42.668h42.667c4.713,0,8.533-3.82,8.533-8.533s-3.82-8.533-8.533-8.533h-42.667
				c-4.713,0-8.533,3.821-8.533,8.533S251.288,42.668,256.001,42.668z"/>
			<path d="M221.868,42.668h8.533c4.713,0,8.533-3.82,8.533-8.533s-3.82-8.533-8.533-8.533h-8.533c-4.713,0-8.533,3.821-8.533,8.533
				S217.155,42.668,221.868,42.668z"/>
			<path d="M477.604,93.868h-68.003V59.734V33.81c0-18.673-15.136-33.809-33.809-33.809H153.277
				c-18.673,0-33.809,15.136-33.809,33.809v25.924v17.067c-4.713,0-8.533,3.82-8.533,8.533v8.533c0,4.713,3.82,8.533,8.533,8.533
				v8.533c-4.713,0-8.533,3.82-8.533,8.533v8.533c0,4.713,3.82,8.533,8.533,8.533v42.667h-85.07C15.4,179.201,0,194.601,0,213.599
				v118.938c0,18.998,15.4,34.398,34.398,34.398h85.07v68.267v42.991c0,18.673,15.136,33.809,33.809,33.809h222.515
				c18.673,0,33.809-15.136,33.809-33.809v-42.991v-153.6h68.003c18.998,0,34.398-15.4,34.398-34.398V128.265
				C512.002,109.268,496.602,93.868,477.604,93.868z M153.277,17.068h222.515c9.248,0,16.742,7.495,16.742,16.742v17.391h-256V33.81
				C136.534,24.562,144.029,17.068,153.277,17.068z M17.067,332.536V213.599c0-9.572,7.759-17.331,17.331-17.331h93.603h59.468
				c9.572,0,17.331,7.759,17.331,17.331v118.938c0,9.572-7.759,17.331-17.331,17.331c-3.489,0-6.627,2.124-7.923,5.364
				l-9.143,22.858l-9.143-22.858c-1.296-3.24-4.434-5.364-7.923-5.364h-0.001h-25.335H34.398
				C24.826,349.868,17.067,342.108,17.067,332.536z M136.534,478.192v-34.458h105.434c-7.09,6.254-11.567,15.401-11.567,25.6
				s4.477,19.346,11.567,25.6h-88.692C144.029,494.934,136.534,487.44,136.534,478.192z M264.534,486.401
				c-9.427,0-17.067-7.64-17.067-17.067s7.64-17.067,17.067-17.067c9.427,0,17.067,7.64,17.067,17.067
				S273.961,486.401,264.534,486.401z M375.792,494.934H287.1c7.09-6.254,11.567-15.401,11.567-25.6s-4.477-19.346-11.567-25.6
				h105.434v34.458C392.534,487.44,385.039,494.934,375.792,494.934z M392.534,426.668h-256v-59.733h11.024l14.921,37.303
				c1.431,3.576,4.677,5.364,7.923,5.364c3.246,0,6.493-1.788,7.923-5.364l15.129-37.821c16.145-2.832,28.413-16.923,28.413-33.879
				V213.599c0-18.998-15.4-34.398-34.398-34.398h-0.001h-50.935V68.268h256v25.6h-68.001h-0.001
				c-18.998,0-34.398,15.4-34.398,34.398v118.938c0,16.956,12.268,31.047,28.413,33.879l15.129,37.821
				c1.431,3.576,4.677,5.364,7.923,5.364c3.246,0,6.493-1.788,7.923-5.364l14.921-37.302h28.091V426.668z M494.935,247.203
				c0,9.572-7.759,17.331-17.331,17.331h-76.536h-42.401h-0.001c-3.489,0-6.627,2.124-7.923,5.364l-9.143,22.858l-9.143-22.858
				c-1.296-3.24-4.434-5.364-7.923-5.364c-9.572,0-17.331-7.759-17.331-17.331V128.265c0-9.572,7.759-17.331,17.331-17.331h76.535
				h76.536c9.572,0,17.331,7.759,17.331,17.331V247.203z"/>
			<path d="M469.303,144.446c-0.008-0.11-0.012-0.22-0.024-0.328c-0.018-0.164-0.047-0.328-0.075-0.491
				c-0.02-0.116-0.036-0.232-0.06-0.346c-0.031-0.146-0.073-0.291-0.112-0.436c-0.034-0.127-0.065-0.256-0.105-0.381
				c-0.04-0.125-0.09-0.247-0.136-0.371c-0.052-0.141-0.103-0.283-0.162-0.42c-0.046-0.106-0.101-0.21-0.151-0.314
				c-0.073-0.15-0.145-0.301-0.226-0.446c-0.053-0.094-0.112-0.186-0.169-0.278c-0.091-0.149-0.183-0.298-0.283-0.441
				c-0.019-0.028-0.035-0.057-0.054-0.085c-0.05-0.07-0.107-0.132-0.158-0.2c-0.097-0.127-0.194-0.253-0.297-0.375
				c-0.091-0.107-0.185-0.207-0.28-0.308c-0.092-0.098-0.184-0.195-0.281-0.289c-0.111-0.107-0.225-0.209-0.341-0.309
				c-0.091-0.079-0.182-0.157-0.276-0.232c-0.123-0.098-0.248-0.191-0.376-0.281c-0.099-0.071-0.2-0.14-0.302-0.207
				c-0.124-0.08-0.25-0.156-0.378-0.229c-0.116-0.067-0.234-0.132-0.354-0.194c-0.119-0.061-0.239-0.118-0.36-0.173
				c-0.135-0.062-0.271-0.12-0.409-0.175c-0.113-0.045-0.227-0.086-0.342-0.125c-0.148-0.051-0.296-0.099-0.448-0.143
				c-0.115-0.033-0.232-0.062-0.348-0.09c-0.149-0.036-0.299-0.07-0.452-0.098c-0.132-0.024-0.264-0.042-0.397-0.061
				c-0.138-0.019-0.275-0.037-0.414-0.049c-0.159-0.014-0.317-0.019-0.477-0.024c-0.086-0.003-0.169-0.013-0.255-0.013H341.334
				c-0.086,0-0.17,0.01-0.255,0.013c-0.159,0.005-0.318,0.01-0.477,0.024c-0.14,0.012-0.277,0.03-0.414,0.049
				c-0.133,0.018-0.265,0.036-0.397,0.061c-0.152,0.028-0.302,0.062-0.452,0.098c-0.117,0.028-0.233,0.057-0.348,0.09
				c-0.151,0.043-0.3,0.091-0.447,0.143c-0.115,0.04-0.229,0.081-0.343,0.125c-0.139,0.055-0.274,0.114-0.409,0.175
				c-0.121,0.055-0.241,0.112-0.359,0.173c-0.12,0.062-0.237,0.127-0.353,0.194c-0.128,0.073-0.254,0.149-0.378,0.23
				c-0.102,0.066-0.202,0.136-0.302,0.206c-0.127,0.09-0.253,0.183-0.375,0.281c-0.094,0.075-0.186,0.154-0.277,0.233
				c-0.115,0.1-0.229,0.202-0.34,0.309c-0.097,0.094-0.189,0.191-0.281,0.289c-0.095,0.101-0.189,0.201-0.28,0.308
				c-0.104,0.122-0.201,0.248-0.298,0.376c-0.051,0.068-0.108,0.129-0.158,0.199c-0.02,0.028-0.035,0.057-0.054,0.085
				c-0.1,0.143-0.192,0.292-0.283,0.441c-0.057,0.093-0.116,0.184-0.169,0.278c-0.081,0.146-0.154,0.297-0.227,0.448
				c-0.05,0.104-0.105,0.207-0.151,0.313c-0.06,0.138-0.11,0.28-0.163,0.422c-0.046,0.123-0.095,0.245-0.135,0.37
				c-0.04,0.126-0.071,0.255-0.106,0.383c-0.039,0.144-0.08,0.288-0.111,0.433c-0.024,0.115-0.04,0.232-0.06,0.348
				c-0.028,0.163-0.057,0.326-0.075,0.49c-0.012,0.108-0.017,0.219-0.024,0.328c-0.013,0.174-0.024,0.347-0.026,0.521
				c0,0.034-0.005,0.067-0.005,0.101v85.333c0,4.713,3.821,8.533,8.533,8.533h119.467c4.713,0,8.533-3.82,8.533-8.533v-85.333
				c0-0.034-0.005-0.067-0.005-0.101C469.327,144.793,469.315,144.62,469.303,144.446z M434.173,153.601l-33.105,23.647
				l-33.105-23.647H434.173z M349.868,221.868v-60.218l46.24,33.029c2.967,2.119,6.953,2.119,9.92,0l46.24-33.029v60.218H349.868z"
				/>
			<path d="M179.201,315.734v-85.333c0-0.034-0.005-0.067-0.005-0.101c-0.002-0.174-0.014-0.347-0.026-0.521
				c-0.008-0.109-0.012-0.22-0.024-0.328c-0.018-0.164-0.047-0.328-0.075-0.491c-0.02-0.116-0.036-0.232-0.06-0.346
				c-0.031-0.146-0.073-0.291-0.112-0.436c-0.034-0.127-0.065-0.256-0.105-0.38c-0.04-0.125-0.09-0.248-0.136-0.372
				c-0.052-0.141-0.102-0.282-0.162-0.419c-0.046-0.106-0.101-0.21-0.151-0.314c-0.073-0.15-0.145-0.301-0.226-0.446
				c-0.053-0.094-0.112-0.186-0.169-0.278c-0.091-0.149-0.183-0.298-0.283-0.441c-0.019-0.028-0.035-0.057-0.054-0.085
				c-0.05-0.07-0.107-0.132-0.158-0.2c-0.097-0.127-0.194-0.253-0.297-0.375c-0.091-0.107-0.185-0.207-0.28-0.308
				c-0.092-0.098-0.184-0.195-0.281-0.289c-0.111-0.107-0.225-0.209-0.341-0.309c-0.091-0.079-0.182-0.157-0.276-0.232
				c-0.123-0.098-0.249-0.191-0.376-0.281c-0.099-0.071-0.199-0.14-0.301-0.206c-0.125-0.081-0.251-0.157-0.379-0.23
				c-0.116-0.067-0.232-0.131-0.352-0.193c-0.119-0.061-0.24-0.119-0.362-0.174c-0.134-0.061-0.269-0.12-0.407-0.174
				c-0.114-0.045-0.229-0.086-0.345-0.126c-0.147-0.051-0.295-0.099-0.445-0.142c-0.116-0.033-0.233-0.062-0.35-0.09
				c-0.149-0.036-0.298-0.07-0.45-0.097c-0.132-0.024-0.264-0.043-0.397-0.061c-0.137-0.018-0.274-0.037-0.413-0.049
				c-0.159-0.014-0.319-0.019-0.479-0.024c-0.085-0.003-0.168-0.013-0.253-0.013H51.201c-0.085,0-0.168,0.01-0.253,0.013
				c-0.16,0.005-0.32,0.01-0.48,0.024c-0.139,0.012-0.276,0.03-0.413,0.049c-0.133,0.018-0.266,0.036-0.397,0.061
				c-0.152,0.028-0.301,0.062-0.45,0.097c-0.117,0.028-0.234,0.057-0.35,0.09c-0.15,0.043-0.298,0.091-0.445,0.142
				c-0.116,0.04-0.231,0.081-0.345,0.126c-0.138,0.054-0.273,0.113-0.406,0.174c-0.122,0.056-0.242,0.113-0.362,0.174
				c-0.119,0.061-0.235,0.126-0.351,0.193c-0.128,0.074-0.255,0.15-0.38,0.231c-0.102,0.066-0.202,0.135-0.301,0.206
				c-0.128,0.091-0.253,0.183-0.376,0.281c-0.094,0.075-0.185,0.153-0.276,0.232c-0.116,0.1-0.23,0.202-0.341,0.309
				c-0.097,0.093-0.189,0.191-0.281,0.289c-0.095,0.101-0.19,0.202-0.28,0.308c-0.104,0.121-0.201,0.248-0.297,0.375
				c-0.052,0.068-0.108,0.13-0.158,0.2c-0.02,0.028-0.035,0.057-0.054,0.085c-0.1,0.143-0.191,0.292-0.283,0.441
				c-0.057,0.093-0.116,0.184-0.169,0.278c-0.081,0.145-0.153,0.296-0.226,0.446c-0.051,0.105-0.105,0.208-0.151,0.314
				c-0.059,0.136-0.109,0.277-0.161,0.417c-0.047,0.125-0.097,0.248-0.137,0.374c-0.04,0.124-0.07,0.252-0.104,0.378
				c-0.039,0.146-0.081,0.291-0.113,0.438c-0.024,0.113-0.04,0.229-0.06,0.345c-0.028,0.164-0.057,0.329-0.075,0.494
				c-0.012,0.107-0.016,0.216-0.024,0.325c-0.013,0.175-0.025,0.349-0.026,0.524c0,0.034-0.005,0.066-0.005,0.1v85.333
				c0,4.713,3.82,8.533,8.533,8.533h119.467C175.38,324.268,179.201,320.447,179.201,315.734z M144.04,238.934l-33.105,23.647
				l-33.105-23.647H144.04z M59.734,307.201v-60.218l46.24,33.029c2.967,2.119,6.953,2.119,9.92,0l46.24-33.029v60.218H59.734z"/>
		</g>
	</g>
</g>
</svg>