<?xml version="1.0" encoding="iso-8859-1"?>
<!-- Uploaded to: SVG Repo, www.svgrepo.com, Generator: SVG Repo Mixer Tools -->
<svg version="1.1" id="Layer_1" xmlns="http://www.w3.org/2000/svg" xmlns:xlink="http://www.w3.org/1999/xlink" 
	 viewBox="0 0 512 512" xml:space="preserve">
<g>
	<path style="fill:#1D1D1B;" d="M0,364.103v39.866h512v-39.866H0z M496.141,388.11H15.859v-8.147h480.282V388.11z"/>
	<path style="fill:#1D1D1B;" d="M175.904,339.951v-79.877H56.015v79.877H175.904z M71.875,275.933h88.17v48.159h-88.17V275.933z"/>
	<rect x="87.955" y="292.083" style="fill:#1D1D1B;" width="56.015" height="15.859"/>
	<path style="fill:#1D1D1B;" d="M455.984,339.951v-79.877H336.095v79.877H455.984z M351.954,275.933h88.17v48.159h-88.17V275.933z"
		/>
	<rect x="368.037" y="292.083" style="fill:#1D1D1B;" width="56.015" height="15.859"/>
	<rect x="191.98" y="268.072" style="fill:#1D1D1B;" width="128.036" height="15.859"/>
	<rect x="191.98" y="292.083" style="fill:#1D1D1B;" width="128.036" height="15.859"/>
	<rect x="191.98" y="316.093" style="fill:#1D1D1B;" width="128.036" height="15.859"/>
	<rect x="207.987" y="68.014" style="fill:#1D1D1B;" width="96.032" height="15.859"/>
	<polygon style="fill:#1D1D1B;" points="72.02,452.129 39.866,452.129 39.866,412.044 24.006,412.044 24.006,467.988 87.88,467.988 
		87.88,412.044 72.02,412.044 	"/>
	<polygon style="fill:#1D1D1B;" points="472.134,452.129 439.98,452.129 439.98,412.044 424.12,412.044 424.12,467.988 
		487.994,467.988 487.994,412.044 472.134,412.044 	"/>
	<path style="fill:#1D1D1B;" d="M56.015,220.063H24.006v135.966h15.859V235.922h432.269v120.106h15.859V220.063h-32.009v-16.15
		h48.014v-55.871h-63.873v62.364l-43.185-86.372h-84.996v-16.149h24.008V44.012H176.05v63.873h24.008v16.149h-84.996l-43.185,86.371
		v-62.363H8.003v55.871h48.014v16.151H56.015z M455.984,163.901h32.155v24.152h-32.155V163.901z M191.909,92.026V59.871h128.182
		v32.155H191.909z M296.083,107.885v16.149h-80.168v-16.149H296.083z M124.862,139.893h262.276l40.084,80.169H84.778
		L124.862,139.893z M23.862,188.053v-24.152h32.155v24.152H23.862z"/>
	
		<rect x="182.035" y="172.046" transform="matrix(-0.7071 0.7071 -0.7071 -0.7071 495.9687 154.5147)" style="fill:#1D1D1B;" width="67.898" height="15.859"/>
	
		<rect x="234.042" y="179.843" transform="matrix(0.7071 0.7071 -0.7071 0.7071 208.0428 -114.2817)" style="fill:#1D1D1B;" width="15.859" height="28.292"/>
</g>
</svg>