<?xml version="1.0" encoding="iso-8859-1"?>
<!-- Uploaded to: SVG Repo, www.svgrepo.com, Generator: SVG Repo Mixer Tools -->
<svg fill="#000000" height="800px" width="800px" version="1.1" id="Layer_1" xmlns="http://www.w3.org/2000/svg" xmlns:xlink="http://www.w3.org/1999/xlink" 
	 viewBox="0 0 512 512" xml:space="preserve">
<g>
	<g>
		<path d="M492,412H20c-11.028,0-20,8.972-20,20v60c0,11.028,8.972,20,20,20h472c11.028,0,20-8.972,20-20v-60
			C512,420.972,503.028,412,492,412z M504,492c0,6.616-5.384,12-12,12H20c-6.616,0-12-5.384-12-12v-60c0-6.616,5.384-12,12-12h472
			c6.616,0,12,5.384,12,12V492z"/>
	</g>
</g>
<g>
	<g>
		<path d="M511.62,428.364l-29.244-181c-0.312-1.94-1.984-3.364-3.948-3.364H30.492c-1.992,0-3.68,1.464-3.96,3.44L1.376,424.104
			c-0.312,2.188,1.212,4.212,3.396,4.524c2.18,0.336,4.212-1.212,4.524-3.4L33.964,252h441.06l28.7,177.636
			c0.32,1.964,2.016,3.364,3.944,3.364c0.212,0,0.424-0.016,0.64-0.052C510.488,432.6,511.972,430.544,511.62,428.364z"/>
	</g>
</g>
<g>
	<g>
		<path d="M88,128H46.492C35.776,128,28,136.384,28,147.928V248c0,2.212,1.792,4,4,4s4-1.788,4-4V147.928
			C36,142.184,39.284,136,46.492,136H88c2.208,0,4-1.788,4-4C92,129.788,90.208,128,88,128z"/>
	</g>
</g>
<g>
	<g>
		<path d="M462.376,128H176c-2.208,0-4,1.788-4,4c0,2.212,1.792,4,4,4h286.376c7.004,0,13.624,5.796,13.624,11.928V248
			c0,2.212,1.792,4,4,4s4-1.788,4-4V147.928C484,137.312,473.896,128,462.376,128z"/>
	</g>
</g>
<g>
	<g>
		<path d="M176,80H88c-2.208,0-4,1.788-4,4v108c0,2.212,1.792,4,4,4h88c2.208,0,4-1.788,4-4V84C180,81.788,178.208,80,176,80z
			 M172,188H92V88h80V188z"/>
	</g>
</g>
<g>
	<g>
		<path d="M428,0H260c-2.208,0-4,1.788-4,4v72c0,2.212,1.792,4,4,4h168c2.208,0,4-1.788,4-4V4C432,1.788,430.208,0,428,0z M424,72
			H264V8h160V72z"/>
	</g>
</g>
<g>
	<g>
		<path d="M360,72c-2.208,0-4,1.788-4,4v52h-28V76c0-2.212-1.792-4-4-4s-4,1.788-4,4v56c0,2.212,1.792,4,4,4h36c2.208,0,4-1.788,4-4
			V76C364,73.788,362.208,72,360,72z"/>
	</g>
</g>
<g>
	<g>
		<path d="M460,148h-16c-2.208,0-4,1.788-4,4c0,2.212,1.792,4,4,4h12v68H232v-68h184c2.208,0,4-1.788,4-4c0-2.212-1.792-4-4-4H228
			c-2.208,0-4,1.788-4,4v76c0,2.212,1.792,4,4,4h232c2.208,0,4-1.788,4-4v-76C464,149.788,462.208,148,460,148z"/>
	</g>
</g>
<g>
	<g>
		<path d="M308,440H204c-11.028,0-20,8.972-20,20v4c0,11.028,8.972,20,20,20h104c11.028,0,20-8.972,20-20v-4
			C328,448.972,319.028,440,308,440z M320,464c0,6.616-5.384,12-12,12H204c-6.616,0-12-5.384-12-12v-4c0-6.616,5.384-12,12-12h104
			c6.616,0,12,5.384,12,12V464z"/>
	</g>
</g>
<g>
	<g>
		<path d="M192,188H72c-2.208,0-4,1.788-4,4c0,2.212,1.792,4,4,4h120c2.208,0,4-1.788,4-4C196,189.788,194.208,188,192,188z"/>
	</g>
</g>
<g>
	<g>
		<path d="M192,208H72c-2.208,0-4,1.788-4,4c0,2.212,1.792,4,4,4h120c2.208,0,4-1.788,4-4C196,209.788,194.208,208,192,208z"/>
	</g>
</g>
<g>
	<g>
		<path d="M136,104h-28c-2.208,0-4,1.788-4,4s1.792,4,4,4h28c2.208,0,4-1.788,4-4S138.208,104,136,104z"/>
	</g>
</g>
<g>
	<g>
		<path d="M136,124h-28c-2.208,0-4,1.788-4,4c0,2.212,1.792,4,4,4h28c2.208,0,4-1.788,4-4S138.208,124,136,124z"/>
	</g>
</g>
<g>
	<g>
		<path d="M136,144h-28c-2.208,0-4,1.788-4,4c0,2.212,1.792,4,4,4h28c2.208,0,4-1.788,4-4C140,145.788,138.208,144,136,144z"/>
	</g>
</g>
<g>
	<g>
		<path d="M136,164h-28c-2.208,0-4,1.788-4,4c0,2.212,1.792,4,4,4h28c2.208,0,4-1.788,4-4C140,165.788,138.208,164,136,164z"/>
	</g>
</g>
<g>
	<g>
		<path d="M156,104h-4c-2.208,0-4,1.788-4,4s1.792,4,4,4h4c2.208,0,4-1.788,4-4S158.208,104,156,104z"/>
	</g>
</g>
<g>
	<g>
		<path d="M156,124h-4c-2.208,0-4,1.788-4,4c0,2.212,1.792,4,4,4h4c2.208,0,4-1.788,4-4S158.208,124,156,124z"/>
	</g>
</g>
<g>
	<g>
		<path d="M156,144h-4c-2.208,0-4,1.788-4,4c0,2.212,1.792,4,4,4h4c2.208,0,4-1.788,4-4C160,145.788,158.208,144,156,144z"/>
	</g>
</g>
<g>
	<g>
		<path d="M156,164h-4c-2.208,0-4,1.788-4,4c0,2.212,1.792,4,4,4h4c2.208,0,4-1.788,4-4C160,165.788,158.208,164,156,164z"/>
	</g>
</g>
<g>
	<g>
		<path d="M412,16h-8c-2.208,0-4,1.788-4,4s1.792,4,4,4h4v32H276V24h100c2.208,0,4-1.788,4-4s-1.792-4-4-4H272c-2.208,0-4,1.788-4,4
			v40c0,2.212,1.792,4,4,4h140c2.208,0,4-1.788,4-4V20C416,17.788,414.208,16,412,16z"/>
	</g>
</g>
<g>
	<g>
		<path d="M276,280h-20c-2.208,0-4,1.788-4,4v20c0,2.212,1.792,4,4,4h20c2.208,0,4-1.788,4-4v-20C280,281.788,278.208,280,276,280z
			 M272,300h-12v-12h12V300z"/>
	</g>
</g>
<g>
	<g>
		<path d="M316,280h-20c-2.208,0-4,1.788-4,4v20c0,2.212,1.792,4,4,4h20c2.208,0,4-1.788,4-4v-20C320,281.788,318.208,280,316,280z
			 M312,300h-12v-12h12V300z"/>
	</g>
</g>
<g>
	<g>
		<path d="M356,280h-20c-2.208,0-4,1.788-4,4v20c0,2.212,1.792,4,4,4h20c2.208,0,4-1.788,4-4v-20C360,281.788,358.208,280,356,280z
			 M352,300h-12v-12h12V300z"/>
	</g>
</g>
<g>
	<g>
		<path d="M396,280h-20c-2.208,0-4,1.788-4,4v20c0,2.212,1.792,4,4,4h20c2.208,0,4-1.788,4-4v-20C400,281.788,398.208,280,396,280z
			 M392,300h-12v-12h12V300z"/>
	</g>
</g>
<g>
	<g>
		<path d="M436,280h-20c-2.208,0-4,1.788-4,4v20c0,2.212,1.792,4,4,4h20c2.208,0,4-1.788,4-4v-20C440,281.788,438.208,280,436,280z
			 M432,300h-12v-12h12V300z"/>
	</g>
</g>
<g>
	<g>
		<path d="M276,320h-20c-2.208,0-4,1.788-4,4v20c0,2.212,1.792,4,4,4h20c2.208,0,4-1.788,4-4v-20C280,321.788,278.208,320,276,320z
			 M272,340h-12v-12h12V340z"/>
	</g>
</g>
<g>
	<g>
		<path d="M316,320h-20c-2.208,0-4,1.788-4,4v20c0,2.212,1.792,4,4,4h20c2.208,0,4-1.788,4-4v-20C320,321.788,318.208,320,316,320z
			 M312,340h-12v-12h12V340z"/>
	</g>
</g>
<g>
	<g>
		<path d="M356,320h-20c-2.208,0-4,1.788-4,4v20c0,2.212,1.792,4,4,4h20c2.208,0,4-1.788,4-4v-20C360,321.788,358.208,320,356,320z
			 M352,340h-12v-12h12V340z"/>
	</g>
</g>
<g>
	<g>
		<path d="M396,320h-20c-2.208,0-4,1.788-4,4v20c0,2.212,1.792,4,4,4h20c2.208,0,4-1.788,4-4v-20C400,321.788,398.208,320,396,320z
			 M392,340h-12v-12h12V340z"/>
	</g>
</g>
<g>
	<g>
		<path d="M436,320h-20c-2.208,0-4,1.788-4,4v20c0,2.212,1.792,4,4,4h20c2.208,0,4-1.788,4-4v-20C440,321.788,438.208,320,436,320z
			 M432,340h-12v-12h12V340z"/>
	</g>
</g>
<g>
	<g>
		<path d="M276,360h-20c-2.208,0-4,1.788-4,4v20c0,2.212,1.792,4,4,4h20c2.208,0,4-1.788,4-4v-20C280,361.788,278.208,360,276,360z
			 M272,380h-12v-12h12V380z"/>
	</g>
</g>
<g>
	<g>
		<path d="M316,360h-20c-2.208,0-4,1.788-4,4v20c0,2.212,1.792,4,4,4h20c2.208,0,4-1.788,4-4v-20C320,361.788,318.208,360,316,360z
			 M312,380h-12v-12h12V380z"/>
	</g>
</g>
<g>
	<g>
		<path d="M356,360h-20c-2.208,0-4,1.788-4,4v20c0,2.212,1.792,4,4,4h20c2.208,0,4-1.788,4-4v-20C360,361.788,358.208,360,356,360z
			 M352,380h-12v-12h12V380z"/>
	</g>
</g>
<g>
	<g>
		<path d="M396,360h-20c-2.208,0-4,1.788-4,4v20c0,2.212,1.792,4,4,4h20c2.208,0,4-1.788,4-4v-20C400,361.788,398.208,360,396,360z
			 M392,380h-12v-12h12V380z"/>
	</g>
</g>
<g>
	<g>
		<path d="M436,360h-20c-2.208,0-4,1.788-4,4v20c0,2.212,1.792,4,4,4h20c2.208,0,4-1.788,4-4v-20C440,361.788,438.208,360,436,360z
			 M432,380h-12v-12h12V380z"/>
	</g>
</g>
<g>
	<g>
		<path d="M236,280h-20c-2.208,0-4,1.788-4,4v20c0,2.212,1.792,4,4,4h20c2.208,0,4-1.788,4-4v-20C240,281.788,238.208,280,236,280z
			 M232,300h-12v-12h12V300z"/>
	</g>
</g>
<g>
	<g>
		<path d="M236,320h-20c-2.208,0-4,1.788-4,4v20c0,2.212,1.792,4,4,4h20c2.208,0,4-1.788,4-4v-20C240,321.788,238.208,320,236,320z
			 M232,340h-12v-12h12V340z"/>
	</g>
</g>
<g>
	<g>
		<path d="M236,360h-20c-2.208,0-4,1.788-4,4v20c0,2.212,1.792,4,4,4h20c2.208,0,4-1.788,4-4v-20C240,361.788,238.208,360,236,360z
			 M232,380h-12v-12h12V380z"/>
	</g>
</g>
<g>
	<g>
		<path d="M132,280h-20c-2.208,0-4,1.788-4,4v20c0,2.212,1.792,4,4,4h20c2.208,0,4-1.788,4-4v-20C136,281.788,134.208,280,132,280z
			 M128,300h-12v-12h12V300z"/>
	</g>
</g>
<g>
	<g>
		<path d="M172,280h-20c-2.208,0-4,1.788-4,4v20c0,2.212,1.792,4,4,4h20c2.208,0,4-1.788,4-4v-20C176,281.788,174.208,280,172,280z
			 M168,300h-12v-12h12V300z"/>
	</g>
</g>
<g>
	<g>
		<path d="M132,320h-20c-2.208,0-4,1.788-4,4v20c0,2.212,1.792,4,4,4h20c2.208,0,4-1.788,4-4v-20C136,321.788,134.208,320,132,320z
			 M128,340h-12v-12h12V340z"/>
	</g>
</g>
<g>
	<g>
		<path d="M172,320h-20c-2.208,0-4,1.788-4,4v20c0,2.212,1.792,4,4,4h20c2.208,0,4-1.788,4-4v-20C176,321.788,174.208,320,172,320z
			 M168,340h-12v-12h12V340z"/>
	</g>
</g>
<g>
	<g>
		<path d="M132,360h-20c-2.208,0-4,1.788-4,4v20c0,2.212,1.792,4,4,4h20c2.208,0,4-1.788,4-4v-20C136,361.788,134.208,360,132,360z
			 M128,380h-12v-12h12V380z"/>
	</g>
</g>
<g>
	<g>
		<path d="M172,360h-20c-2.208,0-4,1.788-4,4v20c0,2.212,1.792,4,4,4h20c2.208,0,4-1.788,4-4v-20C176,361.788,174.208,360,172,360z
			 M168,380h-12v-12h12V380z"/>
	</g>
</g>
<g>
	<g>
		<path d="M92,280H72c-2.208,0-4,1.788-4,4v20c0,2.212,1.792,4,4,4h20c2.208,0,4-1.788,4-4v-20C96,281.788,94.208,280,92,280z
			 M88,300H76v-12h12V300z"/>
	</g>
</g>
<g>
	<g>
		<path d="M92,320H72c-2.208,0-4,1.788-4,4v20c0,2.212,1.792,4,4,4h20c2.208,0,4-1.788,4-4v-20C96,321.788,94.208,320,92,320z
			 M88,340H76v-12h12V340z"/>
	</g>
</g>
<g>
	<g>
		<path d="M92,360H72c-2.208,0-4,1.788-4,4v20c0,2.212,1.792,4,4,4h20c2.208,0,4-1.788,4-4v-20C96,361.788,94.208,360,92,360z
			 M88,380H76v-12h12V380z"/>
	</g>
</g>
</svg>