<?xml version="1.0" encoding="utf-8"?>
<!-- Generator: Adobe Illustrator 23.0.3, SVG Export Plug-In . SVG Version: 6.00 Build 0)  -->
<svg version="1.1" id="Layer_1" xmlns="http://www.w3.org/2000/svg" xmlns:xlink="http://www.w3.org/1999/xlink" x="0px" y="0px"
	 viewBox="0 0 100 100" style="enable-background:new 0 0 100 100;" xml:space="preserve">
<style type="text/css">
	.st0{fill:#FFA000;}
	.st1{fill:#F57F17;}
	.st2{fill:#FFCA28;}
</style>
<path class="st0" d="M61.3,36.1l-10,9.3L42,26.7l4.8-10.8c1.2-2.1,3.2-2.2,4.4,0L61.3,36.1z"/>
<path class="st1" d="M51.3,45.4L13.9,80.2L42,26.7L51.3,45.4z"/>
<path class="st2" d="M72.3,21.9c1.8-1.7,3.6-1.1,4.1,1.3l9.7,56.6L53.8,99.1c-1.1,0.6-4.1,0.9-4.1,0.9S47,99.6,45.9,99l-32-18.9
	L72.3,21.9z"/>
<path class="st0" d="M42,26.7L13.9,80.2L26.4,2c0.5-2.4,1.8-2.7,3.1-0.5L42,26.7z"/>
</svg>
