<?xml version="1.0" encoding="utf-8"?>
<!-- Generator: Adobe Illustrator 21.1.0, SVG Export Plug-In . SVG Version: 6.00 Build 0)  -->
<svg version="1.1" id="Layer_1" xmlns="http://www.w3.org/2000/svg" xmlns:xlink="http://www.w3.org/1999/xlink" x="0px" y="0px"
	 viewBox="0 0 228.7 72" style="enable-background:new 0 0 228.7 72;" xml:space="preserve">
<style type="text/css">
	.st0{clip-path:url(#SVGID_2_);fill:#343535;}
	.st1{clip-path:url(#SVGID_2_);fill:#EC7323;}
</style>
<g>
	<defs>
		<rect id="SVGID_1_" width="228.7" height="72"/>
	</defs>
	<clipPath id="SVGID_2_">
		<use xlink:href="#SVGID_1_"  style="overflow:visible;"/>
	</clipPath>
	<path class="st0" d="M81,27.9c0-2.1,1.7-3.1,3.4-3.1c1.7,0,3.4,1,3.4,3.1c0,2-1.7,3-3.4,3C82.7,31,81,29.9,81,27.9"/>
	<polyline class="st0" points="81.3,48.5 87.5,48.5 87.5,32.4 81.3,32.4 	"/>
	<path class="st0" d="M102.5,48.5v-9c0-2-1.2-2.7-2.3-2.7c-1.5,0-2.8,1-2.8,3.1v8.6h-6V32.1h5.4l0.3,1.8c1.4-1.6,3.4-2.2,5.2-2.2
		c3.4,0,6.4,1.9,6.4,7.7v9.1H102.5z"/>
	<path class="st0" d="M119.8,27.5v4.7h3.7v4.7h-3.7v5.4c0,1.2,0.7,1.6,1.6,1.6c0.6,0,1.3-0.2,1.8-0.6l1.3,4.5
		c-1.4,0.8-3,1.1-4.7,1.1c-3.2,0-6.2-1.5-6.1-6.6v-5.4h-2.6v-4.7h2.6v-4.1L119.8,27.5z"/>
	<path class="st0" d="M143.4,42H132c0.4,1.5,2.3,2.1,3.6,2.1c1.8,0,3.1-0.5,4.2-1.3l3,3.3c-2,1.8-4.6,2.7-7.5,2.7
		c-5.2,0-9.5-2.5-9.5-8.5c0-6,4.7-8.6,9.1-8.6C140.7,31.7,144.8,35.6,143.4,42 M138,38.1c-0.2-2.6-5.5-2.7-5.9,0H138z"/>
	<rect x="146.6" y="25.3" class="st0" width="6" height="23.2"/>
	<path class="st0" d="M159.6,24.8c1.7,0,3.4,1,3.4,3.1c0,2-1.7,3-3.4,3c-1.7,0-3.4-1-3.4-3C156.1,25.9,157.9,24.8,159.6,24.8
		 M162.6,32.4h-6.1v16.1h6.1V32.4z"/>
	<polygon class="st0" points="172.7,36.7 174.5,42 176.1,36.7 177.9,32.1 184.3,32.1 177.6,48.6 171.5,48.6 164.5,32.1 170.9,32.1 	
		"/>
	<path class="st0" d="M189.4,24.8c1.7,0,3.4,1,3.4,3.1c0,2-1.7,3-3.4,3c-1.7,0-3.4-1-3.4-3C186,25.9,187.7,24.8,189.4,24.8
		 M192.5,32.4h-6.1v16.1h6.1V32.4z"/>
	<path class="st0" d="M203.9,27.5v4.7h3.7v4.7h-3.7v5.4c0,1.2,0.7,1.6,1.6,1.6c0.6,0,1.3-0.2,1.8-0.6l1.3,4.5
		c-1.4,0.8-3,1.1-4.7,1.1c-3.2,0-6.2-1.5-6.1-6.6v-5.4h-2.6v-4.7h2.6v-4.1L203.9,27.5z"/>
	<path class="st0" d="M223,32.1h5.7v16.3h-5.6l-0.3-1.8c-1.4,1.6-3.6,2.2-5.4,2.1c-4.8-0.3-7.5-3.7-7.5-8.5c0-4.8,3.2-8.5,7.9-8.5
		c2.3,0,3.9,0.8,4.8,2.1L223,32.1z M216,40.3c0,2.3,1.5,3.6,3.3,3.6c2.1,0,3.4-1.7,3.4-3.6c0-2.2-1.2-3.6-3.4-3.6
		C217.5,36.7,216,38,216,40.3"/>
	<path class="st1" d="M61.9,9.2c-7.8-0.6-17.1,2.2-25.9,8c-2.5,1.7-5,3.5-7.4,5.7c-0.8,0.8-1.7,1.5-2.5,2.3
		c-0.1,0.1-0.2,0.2-0.4,0.3c-0.1,0.1-0.2,0.3-0.4,0.4c-0.8,0.8-1.6,1.6-2.3,2.5c-2.1,2.4-4,4.9-5.7,7.4c-5.8,8.8-8.6,18.1-8,25.9
		l10-10c0.9-2.8,2.1-5.7,3.6-8.5c0.8,0.9,1.5,1.7,2.4,2.5c0.1,0.1,0.2,0.2,0.3,0.3c0.1,0.1,0.3,0.3,0.4,0.4
		c8.7,8.5,18.8,13.9,27.9,15.5c2.7,0.5,5.3,0.6,7.7,0.4l-8.7-8.7l-1.3-1.3c-6.7-2.1-13.6-6.1-19.5-12c-0.1-0.1-0.3-0.3-0.4-0.4
		c-0.1-0.1-0.2-0.2-0.3-0.3c-1.2-1.2-2.4-2.5-3.4-3.8c1.1-1.3,2.2-2.6,3.4-3.8c0.1-0.1,0.2-0.3,0.4-0.4c0.1-0.1,0.2-0.2,0.4-0.3
		c1.2-1.2,2.5-2.4,3.8-3.4c1.3,1.1,2.6,2.2,3.8,3.4c0.1,0.1,0.2,0.2,0.3,0.3c0.1,0.1,0.3,0.3,0.4,0.4c5.9,6,9.9,12.9,12,19.6
		l1.2,1.2l8.8,8.8c0.2-2.5,0-5.1-0.4-7.8c-1.6-9.2-7-19.3-15.5-28c-0.1-0.1-0.3-0.3-0.4-0.4c-0.1-0.1-0.2-0.2-0.3-0.3
		c-0.8-0.8-1.7-1.6-2.5-2.4c2.8-1.6,5.7-2.8,8.5-3.6L61.9,9.2z"/>
	<path class="st1" d="M10.1,62.4c7.8,0.6,17.1-2.2,25.9-8c2.5-1.7,5-3.5,7.4-5.7c0.8-0.8,1.7-1.5,2.5-2.3c0.1-0.1,0.2-0.2,0.4-0.3
		c0.1-0.1,0.2-0.3,0.4-0.4c0.8-0.8,1.6-1.6,2.3-2.5c2.1-2.4,4-4.9,5.7-7.4c5.8-8.8,8.6-18.1,8-25.9l-10,10c-0.9,2.8-2.1,5.7-3.6,8.5
		c-0.8-0.9-1.5-1.7-2.4-2.5c-0.1-0.1-0.2-0.2-0.3-0.3c-0.1-0.1-0.3-0.3-0.4-0.4c-8.7-8.5-18.8-13.9-27.9-15.5
		c-2.7-0.5-5.3-0.6-7.7-0.4L19,18l1.3,1.3c6.7,2.1,13.6,6.1,19.5,12c0.1,0.1,0.3,0.3,0.4,0.4c0.1,0.1,0.2,0.2,0.3,0.3
		c1.2,1.2,2.4,2.5,3.4,3.8c-1.1,1.3-2.2,2.6-3.4,3.8c-0.1,0.1-0.2,0.3-0.4,0.4c-0.1,0.1-0.2,0.2-0.4,0.3c-1.2,1.2-2.5,2.4-3.8,3.4
		c-1.3-1.1-2.6-2.2-3.8-3.4c-0.1-0.1-0.2-0.2-0.3-0.3c-0.1-0.1-0.3-0.3-0.4-0.4c-5.9-6-9.9-12.9-12-19.6l-1.2-1.2L9.5,10
		c-0.2,2.5,0,5.1,0.4,7.8c1.6,9.2,7,19.3,15.5,28c0.1,0.1,0.3,0.3,0.4,0.4c0.1,0.1,0.2,0.2,0.3,0.3c0.8,0.8,1.7,1.6,2.5,2.4
		c-2.8,1.6-5.7,2.8-8.5,3.6L10.1,62.4z"/>
	<path class="st1" d="M67.2,40.8c2.6,0,4.8-2.1,4.8-4.8s-2.1-4.8-4.8-4.8c-2.6,0-4.8,2.1-4.8,4.8S64.6,40.8,67.2,40.8"/>
	<path class="st1" d="M4.8,40.7c2.6,0,4.8-2.1,4.8-4.8c0-2.6-2.1-4.8-4.8-4.8c-2.6,0-4.8,2.1-4.8,4.8C0,38.6,2.1,40.7,4.8,40.7"/>
	<path class="st1" d="M36,72c2.6,0,4.8-2.1,4.8-4.8c0-2.6-2.1-4.8-4.8-4.8s-4.8,2.1-4.8,4.8C31.2,69.9,33.4,72,36,72"/>
	<path class="st1" d="M36,9.6c2.6,0,4.8-2.1,4.8-4.8C40.8,2.1,38.6,0,36,0s-4.8,2.1-4.8,4.8C31.2,7.4,33.4,9.6,36,9.6"/>
</g>
</svg>
