<svg width="231" height="73" viewBox="0 0 231 73" fill="none" xmlns="http://www.w3.org/2000/svg">
<g clip-path="url(#clip0_1_7506)">
<g clip-path="url(#clip1_1_7506)">
<g clip-path="url(#clip2_1_7506)">
<mask id="mask0_1_7506" style="mask-type:luminance" maskUnits="userSpaceOnUse" x="0" y="0" width="231" height="73">
<path d="M230.812 0.0756836H0.8125V72.485H230.812V0.0756836Z" fill="white"/>
</mask>
<g mask="url(#mask0_1_7506)">
<path d="M82.2729 28.1342C82.2729 26.0223 83.9826 25.0166 85.6923 25.0166C87.4019 25.0166 89.1116 26.0223 89.1116 28.1342C89.1116 30.1456 87.4019 31.1513 85.6923 31.1513C83.9826 31.2518 82.2729 30.1456 82.2729 28.1342Z" fill="#343535"/>
</g>
<mask id="mask1_1_7506" style="mask-type:luminance" maskUnits="userSpaceOnUse" x="0" y="0" width="231" height="73">
<path d="M230.812 0.0756836H0.8125V72.485H230.812V0.0756836Z" fill="white"/>
</mask>
<g mask="url(#mask1_1_7506)">
<path d="M82.5747 48.8512H88.8099V32.6597H82.5747" fill="#343535"/>
</g>
<mask id="mask2_1_7506" style="mask-type:luminance" maskUnits="userSpaceOnUse" x="0" y="0" width="231" height="73">
<path d="M230.812 0.0756836H0.8125V72.485H230.812V0.0756836Z" fill="white"/>
</mask>
<g mask="url(#mask2_1_7506)">
<path d="M103.895 48.8516V39.8004C103.895 37.789 102.688 37.085 101.582 37.085C100.073 37.085 98.766 38.0907 98.766 40.2027V48.8516H92.7319V32.3583H98.1626L98.4643 34.1686C99.8723 32.5595 101.884 31.9561 103.694 31.9561C107.113 31.9561 110.13 33.8669 110.13 39.6998V48.8516H103.895Z" fill="#343535"/>
</g>
<mask id="mask3_1_7506" style="mask-type:luminance" maskUnits="userSpaceOnUse" x="0" y="0" width="231" height="73">
<path d="M230.812 0.0756836H0.8125V72.485H230.812V0.0756836Z" fill="white"/>
</mask>
<g mask="url(#mask3_1_7506)">
<path d="M121.293 27.7319V32.4587H125.014V37.1854H121.293V42.6161C121.293 43.8229 121.997 44.2252 122.902 44.2252C123.506 44.2252 124.21 44.024 124.713 43.6217L126.02 48.1473C124.612 48.9519 123.003 49.2536 121.293 49.2536C118.075 49.2536 115.058 47.7451 115.159 42.6161V37.1854H112.544V32.4587H115.159V28.3353L121.293 27.7319Z" fill="#343535"/>
</g>
<mask id="mask4_1_7506" style="mask-type:luminance" maskUnits="userSpaceOnUse" x="0" y="0" width="231" height="73">
<path d="M230.812 0.0756836H0.8125V72.485H230.812V0.0756836Z" fill="white"/>
</mask>
<g mask="url(#mask4_1_7506)">
<path d="M145.028 42.3146H133.563C133.965 43.8231 135.876 44.4265 137.183 44.4265C138.994 44.4265 140.301 43.9237 141.407 43.1191L144.424 46.4379C142.413 48.2481 139.798 49.1533 136.882 49.1533C131.652 49.1533 127.328 46.639 127.328 40.6049C127.328 34.5708 132.054 31.9561 136.479 31.9561C142.312 31.9561 146.436 35.8782 145.028 42.3146ZM139.597 38.3924C139.396 35.7777 134.066 35.6771 133.663 38.3924H139.597Z" fill="#343535"/>
</g>
<mask id="mask5_1_7506" style="mask-type:luminance" maskUnits="userSpaceOnUse" x="0" y="0" width="231" height="73">
<path d="M230.812 0.0756836H0.8125V72.485H230.812V0.0756836Z" fill="white"/>
</mask>
<g mask="url(#mask5_1_7506)">
<path d="M154.28 25.5195H148.246V48.8514H154.28V25.5195Z" fill="#343535"/>
</g>
<mask id="mask6_1_7506" style="mask-type:luminance" maskUnits="userSpaceOnUse" x="0" y="0" width="231" height="73">
<path d="M230.812 0.0756836H0.8125V72.485H230.812V0.0756836Z" fill="white"/>
</mask>
<g mask="url(#mask6_1_7506)">
<path d="M161.32 25.0166C163.029 25.0166 164.739 26.0223 164.739 28.1342C164.739 30.1456 163.029 31.1513 161.32 31.1513C159.61 31.1513 157.9 30.1456 157.9 28.1342C157.8 26.1229 159.61 25.0166 161.32 25.0166ZM164.337 32.6598H158.202V48.8513H164.337V32.6598Z" fill="#343535"/>
</g>
<mask id="mask7_1_7506" style="mask-type:luminance" maskUnits="userSpaceOnUse" x="0" y="0" width="231" height="73">
<path d="M230.812 0.0756836H0.8125V72.485H230.812V0.0756836Z" fill="white"/>
</mask>
<g mask="url(#mask7_1_7506)">
<path d="M174.494 36.9841L176.304 42.3142L177.914 36.9841L179.724 32.3579H186.16L179.422 48.9517H173.287L166.248 32.3579H172.684L174.494 36.9841Z" fill="#343535"/>
</g>
<mask id="mask8_1_7506" style="mask-type:luminance" maskUnits="userSpaceOnUse" x="0" y="0" width="231" height="73">
<path d="M230.812 0.0756836H0.8125V72.485H230.812V0.0756836Z" fill="white"/>
</mask>
<g mask="url(#mask8_1_7506)">
<path d="M191.289 25.0166C192.999 25.0166 194.709 26.0223 194.709 28.1342C194.709 30.1456 192.999 31.1513 191.289 31.1513C189.58 31.1513 187.87 30.1456 187.87 28.1342C187.87 26.1229 189.58 25.0166 191.289 25.0166ZM194.407 32.6598H188.272V48.8513H194.407V32.6598Z" fill="#343535"/>
</g>
<mask id="mask9_1_7506" style="mask-type:luminance" maskUnits="userSpaceOnUse" x="0" y="0" width="231" height="73">
<path d="M230.812 0.0756836H0.8125V72.485H230.812V0.0756836Z" fill="white"/>
</mask>
<g mask="url(#mask9_1_7506)">
<path d="M205.872 27.7319V32.4587H209.593V37.1854H205.872V42.6161C205.872 43.8229 206.576 44.2252 207.481 44.2252C208.084 44.2252 208.788 44.024 209.291 43.6217L210.598 48.1473C209.19 48.9519 207.581 49.2536 205.872 49.2536C202.653 49.2536 199.636 47.7451 199.737 42.6161V37.1854H197.122V32.4587H199.737V28.3353L205.872 27.7319Z" fill="#343535"/>
</g>
<mask id="mask10_1_7506" style="mask-type:luminance" maskUnits="userSpaceOnUse" x="0" y="0" width="231" height="73">
<path d="M230.812 0.0756836H0.8125V72.485H230.812V0.0756836Z" fill="white"/>
</mask>
<g mask="url(#mask10_1_7506)">
<path d="M225.08 32.3583H230.812V48.751H225.181L224.879 46.9407C223.471 48.5498 221.258 49.1533 219.448 49.0527C214.621 48.751 211.906 45.3317 211.906 40.5044C211.906 35.6771 215.124 31.9561 219.85 31.9561C222.164 31.9561 223.773 32.7606 224.678 34.068L225.08 32.3583ZM218.04 40.6049C218.04 42.918 219.549 44.2254 221.359 44.2254C223.471 44.2254 224.778 42.5157 224.778 40.6049C224.778 38.3924 223.571 36.9845 221.359 36.9845C219.549 36.9845 218.04 38.2919 218.04 40.6049Z" fill="#343535"/>
</g>
<mask id="mask11_1_7506" style="mask-type:luminance" maskUnits="userSpaceOnUse" x="0" y="0" width="231" height="73">
<path d="M230.812 0.0756836H0.8125V72.485H230.812V0.0756836Z" fill="white"/>
</mask>
<g mask="url(#mask11_1_7506)">
<path d="M63.0643 9.32819C55.22 8.72478 45.8671 11.5407 37.0171 17.3737C34.5029 19.0833 31.9887 20.8936 29.5751 23.1061C28.7705 23.9106 27.8654 24.6146 27.0608 25.4191C26.9603 25.5197 26.8597 25.6203 26.6586 25.7208C26.558 25.8214 26.4574 26.0225 26.2563 26.1231C25.4517 26.9277 24.6472 27.7322 23.9432 28.6373C21.8313 31.051 19.9205 33.5652 18.2108 36.0794C12.3779 44.9294 9.56194 54.2823 10.1653 62.1266L20.2222 52.0698C21.1273 49.2539 22.3341 46.3374 23.8427 43.5215C24.6472 44.4266 25.3512 45.2311 26.2563 46.0357C26.3569 46.1362 26.4574 46.2368 26.558 46.3374C26.6586 46.4379 26.8597 46.6391 26.9603 46.7396C35.7097 55.288 45.8671 60.7187 55.0189 62.3277C57.7342 62.8306 60.349 62.9312 62.7626 62.73L54.0132 53.9806L52.7058 52.6732C45.9677 50.5612 39.0285 46.5385 33.0949 40.605C32.9944 40.5044 32.7932 40.3033 32.6927 40.2027C32.5921 40.1021 32.4915 40.0016 32.391 39.901C31.1841 38.6942 29.9773 37.3868 28.9716 36.0794C30.0779 34.772 31.1841 33.4646 32.391 32.2578C32.4915 32.1572 32.5921 31.9561 32.7932 31.8555C32.8938 31.7549 32.9944 31.6544 33.1955 31.5538C34.4023 30.347 35.7097 29.1402 37.0171 28.1345C38.3245 29.2407 39.6319 30.347 40.8387 31.5538C40.9393 31.6544 41.0399 31.7549 41.1404 31.8555C41.241 31.9561 41.4421 32.1572 41.5427 32.2578C47.4762 38.2919 51.499 45.2311 53.6109 51.9692L54.8177 53.176L63.6678 62.026C63.8689 59.5118 63.6677 56.8971 63.2655 54.1817C61.6564 44.9294 56.2257 34.772 47.6774 26.0225C47.5768 25.922 47.3757 25.7208 47.2751 25.6203C47.1745 25.5197 47.074 25.4191 46.9734 25.3186C46.1688 24.514 45.2637 23.7095 44.4592 22.9049C47.2751 21.2958 50.1916 20.089 53.0075 19.2845L63.0643 9.32819Z" fill="#EC7323"/>
</g>
<mask id="mask12_1_7506" style="mask-type:luminance" maskUnits="userSpaceOnUse" x="0" y="0" width="231" height="73">
<path d="M230.812 0.0756836H0.8125V72.485H230.812V0.0756836Z" fill="white"/>
</mask>
<g mask="url(#mask12_1_7506)">
<path d="M10.9699 62.8305C18.8143 63.4339 28.1671 60.618 37.0171 54.785C39.5313 53.0754 42.0456 51.2651 44.4592 49.0526C45.2637 48.2481 46.1689 47.5441 46.9734 46.7396C47.074 46.639 47.1745 46.5384 47.3757 46.4378C47.4763 46.3373 47.5768 46.1361 47.778 46.0356C48.5825 45.231 49.3871 44.4265 50.091 43.5214C52.203 41.1077 54.1138 38.5935 55.8234 36.0793C61.6564 27.2293 64.4723 17.8764 63.8689 10.0321L53.8121 20.0889C52.9069 22.9048 51.7001 25.8213 50.1916 28.6372C49.3871 27.7321 48.6831 26.9276 47.778 26.123C47.6774 26.0225 47.5768 25.9219 47.4763 25.8213C47.3757 25.7208 47.1745 25.5196 47.074 25.419C38.3245 16.8707 28.1671 11.44 19.0154 9.83094C16.3 9.3281 13.6853 9.22753 11.2716 9.42867L19.9205 18.1781L21.2279 19.4855C27.966 21.5974 34.9052 25.6202 40.8387 31.5537C40.9393 31.6543 41.1404 31.8554 41.241 31.956C41.3416 32.0566 41.4421 32.1571 41.5427 32.2577C42.7495 33.4645 43.9564 34.7719 44.962 36.0793C43.8558 37.3867 42.7495 38.6941 41.5427 39.9009C41.4421 40.0015 41.3416 40.2026 41.1404 40.3032C41.0399 40.4037 40.9393 40.5043 40.7382 40.6049C39.5313 41.8117 38.224 43.0185 36.9166 44.0242C35.6092 42.918 34.3018 41.8117 33.095 40.6049C32.9944 40.5043 32.8938 40.4037 32.7933 40.3032C32.6927 40.2026 32.4916 40.0015 32.391 39.9009C26.4575 33.8668 22.4347 26.9276 20.3228 20.1895L19.116 18.9827L10.3665 10.1326C10.1654 12.6469 10.3665 15.2616 10.7688 17.977C12.3779 27.2293 17.8086 37.3867 26.3569 46.1361C26.4575 46.2367 26.6586 46.4378 26.7592 46.5384C26.8597 46.639 26.9603 46.7396 27.0609 46.8401C27.8654 47.6447 28.7705 48.4492 29.5751 49.2538C26.7592 50.8629 23.8427 52.0697 21.0268 52.8742L10.9699 62.8305Z" fill="#EC7323"/>
</g>
<mask id="mask13_1_7506" style="mask-type:luminance" maskUnits="userSpaceOnUse" x="0" y="0" width="231" height="73">
<path d="M230.812 0.0756836H0.8125V72.485H230.812V0.0756836Z" fill="white"/>
</mask>
<g mask="url(#mask13_1_7506)">
<path d="M68.3944 41.1077C71.0092 41.1077 73.2217 38.9958 73.2217 36.2804C73.2217 33.5651 71.1098 31.4531 68.3944 31.4531C65.7796 31.4531 63.5671 33.5651 63.5671 36.2804C63.5671 38.9958 65.7796 41.1077 68.3944 41.1077Z" fill="#EC7323"/>
</g>
<mask id="mask14_1_7506" style="mask-type:luminance" maskUnits="userSpaceOnUse" x="0" y="0" width="231" height="73">
<path d="M230.812 0.0756836H0.8125V72.485H230.812V0.0756836Z" fill="white"/>
</mask>
<g mask="url(#mask14_1_7506)">
<path d="M5.63978 41.0071C8.25456 41.0071 10.4671 38.8952 10.4671 36.1798C10.4671 33.565 8.35513 31.3525 5.63978 31.3525C3.02501 31.3525 0.8125 33.4645 0.8125 36.1798C0.8125 38.8952 2.92444 41.0071 5.63978 41.0071Z" fill="#EC7323"/>
</g>
<mask id="mask15_1_7506" style="mask-type:luminance" maskUnits="userSpaceOnUse" x="0" y="0" width="231" height="73">
<path d="M230.812 0.0756836H0.8125V72.485H230.812V0.0756836Z" fill="white"/>
</mask>
<g mask="url(#mask15_1_7506)">
<path d="M37.0172 72.4851C39.632 72.4851 41.8445 70.3732 41.8445 67.6578C41.8445 65.0431 39.7326 62.8306 37.0172 62.8306C34.3019 62.8306 32.1899 64.9425 32.1899 67.6578C32.1899 70.3732 34.4024 72.4851 37.0172 72.4851Z" fill="#EC7323"/>
</g>
<mask id="mask16_1_7506" style="mask-type:luminance" maskUnits="userSpaceOnUse" x="0" y="0" width="231" height="73">
<path d="M230.812 0.0756836H0.8125V72.485H230.812V0.0756836Z" fill="white"/>
</mask>
<g mask="url(#mask16_1_7506)">
<path d="M37.0172 9.73025C39.632 9.73025 41.8445 7.61832 41.8445 4.90297C41.8445 2.18762 39.632 0.0756836 37.0172 0.0756836C34.4024 0.0756836 32.1899 2.18762 32.1899 4.90297C32.1899 7.51775 34.4024 9.73025 37.0172 9.73025Z" fill="#EC7323"/>
</g>
</g>
</g>
</g>
<defs>
<clipPath id="clip0_1_7506">
<rect width="230" height="72.41" fill="white" transform="translate(0.8125 0.0751953)"/>
</clipPath>
<clipPath id="clip1_1_7506">
<rect width="230" height="72.41" fill="white" transform="translate(0.8125 0.0751953)"/>
</clipPath>
<clipPath id="clip2_1_7506">
<rect width="230" height="72.4093" fill="white" transform="translate(0.8125 0.0756836)"/>
</clipPath>
</defs>
</svg>
