<?xml version="1.0" encoding="iso-8859-1"?>
<!-- Uploaded to: SVG Repo, www.svgrepo.com, Generator: SVG Repo Mixer Tools -->
<svg fill="#000000" height="800px" width="800px" version="1.1" id="Layer_1" xmlns="http://www.w3.org/2000/svg" xmlns:xlink="http://www.w3.org/1999/xlink" 
	 viewBox="0 0 512 512" xml:space="preserve">
<g>
	<g>
		<g>
			<path d="M495.993,160.677c-0.859-2.169-1.749-4.263-2.662-6.298c-0.008-0.018-0.013-0.037-0.021-0.055
				c-0.06-0.136-0.123-0.266-0.184-0.401c-0.197-0.434-0.394-0.868-0.595-1.296c-0.213-0.459-0.428-0.913-0.643-1.366
				c-0.106-0.22-0.21-0.441-0.316-0.659c-10.582-21.867-24.088-34.817-39.231-37.541c-0.994-0.221-1.991-0.365-2.984-0.448
				c-0.584-0.049-1.167-0.082-1.746-0.082h-48.164H112.553H64.388c-0.579,0-1.162,0.032-1.746,0.082
				c-0.993,0.083-1.99,0.227-2.984,0.448c-15.143,2.725-28.649,15.674-39.231,37.541c-0.106,0.218-0.211,0.439-0.316,0.659
				c-0.216,0.452-0.43,0.906-0.643,1.366c-0.199,0.429-0.398,0.861-0.595,1.296c-0.061,0.135-0.123,0.265-0.184,0.401
				c-0.008,0.018-0.013,0.037-0.02,0.055c-0.914,2.035-1.803,4.129-2.662,6.298C5.684,186.743,0,220.595,0,256
				c0,35.403,5.684,69.256,16.007,95.322c0.859,2.17,1.749,4.265,2.663,6.3c0.008,0.017,0.012,0.036,0.019,0.052
				c0.058,0.129,0.117,0.253,0.176,0.383c0.203,0.447,0.406,0.892,0.611,1.333c0.205,0.441,0.412,0.877,0.619,1.312
				c0.114,0.238,0.229,0.479,0.343,0.715c10.179,21.024,23.062,33.796,37.503,37.161c0.042,0.01,0.085,0.022,0.127,0.031
				c0.502,0.115,1.007,0.219,1.513,0.312c0.026,0.004,0.051,0.011,0.077,0.016c1.185,0.264,2.376,0.43,3.556,0.497
				c0.393,0.023,0.785,0.033,1.175,0.033h48.165h34.94c4.466,0,8.084-3.618,8.084-8.084c0-4.466-3.618-8.084-8.084-8.084h-26.856
				v-15.998c0-11.59-9.429-21.019-21.019-21.019H31.41c-0.123-0.305-0.248-0.606-0.37-0.914
				C21.449,321.152,16.168,289.414,16.168,256c0-33.415,5.281-65.153,14.871-89.369c0.122-0.308,0.247-0.608,0.37-0.913h68.209
				c11.589,0,21.019-9.429,21.019-21.019v-15.998h270.727v15.998c0,11.59,9.429,21.019,21.019,21.019h68.208
				c0.123,0.305,0.248,0.605,0.37,0.913c9.59,24.216,14.871,55.955,14.871,89.369c0,33.414-5.281,65.152-14.871,89.368
				c-0.122,0.308-0.247,0.609-0.37,0.914h-68.208c-11.59,0-21.019,9.429-21.019,21.019v15.998H173.003
				c-4.466,0-8.084,3.618-8.084,8.084c0,4.466,3.618,8.084,8.084,8.084h226.445h48.164c0.39,0,0.781-0.011,1.175-0.033
				c1.179-0.067,2.37-0.234,3.556-0.497c0.026-0.004,0.051-0.011,0.077-0.016c0.506-0.093,1.01-0.196,1.513-0.312
				c0.042-0.01,0.085-0.022,0.127-0.031c14.442-3.365,27.326-16.137,37.503-37.161c0.115-0.236,0.229-0.476,0.343-0.715
				c0.207-0.434,0.414-0.87,0.619-1.312c0.205-0.441,0.409-0.886,0.611-1.333c0.058-0.128,0.117-0.253,0.176-0.383
				c0.008-0.017,0.012-0.036,0.019-0.052c0.914-2.036,1.804-4.13,2.664-6.3C506.316,325.256,512,291.403,512,256
				C512,220.595,506.316,186.743,495.993,160.677z M99.618,362.45v0.001c2.674,0,4.851,2.176,4.851,4.851v15.998h-40.08
				c-0.248,0-0.507-0.027-0.771-0.067c-0.166-0.025-0.332-0.051-0.508-0.093c-0.156-0.037-0.312-0.068-0.469-0.096
				c-0.457-0.079-0.915-0.183-1.374-0.302c-0.086-0.022-0.171-0.046-0.258-0.069c-7.425-2.033-14.987-9.146-21.659-20.223H99.618z
				 M104.471,144.699h-0.002c0,2.675-2.176,4.851-4.851,4.851H39.351c6.669-11.073,14.229-18.186,21.652-20.22
				c0.091-0.025,0.18-0.05,0.271-0.073c0.457-0.117,0.913-0.221,1.369-0.3c0.157-0.027,0.314-0.059,0.469-0.096
				c0.456-0.108,0.875-0.16,1.279-0.16h40.08V144.699z M412.383,149.549c-2.674,0-4.851-2.175-4.851-4.851v-15.998h40.079
				c0.404,0,0.824,0.052,1.279,0.16c0.155,0.037,0.312,0.068,0.469,0.096c0.455,0.079,0.912,0.182,1.369,0.3
				c0.091,0.023,0.18,0.049,0.271,0.073c7.421,2.035,14.983,9.148,21.652,20.22H412.383z M450.99,382.674
				c-0.086,0.024-0.171,0.047-0.258,0.069c-0.459,0.119-0.917,0.222-1.374,0.302c-0.157,0.027-0.313,0.059-0.469,0.096
				c-0.172,0.041-0.336,0.066-0.5,0.091c-0.267,0.041-0.528,0.068-0.779,0.068h-40.077v-15.998c0-2.674,2.176-4.851,4.851-4.851
				h60.266C465.978,373.527,458.415,380.641,450.99,382.674z"/>
			<path d="M381.687,245.401c-2.948,5.104-3.732,11.051-2.206,16.744c1.525,5.693,5.177,10.451,10.281,13.399
				c3.352,1.936,7.164,2.959,11.02,2.959c0.001,0,0.001,0,0.002,0c7.864,0,15.191-4.23,19.12-11.036
				c6.084-10.536,2.46-24.057-8.073-30.141c-3.353-1.937-7.165-2.961-11.024-2.961C392.942,234.366,385.615,238.595,381.687,245.401
				z M405.902,259.383c-1.052,1.821-3.012,2.951-5.118,2.951c0,0,0,0-0.001,0c-1.038,0-2.026-0.267-2.937-0.792
				c-1.365-0.787-2.34-2.06-2.748-3.581c-0.409-1.521-0.199-3.11,0.591-4.475c1.051-1.821,3.012-2.951,5.118-2.951
				c1.037,0,2.024,0.266,2.936,0.793C406.559,252.953,407.527,256.567,405.902,259.383z"/>
			<path d="M463.307,278.503c7.865,0,15.192-4.23,19.12-11.036c6.084-10.537,2.46-24.059-8.073-30.141
				c-3.353-1.937-7.165-2.961-11.023-2.961c-7.865,0-15.193,4.23-19.123,11.037c-6.084,10.536-2.46,24.059,8.077,30.142
				c3.352,1.936,7.164,2.959,11.02,2.959C463.306,278.503,463.306,278.503,463.307,278.503z M458.211,253.486
				c1.052-1.821,3.014-2.952,5.121-2.952c1.037,0,2.023,0.266,2.936,0.793c2.815,1.625,3.783,5.24,2.157,8.057
				c-1.051,1.82-3.011,2.95-5.117,2.95c-1.039,0-2.028-0.267-2.938-0.792C457.553,259.916,456.585,256.302,458.211,253.486z"/>
			<path d="M443.09,268.587c-3.352-1.936-7.164-2.959-11.02-2.959c-7.865,0-15.193,4.229-19.122,11.034
				c-2.948,5.104-3.732,11.051-2.206,16.744s5.178,10.452,10.282,13.399c3.351,1.936,7.163,2.959,11.02,2.959
				c0.001,0,0.001,0,0.001,0c7.864,0,15.192-4.229,19.122-11.035C457.25,288.191,453.628,274.669,443.09,268.587z M437.165,290.645
				c-1.052,1.82-3.013,2.951-5.119,2.951c-0.001,0-0.001,0-0.001,0c-1.038,0-2.026-0.266-2.937-0.792
				c-1.366-0.789-2.341-2.06-2.749-3.581c-0.409-1.521-0.199-3.11,0.59-4.473c1.052-1.821,3.014-2.952,5.121-2.952
				c1.038,0,2.025,0.267,2.936,0.792C437.823,284.215,438.79,287.828,437.165,290.645z"/>
			<path d="M443.09,206.064c-3.353-1.936-7.164-2.959-11.021-2.959c-7.865,0-15.192,4.227-19.122,11.033
				c-6.084,10.535-2.461,24.057,8.078,30.145c3.351,1.934,7.162,2.956,11.017,2.957c0.001,0,0.001,0,0.002,0
				c7.864,0,15.192-4.229,19.123-11.034c2.947-5.105,3.729-11.052,2.204-16.745C451.846,213.767,448.194,209.009,443.09,206.064z
				 M437.166,228.121c-1.052,1.821-3.015,2.951-5.122,2.951c-1.039,0-2.026-0.267-2.935-0.79c-2.817-1.628-3.787-5.242-2.16-8.058
				c1.051-1.82,3.013-2.95,5.12-2.95c1.038,0,2.025,0.266,2.939,0.793c1.364,0.786,2.338,2.058,2.746,3.579
				C438.162,225.168,437.953,226.758,437.166,228.121z"/>
			<path d="M70.571,298.263h24.2c4.466,0,8.084-3.618,8.084-8.084v-13.56h13.56c4.466,0,8.084-3.618,8.084-8.084v-24.2
				c0-4.466-3.619-8.084-8.084-8.084h-13.56v-13.56c0-4.466-3.618-8.084-8.084-8.084h-24.2c-4.466,0-8.084,3.619-8.084,8.084v13.56
				h-13.56c-4.466,0-8.084,3.618-8.084,8.084v24.2c0,4.466,3.618,8.084,8.084,8.084h13.56v13.56
				C62.487,294.645,66.105,298.263,70.571,298.263z M57.011,260.451v-8.031h13.56c4.466,0,8.084-3.619,8.084-8.084v-13.56h8.031
				v13.56c0,4.466,3.618,8.084,8.084,8.084h13.56v8.031h-13.56c-4.466,0-8.084,3.618-8.084,8.084v13.56h-8.031v-13.56
				c0-4.466-3.619-8.084-8.084-8.084H57.011z"/>
			<path d="M364.323,194.101c4.466,0,8.084-3.62,8.084-8.084v-20.444c0-11.59-9.429-21.019-21.019-21.019H160.612
				c-11.59,0-21.019,9.429-21.019,21.019v180.855c0,11.59,9.429,21.019,21.019,21.019h190.777c11.59,0,21.019-9.429,21.019-21.019
				V211.528c0-4.466-3.618-8.084-8.084-8.084c-4.466,0-8.084,3.619-8.084,8.084v134.898c0,2.674-2.176,4.851-4.851,4.851H160.612
				c-2.674,0-4.851-2.176-4.851-4.851V165.572c0-2.674,2.176-4.851,4.851-4.851h190.777c2.674,0,4.851,2.176,4.851,4.851v20.444
				C356.239,190.482,359.858,194.101,364.323,194.101z"/>
			<path d="M324.985,196.696h-84.884c-4.466,0-8.084,3.618-8.084,8.084c0,4.466,3.618,8.084,8.084,8.084h84.884
				c4.466,0,8.084-3.618,8.084-8.084C333.069,200.316,329.451,196.696,324.985,196.696z"/>
			<path d="M324.985,248.35h-84.884c-4.466,0-8.084,3.619-8.084,8.084c0,4.466,3.618,8.084,8.084,8.084h84.884
				c4.466,0,8.084-3.618,8.084-8.084C333.069,251.97,329.451,248.35,324.985,248.35z"/>
			<path d="M324.985,300.004h-84.884c-4.466,0-8.084,3.619-8.084,8.084c0,4.465,3.618,8.084,8.084,8.084h84.884
				c4.466,0,8.084-3.62,8.084-8.084S329.451,300.004,324.985,300.004z"/>
			<path d="M220.968,195.169c0-6.364-5.177-11.541-11.541-11.541h-19.225c-6.364,0-11.541,5.177-11.541,11.541v19.224
				c0,6.364,5.177,11.541,11.541,11.541h19.225c6.364,0,11.541-5.177,11.541-11.541V195.169z M204.8,209.766h-9.971v-9.971h9.971
				V209.766z"/>
			<path d="M220.968,246.822c0-6.364-5.177-11.541-11.541-11.541h-19.225c-6.364,0-11.541,5.177-11.541,11.541v19.225
				c0,6.364,5.177,11.541,11.541,11.541h19.225c6.364,0,11.541-5.177,11.541-11.541V246.822z M204.8,261.42h-9.971v-9.971h9.971
				V261.42z"/>
			<path d="M209.427,286.934h-19.225c-6.364,0-11.541,5.177-11.541,11.541v19.225c0,6.364,5.177,11.541,11.541,11.541h19.225
				c6.364,0,11.541-5.177,11.541-11.541v-19.225C220.968,292.112,215.791,286.934,209.427,286.934z M204.8,313.073h-9.971v-9.971
				h9.971V313.073z"/>
		</g>
	</g>
</g>
</svg>