<?xml version="1.0" encoding="utf-8"?>
<!-- Generator: Adobe Illustrator 21.1.0, SVG Export Plug-In . SVG Version: 6.00 Build 0)  -->
<svg version="1.1" id="Layer_1" xmlns="http://www.w3.org/2000/svg" xmlns:xlink="http://www.w3.org/1999/xlink" x="0px" y="0px"
	 viewBox="0 0 104 130" style="enable-background:new 0 0 104 130;" xml:space="preserve">
<style type="text/css">
	.st0{fill:#6A6D6F;}
	.st1{fill:#EC7323;}
</style>
<g>
	<g>
		<path class="st0" d="M37.5,56c0.9,0,1.6-0.7,1.6-1.6c0-0.9-0.7-1.6-1.6-1.6c-0.9,0-1.6,0.7-1.6,1.6C35.9,55.3,36.6,56,37.5,56z
			 M47.1,56c0.9,0,1.6-0.7,1.6-1.6c0-0.9-0.7-1.6-1.6-1.6c-0.9,0-1.6,0.7-1.6,1.6C45.5,55.3,46.2,56,47.1,56z M83.7,106.3l-4.5-9.1
			V84.8c0-2.7-2.1-4.8-4.8-4.8h-5.3c-0.6-0.5-1.3-0.8-1.9-1l-14.1-5.1c-1.1-1.4-1.4-3.4-1.1-5.9c2.1-2.4,3.4-5.4,3.4-8.6v-7l0.8-2.6
			c0.5-1.4,0.6-3,0.2-4.6c-0.5-1.6-1.4-3-2.7-3.5c0.3,0.3-0.5-2.9-1.6-4.3c-2.2-2.6-5.9-3.7-9.6-3.7c-8,0-14.5,6.4-14.5,14.4v3.2
			c0.5,0,1.1-0.2,1.6-0.2v8.3c0,3.2,1.1,6.2,3.4,8.6c0.3,2.6,0,4.5-1.1,5.9L17.6,79c-0.6,0.3-1.3,0.6-1.9,1h-5.5
			c-2.7,0-4.8,2.1-4.8,4.8v12.5l-4.5,9.1c-1.1,2.1-1.1,4.6-0.2,6.7c0.8,1.8,2.1,3,3.7,3.8c-0.5,0.6-0.6,1.4-0.6,2.2
			c0,1.6,0.6,2.9,1.6,3.5v2.1c0,2.7,2.1,4.8,4.8,4.8h64.2c2.7,0,4.8-2.1,4.8-4.8v-2.1c0.3-0.3,0.6-0.6,1-1c0.5-0.6,0.6-1.6,0.6-2.4
			c0-0.8-0.2-1.6-0.5-2.2c1.6-0.8,2.9-2.2,3.7-3.8C85,110.8,84.9,108.4,83.7,106.3z M5.4,113.8c-0.8-0.5-1.4-1.3-1.8-2.1
			c-0.6-1.3-0.6-2.9,0-4.2l1.8-3.4V113.8z M52.7,77.1l7.7,2.9h-9.2L52.7,77.1z M32.5,59.4v-8.6c6.9-0.6,13.2-1.4,17.8-2.7
			c0.5,1.4,1,2.6,1.6,3.2v8.1c0,2.6-1,4.9-2.9,6.7l-3.4,3.4c-0.6,0.6-1.4,1-2.2,1H41c-0.8,0-1.6-0.3-2.2-1l-3.4-3.4
			C33.6,64.3,32.5,61.9,32.5,59.4z M49.7,75.4L47.8,80H36.8l-2.4-4.6c0.8-1.3,1.3-2.6,1.4-4.2l0.5,0.5c1.3,1.3,2.9,1.9,4.5,1.9h2.4
			c1.8,0,3.4-0.6,4.5-1.9l0.5-0.5C48.4,72.8,48.9,74.1,49.7,75.4z M31.9,77.1l1.4,2.9h-9.2L31.9,77.1z M8.6,84.8
			c0-1,0.6-1.6,1.6-1.6h64.2c1,0,1.6,0.6,1.6,1.6v30.3H8.6V84.8z M76,124.7c0,1-0.6,1.6-1.6,1.6H10.2c-1,0-1.6-0.6-1.6-1.6v-1.6H76
			V124.7z M77.5,119.9H7.1c-0.2-0.3-0.2-1.3,0-1.6h70.3C77.6,118.6,77.6,119.6,77.5,119.9z M81,111.8c-0.3,1-1,1.6-1.8,2.1v-9.6
			l1.8,3.4C81.6,108.9,81.6,110.5,81,111.8z M35.5,99.1l6.8,6.8l6.8-6.8l-6.8-6.8L35.5,99.1z"/>
	</g>
</g>
<g>
	<g>
		<path class="st1" d="M84.3,1c-10.5,0-19,8.5-19,19c0,10.5,8.5,19,19,19c10.5,0,19-8.5,19-19C103.3,9.6,94.8,1,84.3,1z M84.3,36.9
			c-9.3,0-16.9-7.6-16.9-16.9S75,3.1,84.3,3.1s16.9,7.6,16.9,16.9S93.6,36.9,84.3,36.9z M93.3,9.6L85.8,17c-0.5-0.2-1-0.4-1.5-0.4
			s-1.1,0.1-1.5,0.4l-4.9-4.9c-0.4-0.4-1.1-0.4-1.5,0c-0.4,0.4-0.4,1.1,0,1.5l4.9,4.9C81.1,19,81,19.5,81,20c0,1.8,1.5,3.3,3.3,3.3
			c1.8,0,3.3-1.5,3.3-3.3c0-0.5-0.1-1-0.3-1.5l7.5-7.5c0.4-0.4,0.4-1.1,0-1.5C94.3,9.1,93.7,9.1,93.3,9.6z M84.3,21.2
			c-0.7,0-1.2-0.6-1.2-1.2c0-0.7,0.6-1.2,1.2-1.2c0.7,0,1.2,0.6,1.2,1.2C85.5,20.7,85,21.2,84.3,21.2z M84.3,7.8
			c0.6,0,1.1-0.5,1.1-1.1V5.1c0-0.6-0.5-1.1-1.1-1.1c-0.6,0-1.1,0.5-1.1,1.1v1.7C83.2,7.3,83.7,7.8,84.3,7.8z M84.3,32.2
			c-0.6,0-1.1,0.5-1.1,1.1v1.7c0,0.6,0.5,1.1,1.1,1.1c0.6,0,1.1-0.5,1.1-1.1v-1.7C85.3,32.7,84.9,32.2,84.3,32.2z M99.2,18.9h-1.6
			c-0.6,0-1.1,0.5-1.1,1.1c0,0.6,0.5,1.1,1.1,1.1h1.6c0.6,0,1.1-0.5,1.1-1.1C100.3,19.4,99.8,18.9,99.2,18.9z M71,18.9h-1.6
			c-0.6,0-1.1,0.5-1.1,1.1c0,0.6,0.5,1.1,1.1,1.1H71c0.6,0,1.1-0.5,1.1-1.1C72.1,19.4,71.6,18.9,71,18.9z"/>
	</g>
</g>
</svg>
