<?xml version="1.0" encoding="utf-8"?>
<!-- Generator: Adobe Illustrator 23.0.3, SVG Export Plug-In . SVG Version: 6.00 Build 0)  -->
<svg version="1.1" id="Layer_1" xmlns="http://www.w3.org/2000/svg" xmlns:xlink="http://www.w3.org/1999/xlink" x="0px" y="0px"
	 viewBox="0 0 100 100" style="enable-background:new 0 0 100 100;" xml:space="preserve">
<style type="text/css">
	.st0{fill:url(#SVGID_1_);}
</style>
<radialGradient id="SVGID_1_" cx="968.1893" cy="-1146.4507" r="2.652309e-02" gradientTransform="matrix(2500.001 0 0 2310.7834 -2420424.25 2649253.5)" gradientUnits="userSpaceOnUse">
	<stop  offset="0" style="stop-color:#FFB900"/>
	<stop  offset="0.6" style="stop-color:#F95D8F"/>
	<stop  offset="0.999" style="stop-color:#F95353"/>
</radialGradient>
<path class="st0" d="M78.3,52.7c-12,0-21.7,9.7-21.7,21.7c0,12,9.7,21.8,21.7,21.8c12,0,21.7-9.7,21.7-21.8
	C100,62.5,90.3,52.7,78.3,52.7L78.3,52.7z M21.7,52.7C9.7,52.7,0,62.5,0,74.5c0,12,9.7,21.7,21.7,21.7c12,0,21.7-9.7,21.7-21.7
	C43.5,62.5,33.8,52.7,21.7,52.7L21.7,52.7L21.7,52.7z M71.7,25.5c0,12-9.7,21.8-21.7,21.8c-12,0-21.7-9.7-21.7-21.8S38,3.8,50,3.8
	C62,3.8,71.7,13.5,71.7,25.5L71.7,25.5L71.7,25.5z"/>
</svg>
