<?xml version="1.0" encoding="utf-8"?>
<!-- Generator: Adobe Illustrator 23.0.3, SVG Export Plug-In . SVG Version: 6.00 Build 0)  -->
<svg version="1.1" id="Layer_1" xmlns="http://www.w3.org/2000/svg" xmlns:xlink="http://www.w3.org/1999/xlink" x="0px" y="0px"
	 viewBox="0 0 100 100" style="enable-background:new 0 0 100 100;" xml:space="preserve">
<style type="text/css">
	.st0{fill:none;}
	.st1{fill:#2684FF;}
	.st2{fill:url(#SVGID_1_);}
</style>
<g>
	<path class="st0" d="M39.6,66.2h20.9l5-29.4H34L39.6,66.2z"/>
	<path class="st1" d="M3.3,6.6C1.5,6.6,0,8,0,9.8c0,0.2,0,0.4,0,0.6l13.6,82.6c0.3,2.1,2.1,3.6,4.3,3.6h65.2c1.6,0,2.9-1.1,3.2-2.7
		L100,10.4c0.3-1.7-0.9-3.4-2.6-3.7c-0.2,0-0.4,0-0.6,0L3.3,6.6z M60.5,66.3H39.7l-5.6-29.5h31.5L60.5,66.3z"/>
	
		<linearGradient id="SVGID_1_" gradientUnits="userSpaceOnUse" x1="24.8472" y1="75.5019" x2="24.8223" y2="75.4758" gradientTransform="matrix(1996.6343 0 0 -1480.3047 -49508.2227 111810.9141)">
		<stop  offset="0.18" style="stop-color:#0052CC"/>
		<stop  offset="1" style="stop-color:#2684FF"/>
	</linearGradient>
	<path class="st2" d="M95.6,36.8h-30l-5,29.4H39.7L15.1,95.4c0.8,0.7,1.8,1,2.8,1.1h65.2c1.6,0,2.9-1.1,3.2-2.7L95.6,36.8z"/>
</g>
</svg>
