<?xml version="1.0" encoding="utf-8"?>
<!-- Generator: Adobe Illustrator 23.0.3, SVG Export Plug-In . SVG Version: 6.00 Build 0)  -->
<svg version="1.1" id="Layer_1" xmlns="http://www.w3.org/2000/svg" xmlns:xlink="http://www.w3.org/1999/xlink" x="0px" y="0px"
	 viewBox="0 0 100 100" style="enable-background:new 0 0 100 100;" xml:space="preserve">
<style type="text/css">
	.st0{fill:#FFFFFF;}
	.st1{fill:#00AFF0;}
</style>
<path class="st0" d="M50.9,89.2c-20,0-42.6-23.9-40.8-43.7c1.8-18.9,27.2-36.5,46-33.8c16.6,2.3,31.3,23,30.4,39.4
	C85.6,68.4,68.3,89.2,50.9,89.2L50.9,89.2z"/>
<path class="st1" d="M65.2,99.3c-1.4-0.4-3.4-0.9-4.5-1.4c-1.4-0.7-2.9-0.7-7.9-0.4c-4.8,0.2-7.3,0-10.7-0.5
	C23.9,93.9,9.4,80.8,4.2,62.8c-0.9-3.4-1.1-5.2-1.1-13.3c0-8.8-0.2-9.5-1.4-13.1C-4.9,18.7,8.5,0,27.5,0c3.9,0,8.6,1.1,11.3,2.5
	c1.8,0.9,2.9,1.1,10,1.1c6.3,0,8.8,0.2,12,1.1c14.3,3.6,25.8,12.8,32,25.7c3.9,7.9,5.2,16,4.3,25.2c-0.5,5-0.5,5.4,0.7,8.3
	c3.6,10.6,0.2,22.7-8.6,29.9c-2.7,2.3-8.2,4.7-11.6,5.6c-3.4,0.7-8.8,0.7-12.2-0.2L65.2,99.3L65.2,99.3z M59.1,82
	c7.5-1.6,14.1-6.1,16.6-11.5c3.2-6.5,2.3-14.2-2-18.9c-3.6-4.1-9.1-6.3-22-9.5c-8.6-2-10.7-2.9-12.5-5c-1.6-1.8-1.8-3.2-0.5-5.2
	c1.4-2.3,4.8-3.6,9.3-3.8c6.6-0.4,9.5,1.1,13.4,7.2c2.9,4.5,5.9,5.6,9.8,3.8c5-2.5,4.5-10.6-0.9-15.3c-5.2-4.3-10.9-6.1-20.4-6.1
	c-10,0-16.8,2-21.3,6.5c-3.6,3.6-4.3,5.6-4.3,11.3c0,5.9,0.7,7.7,4.5,11c4.1,3.8,7.5,5.2,19.7,8.1c8.6,2,10.9,3.2,12.9,5.4
	c0.9,1.1,1.4,2,1.4,4.1c0,2.3-0.2,2.7-2,4.5c-2.7,2.7-6.8,3.8-12,3.6c-6.1-0.5-8.8-2.3-12-8.6c-2.3-4.3-4.1-5.9-7-5.9
	c-6.6,0-8.8,5.4-5.4,12.4C27.1,76.3,33,80.4,40.5,82c4.5,0.9,14.5,0.9,18.8,0L59.1,82L59.1,82z"/>
</svg>
