<?xml version="1.0" encoding="utf-8"?>
<!-- Generator: Adobe Illustrator 23.0.3, SVG Export Plug-In . SVG Version: 6.00 Build 0)  -->
<svg version="1.1" id="Layer_1" xmlns="http://www.w3.org/2000/svg" xmlns:xlink="http://www.w3.org/1999/xlink" x="0px" y="0px"
	 viewBox="0 0 100 100" style="enable-background:new 0 0 100 100;" xml:space="preserve">
<style type="text/css">
	.st0{fill:url(#SVGID_1_);}
	.st1{fill:#FFFFFF;}
</style>
<linearGradient id="SVGID_1_" gradientUnits="userSpaceOnUse" x1="25.01" y1="75.01" x2="25.01" y2="74.97" gradientTransform="matrix(2500 0 0 -2500 -62475 187525)">
	<stop  offset="0" style="stop-color:#0091E6"/>
	<stop  offset="1" style="stop-color:#0079BF"/>
</linearGradient>
<path class="st0" d="M9.8,0h80.5c5.4,0,9.8,4.4,9.8,9.8v80.5c0,5.4-4.4,9.8-9.8,9.8H9.8C4.4,100,0,95.6,0,90.2V9.8
	C0,4.4,4.4,0,9.8,0z"/>
<path class="st1" d="M61.2,13h21.1c2.6,0,4.7,2.1,4.7,4.7v34.4c0,2.6-2.1,4.7-4.7,4.7H61.2c-2.6,0-4.7-2.1-4.7-4.7V17.7
	C56.5,15.1,58.6,13,61.2,13z"/>
<path class="st1" d="M17.7,13h21.1c2.6,0,4.7,2.1,4.7,4.7v59.4c0,2.6-2.1,4.7-4.7,4.7H17.7c-2.6,0-4.7-2.1-4.7-4.7V17.7
	C13,15.1,15.1,13,17.7,13z"/>
</svg>
