<?xml version="1.0" ?>
<!-- Uploaded to: SVG Repo, www.svgrepo.com, Generator: SVG Repo Mixer Tools -->
<svg width="800px" height="800px" viewBox="0 0 20 20" version="1.1" xmlns="http://www.w3.org/2000/svg">
<g id="layer1">
<path d="M 2 3 L 2 4 L 19 4 L 19 9.7949219 C 19.38074 10.059605 19.716532 10.382368 20 10.75 L 20 3 L 2 3 z M 0 5 L 0 17 L 11 17 L 11 16 L 1 16 L 1 6 L 17 6 L 17 9.0488281 C 17.34716 9.0889433 17.682039 9.1626484 18 9.2792969 L 18 5 L 0 5 z M 13 7 L 13 10.751953 C 13.283791 10.383642 13.618626 10.059974 14 9.7949219 L 14 8 L 15 8 L 15 9.2792969 C 15.317892 9.1627098 15.652932 9.0889215 16 9.0488281 L 16 7 L 13 7 z M 3 11 L 3 12 L 11 12 L 11 11 L 3 11 z M 16.5 11 C 15.12521 11 14 12.12521 14 13.5 L 14 15 L 13 15 L 13 20 L 20 20 L 20 15 L 19 15 L 19 13.5 C 19 12.12521 17.87479 11 16.5 11 z M 16.5 12 C 17.334349 12 18 12.665651 18 13.5 L 18 15 L 15 15 L 15 13.5 C 15 12.665651 15.665651 12 16.5 12 z M 3 13 L 3 14 L 9 14 L 9 13 L 3 13 z M 14 16 L 19 16 L 19 19 L 14 19 L 14 16 z " style="fill:#222222; fill-opacity:1; stroke:none; stroke-width:0px;"/>
</g>
</svg>