<?xml version="1.0" encoding="utf-8"?>
<!-- Generator: Adobe Illustrator 23.0.3, SVG Export Plug-In . SVG Version: 6.00 Build 0)  -->
<svg version="1.1" id="Layer_1" xmlns="http://www.w3.org/2000/svg" xmlns:xlink="http://www.w3.org/1999/xlink" x="0px" y="0px"
	 viewBox="0 0 100 100" style="enable-background:new 0 0 100 100;" xml:space="preserve">
<style type="text/css">
	.st0{fill:#563D7C;}
	.st1{fill:#FFFFFF;}
</style>
<path class="st0" d="M0,87.1C0,94.2,5.8,100,12.9,100h74.2c7.1,0,12.9-5.8,12.9-12.9V12.9C100,5.8,94.2,0,87.1,0H12.9
	C5.8,0,0,5.8,0,12.9V87.1L0,87.1z"/>
<path class="st1" d="M41.5,44.2V30.1h12.5c1.2,0,2.3,0.1,3.4,0.3c1.1,0.2,2.1,0.6,2.9,1.1c0.8,0.5,1.5,1.2,2,2.1
	c0.5,0.9,0.8,2.1,0.8,3.5c0,2.5-0.8,4.4-2.3,5.5c-1.5,1.1-3.5,1.7-5.9,1.7L41.5,44.2L41.5,44.2z M28.2,19.7v60.5h29.3
	c2.7,0,5.4-0.3,7.9-1c2.6-0.7,4.9-1.7,6.9-3.1c2-1.4,3.6-3.2,4.8-5.5c1.2-2.2,1.8-4.9,1.8-7.9c0-3.8-0.9-7-2.8-9.7
	c-1.8-2.7-4.6-4.6-8.4-5.6c2.7-1.3,4.8-3,6.1-5c1.4-2,2.1-4.6,2.1-7.6c0-2.8-0.5-5.2-1.4-7.1c-0.9-1.9-2.2-3.5-3.9-4.6
	c-1.7-1.2-3.7-2-6.1-2.5c-2.4-0.5-5-0.8-7.9-0.8L28.2,19.7L28.2,19.7z M41.5,69.9V53.3H56c2.9,0,5.2,0.7,7,2
	c1.8,1.3,2.6,3.5,2.6,6.7c0,1.6-0.3,2.9-0.8,3.9s-1.3,1.8-2.2,2.4c-0.9,0.6-2,1-3.1,1.3c-1.2,0.3-2.4,0.4-3.7,0.4H41.5L41.5,69.9z"
	/>
</svg>
