<?xml version="1.0" encoding="utf-8"?>
<!-- Generator: Adobe Illustrator 23.0.3, SVG Export Plug-In . SVG Version: 6.00 Build 0)  -->
<svg version="1.1" id="Layer_1" xmlns="http://www.w3.org/2000/svg" xmlns:xlink="http://www.w3.org/1999/xlink" x="0px" y="0px"
	 viewBox="0 0 100 100" style="enable-background:new 0 0 100 100;" xml:space="preserve">
<style type="text/css">
	.st0{fill:#EE4323;}
</style>
<path class="st0" d="M35.3,99.5c-5.9-2.6-11.5-9.1-11.5-15.8c0-7.3,4.6-13.4,10.3-17.5c-0.7,2.6-1.1,5,0.6,7.3
	c1.6,2.2,4.4,3.2,7,2.6c6.1-1.3,6.4-8.1,2.8-12c-3.6-3.9-7.1-8.3-5.7-13.9c0.7-2.8,2.4-5.5,4.6-7.4c-1.7,4.4,3.1,8.8,6.3,11
	c5.5,3.8,11.5,6.6,16.6,11.1c5.3,4.7,9.2,11,8.4,18.3c-0.9,7.9-7.2,13.4-14.2,16.2C75.5,96.2,90.9,84.6,91.2,68
	c0.3-13.6-9.1-24.1-20.7-30.1l-0.6-0.3c0.3,0.8,0.4,1.4,0.4,2c0.1-0.4,0.2-0.9,0.2-1.3c0,0.5-0.1,1.1-0.2,1.6l0-0.3
	c-0.2,0.7-0.5,1.4-0.9,2l0.2-0.2c-2.3,3.8-8.6,4.7-11.7,0.7c-5-6.4,0.1-13.3,0.8-20c0.9-8.5-4.4-16.7-11-21.6c3.6,5.9-1.2,13.6-5,18
	c-3.7,4.2-8.2,7.7-12.3,11.5c-4.4,4.1-8.6,8.4-12.2,13.3C11,52.9,6.6,65.1,9.9,77.1C13.1,89.1,23.5,96.8,35.3,99.5L35.3,99.5z"/>
</svg>
