<?xml version="1.0" encoding="utf-8"?>
<!-- Generator: Adobe Illustrator 23.0.3, SVG Export Plug-In . SVG Version: 6.00 Build 0)  -->
<svg version="1.1" id="Layer_1" xmlns="http://www.w3.org/2000/svg" xmlns:xlink="http://www.w3.org/1999/xlink" x="0px" y="0px"
	 viewBox="0 0 100 100" style="enable-background:new 0 0 100 100;" xml:space="preserve">
<style type="text/css">
	.st0{fill-rule:evenodd;clip-rule:evenodd;fill:#1A1918;}
	.st1{fill-rule:evenodd;clip-rule:evenodd;fill:#21609B;}
</style>
<g>
	<path class="st0" d="M95.8,40.5l4.2,0c0,0-7.8,10.6-8.4,11.4c-0.2,0.3-0.5,0.6-0.7,1c-0.4,0.9-0.8,3-0.8,3l-3.8,0
		c0,0,0.6-2.1,0.6-3.3c0-1-0.5-2-0.8-3c-0.3-1-0.7-3-0.7-3h3.9l0.5,2.2L95.8,40.5"/>
	<path class="st0" d="M87.9,42.7c0.8,0.5,1.3,3,1.3,3s-4.1,0.1-6.3,0.1h-1.9l-2.3,10.1h-3.5c0,0,2.2-11,2.7-12.9
		c0.2-0.6,1.2-0.5,2.8-0.5h2.7C85,42.4,87,42.2,87.9,42.7 M71.4,47.6c0,0,0.1-0.6-0.4-1.4c-0.4-0.6-0.8-0.8-1.9-0.8
		c-3.1-0.1-3,2.2-3,2.2L71.4,47.6z M74.7,45c0.5,1.6-0.4,5.4-0.4,5.4s-4.5-0.1-6.9,0c-0.8,0-1.7-0.1-1.9,0.3
		c-0.3,0.5,0.1,1.3,0.5,1.6c0.4,0.4,1.3,0.4,1.6,0.5c2,0.3,6.2,0.1,6.2,0.1L72.9,56c0,0-5.9,0.3-8.9-0.4c-0.6-0.1-1.1-0.4-1.5-0.8
		c-0.1-0.1-0.2-0.3-0.3-0.4c-0.1-0.1-0.3-0.4-0.4-0.7c-0.7-1.8,0.1-5.2,0.8-7.1c0.1-0.2,0.2-0.5,0.3-0.7c0.1-0.3,0.3-0.6,0.4-0.8
		c0.1-0.1,0.2-0.2,0.2-0.3c0.1-0.1,0.2-0.3,0.3-0.4c0.3-0.3,0.6-0.5,1-0.8c1.2-0.9,3.5-1.6,6.1-1.4c1,0.1,2.5,0.5,3.3,1.5
		C74.5,44.1,74.6,44.6,74.7,45L74.7,45z M58.5,42.4l3.4,0c0,0-1.9,9.1-2.9,13.5h-3.9c-2.8,0-5.2,0.3-6.3-1.6c-1-1.9,0-5.1,0.4-7.2
		c0.3-1.5,1-4.6,1-4.6l3.6,0c0,0-1,4.8-1.4,7.2c-0.1,0.9-0.5,1.7-0.1,2.3c0.3,0.6,0.7,0.7,2,0.7c0.4,0,1.8,0,1.8,0L58.5,42.4
		 M42.4,48.9c0.4-1.3,0.9-2.7,0.8-3.8c-0.1-1.2-1.1-2.4-1.8-2.6c-2-0.7-3.9,0.3-4.6,1.1c-1,1-1.3,2.3-1.6,3.9
		c-0.3,1.2-0.5,2.6,0,3.5c0.8,1.7,3.4,1.3,6.1,1.4C41.7,51.4,42,50.2,42.4,48.9L42.4,48.9z M47.2,43.9c0.4,2.9-1.1,6-2.1,8.7
		c1.1,0.1,2,0,2,0.1c0.1,0.1-0.7,3.3-1,3.3c-0.8,0-3.6,0-4.8,0c-3.8,0-7.3,0.2-9.1-1.6c-0.7-0.8-1.2-2.1-1.4-3
		c-0.2-1.5,0.1-3.2,0.4-4.6c0.3-1.3,0.7-2.5,1.4-3.5c1.6-2.8,4.4-4.8,9-4.4c0.9,0.1,2.2,0.5,3,1c0.1,0,0.3,0.2,0.3,0.2
		C46,40.7,46.9,42.4,47.2,43.9L47.2,43.9z M30.4,42.4c-0.2,1-0.5,2.2-0.7,3.3h-3.8c0.3-1.1,0.5-2.3,0.8-3.3
		C27.9,42.4,29.1,42.4,30.4,42.4 M25.8,46.6h3.7c-0.5,2.7-1.4,7-2.2,9.9c-0.5,1.9-0.8,3.2-2,4.2c-0.1,0.1-0.2,0-0.3,0.1
		c-0.2,0.2-1.3,0.5-1.9,0.5c-1,0.1-2.1,0-3.3,0c0.3-1.1,0.7-2.5,0.9-3.5c2.9,0.4,3-2.4,3.5-5C24.6,51.4,25.6,47.2,25.8,46.6"/>
	<g>
		<path class="st1" d="M17.2,53.6l-0.1,0.2c-1.3,2.6-3.7,4.2-7.1,4.3c-1.6,0-3.1-0.4-4.1-0.8c-2.1-1-3.9-2.7-4.9-4.6
			c-1.4-2.7-1.7-6.5,1.3-9.3c0,0-0.4,0.6-0.3,0.6l-0.1,0.3c-2.1,6.6,4.4,12.2,10.7,11.6C14.1,55.6,16,54.8,17.2,53.6"/>
		<path class="st1" d="M13.4,50.8c1.6,0,3.2-0.7,4.2-1.8c-0.9,2.2-3.3,3.6-6.7,3.1c-2.8-0.4-5.4-3.2-5.7-6c-0.2-2,0.5-3.3,1.7-4.8
			c-0.4,0.8-0.6,1.4-0.6,1.8C5.9,47.6,9.8,50.8,13.4,50.8"/>
		<path class="st1" d="M17.4,45.3c-0.2,0.6-1.7,1.6-2.3,1.8c-2.5,0.5-4.1-0.6-4.9-2c-0.1-0.2-0.4-0.7-0.4-0.9
			c-0.3-1.1-0.2-2.8,0.8-3.6c-0.3,0.8-0.3,1.8-0.2,2.4c0.1,0.4,0.4,1,0.7,1.4c0.5,0.7,0.8,0.9,1.5,1.3c0.3,0.2,0.6,0.3,0.8,0.4
			C14,46.3,15.3,46.8,17.4,45.3"/>
	</g>
</g>
</svg>
