<?xml version="1.0" encoding="utf-8"?>
<!-- Generator: Adobe Illustrator 23.0.3, SVG Export Plug-In . SVG Version: 6.00 Build 0)  -->
<svg version="1.1" id="Layer_1" xmlns="http://www.w3.org/2000/svg" xmlns:xlink="http://www.w3.org/1999/xlink" x="0px" y="0px"
	 viewBox="0 0 100 100" style="enable-background:new 0 0 100 100;" xml:space="preserve">
<style type="text/css">
	.st0{fill:#FB503B;}
</style>
<title>laravel</title>
<path class="st0" d="M99.6,46.9c-0.7-0.7-9.9-12.2-11.4-14.1c-1.7-1.9-2.4-1.5-3.4-1.4s-12.6,2.1-13.9,2.3c-1.3,0.2-2.1,0.7-1.3,1.9
	c0.7,1.1,8.3,11.8,10,14.3L49.2,57l-24-40.3c-1-1.4-1.2-1.9-3.3-1.8C19.7,15.1,3,16.5,1.8,16.5c-1.2,0.1-2.5,0.6-1.3,3.4
	s20.2,43.7,20.7,44.9c0.5,1.2,1.9,3.1,5.1,2.4c3.3-0.8,14.7-3.8,21-5.5c3.3,5.9,10,18.1,11.3,19.8c1.7,2.4,2.9,1.9,5.3,1.2
	c2-0.6,31.1-11.1,32.4-11.6c1.3-0.6,2.1-1,1.2-2.3c-0.7-1-8.3-11.3-12.4-16.6c2.7-0.7,12.6-3.3,13.7-3.7
	C100.1,48.2,100.3,47.6,99.6,46.9L99.6,46.9z M44.6,58.2c-0.4,0.1-17.4,4.2-18.2,4.4c-1,0.2-1,0.1-1-0.2C25.2,62,5.2,20.7,4.9,20.2
	c-0.2-0.5-0.2-1,0-1s16-1.4,16.5-1.4c0.6,0,0.5,0.1,0.7,0.5c0,0,22.2,38.4,22.6,39C45.2,57.9,44.9,58.1,44.6,58.2L44.6,58.2z
	 M92.3,67.1c0.2,0.5,0.6,0.7-0.4,1c-0.8,0.4-28.6,9.7-29.2,10c-0.6,0.2-1,0.4-1.7-0.7c-0.7-1.1-9.7-16.6-9.7-16.6L80.9,53
	c0.7-0.2,1-0.4,1.4,0.4C82.8,54.2,92.1,66.8,92.3,67.1L92.3,67.1z M94.3,46.2c-0.7,0.1-11.5,2.9-11.5,2.9l-8.9-12.1
	c-0.2-0.4-0.5-0.7,0.1-0.8c0.6-0.1,10.7-1.9,11.2-2c0.5-0.1,0.8-0.2,1.4,0.6c0.6,0.7,8.2,10.5,8.6,10.8C95.4,45.9,95,46.1,94.3,46.2
	L94.3,46.2z"/>
</svg>
