<?xml version="1.0" encoding="utf-8"?>
<!-- Generator: Adobe Illustrator 23.0.3, SVG Export Plug-In . SVG Version: 6.00 Build 0)  -->
<svg version="1.1" id="Layer_1" xmlns="http://www.w3.org/2000/svg" xmlns:xlink="http://www.w3.org/1999/xlink" x="0px" y="0px"
	 viewBox="0 0 100 100" style="enable-background:new 0 0 100 100;" xml:space="preserve">
<style type="text/css">
	.st0{fill:#539E43;}
	.st1{fill:#333333;}
	.st2{fill:url(#SVGID_1_);}
	.st3{filter:url(#Adobe_OpacityMaskFilter);}
	.st4{fill:#FFFFFF;}
	.st5{mask:url(#c_1_);}
	.st6{fill:none;}
	.st7{fill:url(#SVGID_2_);}
	.st8{filter:url(#Adobe_OpacityMaskFilter_1_);}
	.st9{mask:url(#c_2_);}
	.st10{fill-rule:evenodd;clip-rule:evenodd;fill:url(#SVGID_3_);}
	.st11{fill-rule:evenodd;clip-rule:evenodd;fill:url(#SVGID_4_);}
	.st12{fill-rule:evenodd;clip-rule:evenodd;fill:url(#SVGID_5_);}
	.st13{fill-rule:evenodd;clip-rule:evenodd;fill:url(#SVGID_6_);}
	.st14{fill-rule:evenodd;clip-rule:evenodd;fill:url(#SVGID_7_);}
</style>
<g>
	<path class="st0" d="M49.5,78.8c-0.3,0-0.7-0.1-0.9-0.2l-3-1.8c-0.5-0.2-0.2-0.3-0.1-0.4c0.6-0.2,0.7-0.2,1.4-0.6
		c0.1,0,0.2,0,0.2,0l2.3,1.4c0.1,0,0.2,0,0.3,0l9-5.2c0.1,0,0.1-0.1,0.1-0.2V61.2c0-0.1,0-0.2-0.1-0.2l-9-5.2c-0.1,0-0.2,0-0.3,0
		l-9,5.2c-0.1,0-0.1,0.2-0.1,0.2v10.4c0,0.1,0,0.2,0.1,0.2l2.5,1.4c1.3,0.7,2.2-0.1,2.2-0.9V62.1c0-0.1,0.1-0.3,0.3-0.3h1.2
		c0.1,0,0.3,0.1,0.3,0.3v10.3c0,1.8-1,2.8-2.7,2.8c-0.5,0-0.9,0-2.1-0.6l-2.4-1.4c-0.6-0.3-0.9-1-0.9-1.7V61.3
		c0-0.7,0.4-1.3,0.9-1.7l9-5.2c0.6-0.3,1.3-0.3,1.9,0l9,5.2c0.6,0.3,0.9,1,0.9,1.7v10.4c0,0.7-0.4,1.3-0.9,1.7l-9,5.2
		C50.1,78.7,49.8,78.8,49.5,78.8L49.5,78.8z M52.2,71.6c-4,0-4.8-1.8-4.8-3.3c0-0.1,0.1-0.3,0.3-0.3h1.2c0.1,0,0.2,0.1,0.2,0.2
		c0.2,1.2,0.7,1.8,3.1,1.8c1.9,0,2.7-0.4,2.7-1.4c0-0.6-0.2-1-3.2-1.3c-2.5-0.2-4-0.8-4-2.8c0-1.8,1.5-2.9,4.1-2.9
		c2.9,0,4.3,1,4.5,3.2c0,0.1,0,0.1-0.1,0.2c0,0-0.1,0.1-0.2,0.1H55c-0.1,0-0.2-0.1-0.2-0.2c-0.3-1.2-1-1.7-2.8-1.7
		c-2.1,0-2.3,0.7-2.3,1.3c0,0.7,0.3,0.9,3.1,1.2c2.8,0.4,4.1,0.9,4.1,2.8C56.7,70.5,55.1,71.6,52.2,71.6z"/>
	<path class="st1" d="M21.5,38c0-0.4-0.2-0.8-0.6-1l-9.6-5.5c-0.2-0.1-0.3-0.1-0.5-0.2h-0.1c-0.2,0-0.4,0.1-0.5,0.2L0.6,37
		C0.2,37.2,0,37.6,0,38l0,14.8c0,0.2,0.1,0.4,0.3,0.5c0.2,0.1,0.4,0.1,0.6,0l5.7-3.3c0.4-0.2,0.6-0.6,0.6-1v-6.9
		c0-0.4,0.2-0.8,0.6-1l2.4-1.4c0.2-0.1,0.4-0.2,0.6-0.2c0.2,0,0.4,0,0.6,0.2l2.4,1.4c0.4,0.2,0.6,0.6,0.6,1v6.9c0,0.4,0.2,0.8,0.6,1
		l5.7,3.3c0.2,0.1,0.4,0.1,0.6,0c0.2-0.1,0.3-0.3,0.3-0.5L21.5,38L21.5,38z M67.5,17.6c-0.2-0.1-0.4-0.1-0.6,0
		c-0.2,0.1-0.3,0.3-0.3,0.5v14.7c0,0.1-0.1,0.3-0.2,0.4c-0.1,0.1-0.3,0.1-0.4,0l-2.4-1.4c-0.4-0.2-0.8-0.2-1.2,0l-9.6,5.5
		c-0.4,0.2-0.6,0.6-0.6,1v11.1c0,0.4,0.2,0.8,0.6,1l9.6,5.5c0.4,0.2,0.8,0.2,1.2,0l9.6-5.5c0.4-0.2,0.6-0.6,0.6-1V21.8
		c0-0.4-0.2-0.8-0.6-1L67.5,17.6L67.5,17.6z M66.7,45.7c0,0.1,0,0.2-0.1,0.2l-3.3,1.9c-0.1,0-0.2,0-0.3,0L59.7,46
		c-0.1,0-0.1-0.2-0.1-0.2v-3.8c0-0.1,0-0.2,0.1-0.2l3.3-1.9c0.1,0,0.2,0,0.3,0l3.3,1.9c0.1,0,0.1,0.2,0.1,0.2V45.7L66.7,45.7z
		 M99.4,41.8c0.4-0.2,0.6-0.6,0.6-1v-2.7c0-0.4-0.2-0.8-0.6-1l-9.5-5.5c-0.4-0.2-0.8-0.2-1.2,0l-9.6,5.5c-0.4,0.2-0.6,0.6-0.6,1
		v11.1c0,0.4,0.2,0.8,0.6,1l9.5,5.4c0.4,0.2,0.8,0.2,1.1,0l5.8-3.2c0.2-0.1,0.3-0.3,0.3-0.5s-0.1-0.4-0.3-0.5L86,45.9
		c-0.2-0.1-0.3-0.3-0.3-0.5v-3.5c0-0.2,0.1-0.4,0.3-0.5l3-1.7c0.2-0.1,0.4-0.1,0.6,0l3,1.7c0.2,0.1,0.3,0.3,0.3,0.5v2.7
		c0,0.2,0.1,0.4,0.3,0.5c0.2,0.1,0.4,0.1,0.6,0L99.4,41.8L99.4,41.8z"/>
	<path class="st0" d="M89.2,41.3c0.1,0,0.2,0,0.2,0l1.8,1.1c0.1,0,0.1,0.1,0.1,0.2v2.1c0,0.1,0,0.2-0.1,0.2L89.4,46
		c-0.1,0-0.2,0-0.2,0l-1.8-1.1c-0.1,0-0.1-0.1-0.1-0.2v-2.1c0-0.1,0-0.2,0.1-0.2L89.2,41.3z"/>
	<g transform="translate(134.068 70.501)">
		<g>
			
				<linearGradient id="SVGID_1_" gradientUnits="userSpaceOnUse" x1="-110.273" y1="5.5584" x2="-110.2891" y2="5.5295" gradientTransform="matrix(532.1024 0 0 -606.2871 58583.2305 3335.2502)">
				<stop  offset="0" style="stop-color:#41873F"/>
				<stop  offset="0.3288" style="stop-color:#418B3D"/>
				<stop  offset="0.6352" style="stop-color:#419637"/>
				<stop  offset="0.9319" style="stop-color:#3FA92D"/>
				<stop  offset="1" style="stop-color:#3FAE2A"/>
			</linearGradient>
			<path class="st2" d="M-96.6-38.8c-0.4-0.2-0.8-0.2-1.2,0l-9.5,5.5c-0.4,0.2-0.6,0.6-0.6,1v11c0,0.4,0.2,0.8,0.6,1l9.5,5.5
				c0.4,0.2,0.8,0.2,1.2,0l9.5-5.5c0.4-0.2,0.6-0.6,0.6-1v-11c0-0.4-0.2-0.8-0.6-1L-96.6-38.8z"/>
		</g>
		<defs>
			<filter id="Adobe_OpacityMaskFilter" filterUnits="userSpaceOnUse" x="-107.9" y="-39" width="21.5" height="24.3">
				<feColorMatrix  type="matrix" values="1 0 0 0 0  0 1 0 0 0  0 0 1 0 0  0 0 0 1 0"/>
			</filter>
		</defs>
		<mask maskUnits="userSpaceOnUse" x="-107.9" y="-39" width="21.5" height="24.3" id="c_1_">
			<g class="st3">
				<path id="a_1_" class="st4" d="M-96.6-38.8c-0.4-0.2-0.8-0.2-1.2,0l-9.5,5.5c-0.4,0.2-0.6,0.6-0.6,1v11c0,0.4,0.2,0.8,0.6,1
					l9.5,5.5c0.4,0.2,0.8,0.2,1.2,0l9.5-5.5c0.4-0.2,0.6-0.6,0.6-1v-11c0-0.4-0.2-0.8-0.6-1L-96.6-38.8z"/>
			</g>
		</mask>
		<g class="st5">
			<path class="st6" d="M-97.7-38.8l-9.5,5.5c-0.4,0.2-0.6,0.6-0.6,1v11c0,0.3,0.1,0.5,0.3,0.7L-96.9-39C-97.2-39-97.5-39-97.7-38.8
				L-97.7-38.8z M-96.8-14.7c0.1,0,0.2-0.1,0.3-0.1l9.5-5.5c0.4-0.2,0.6-0.6,0.6-1v-11c0-0.3-0.1-0.6-0.3-0.8L-96.8-14.7L-96.8-14.7
				z"/>
			
				<linearGradient id="SVGID_2_" gradientUnits="userSpaceOnUse" x1="-110.3218" y1="5.5451" x2="-110.2753" y2="5.5745" gradientTransform="matrix(519.687 0 0 -606.0386 57234.1875 3334.9944)">
				<stop  offset="0.1376" style="stop-color:#41873F"/>
				<stop  offset="0.4032" style="stop-color:#54A044"/>
				<stop  offset="0.7136" style="stop-color:#66B848"/>
				<stop  offset="0.9081" style="stop-color:#6CC04A"/>
			</linearGradient>
			<path class="st7" d="M-87-33.3l-9.6-5.5c-0.1,0-0.2-0.1-0.3-0.1l-10.7,18.4c0.1,0.1,0.2,0.2,0.3,0.3l9.6,5.5
				c0.3,0.2,0.6,0.2,0.9,0.1l10.1-18.4C-86.8-33.2-86.9-33.3-87-33.3L-87-33.3z"/>
		</g>
		<defs>
			<filter id="Adobe_OpacityMaskFilter_1_" filterUnits="userSpaceOnUse" x="-107.9" y="-40.8" width="21.8" height="26.5">
				<feColorMatrix  type="matrix" values="1 0 0 0 0  0 1 0 0 0  0 0 1 0 0  0 0 0 1 0"/>
			</filter>
		</defs>
		<mask maskUnits="userSpaceOnUse" x="-107.9" y="-40.8" width="21.8" height="26.5" id="c_2_">
			<g class="st8">
				<path id="a_2_" class="st4" d="M-96.6-38.8c-0.4-0.2-0.8-0.2-1.2,0l-9.5,5.5c-0.4,0.2-0.6,0.6-0.6,1v11c0,0.4,0.2,0.8,0.6,1
					l9.5,5.5c0.4,0.2,0.8,0.2,1.2,0l9.5-5.5c0.4-0.2,0.6-0.6,0.6-1v-11c0-0.4-0.2-0.8-0.6-1L-96.6-38.8z"/>
			</g>
		</mask>
		<g class="st9">
			<path class="st6" d="M-86.4-21.3v-11c0-0.4-0.2-0.8-0.6-1l-9.6-5.5c-0.1-0.1-0.2-0.1-0.4-0.1l10.5,17.9
				C-86.4-21.2-86.4-21.2-86.4-21.3L-86.4-21.3z M-107.3-33.3c-0.4,0.2-0.6,0.6-0.6,1v11c0,0.4,0.3,0.8,0.6,1l9.6,5.5
				c0.2,0.1,0.5,0.2,0.7,0.1L-107.3-33.3L-107.3-33.3L-107.3-33.3z"/>
			
				<linearGradient id="SVGID_3_" gradientUnits="userSpaceOnUse" x1="-307.3386" y1="181.3856" x2="-303.4362" y2="181.3856" gradientTransform="matrix(4.5111 0 0 -1.6941 1280.2924 266.4746)">
				<stop  offset="9.192000e-02" style="stop-color:#6CC04A"/>
				<stop  offset="0.2864" style="stop-color:#66B848"/>
				<stop  offset="0.5968" style="stop-color:#54A044"/>
				<stop  offset="0.8624" style="stop-color:#41873F"/>
			</linearGradient>
			<path class="st10" d="M-98-40.8l-0.1,0.1L-98-40.8L-98-40.8z"/>
			
				<linearGradient id="SVGID_4_" gradientUnits="userSpaceOnUse" x1="-110.3589" y1="5.545" x2="-110.3165" y2="5.545" gradientTransform="matrix(519.1255 0 0 -606.527 57181.9805 3336.3557)">
				<stop  offset="9.192000e-02" style="stop-color:#6CC04A"/>
				<stop  offset="0.2864" style="stop-color:#66B848"/>
				<stop  offset="0.5968" style="stop-color:#54A044"/>
				<stop  offset="0.8624" style="stop-color:#41873F"/>
			</linearGradient>
			<path class="st11" d="M-87-20.3c0.3-0.2,0.5-0.4,0.6-0.7L-96.9-39c-0.3,0-0.6,0-0.8,0.1l-9.5,5.5L-97-14.7c0.1,0,0.3-0.1,0.4-0.1
				L-87-20.3L-87-20.3z"/>
			
				<linearGradient id="SVGID_5_" gradientUnits="userSpaceOnUse" x1="-805.6663" y1="203.2476" x2="-801.7639" y2="203.2476" gradientTransform="matrix(1.6941 0 0 -3.9497 1272.1041 782.1998)">
				<stop  offset="9.192000e-02" style="stop-color:#6CC04A"/>
				<stop  offset="0.2864" style="stop-color:#66B848"/>
				<stop  offset="0.5968" style="stop-color:#54A044"/>
				<stop  offset="0.8624" style="stop-color:#41873F"/>
			</linearGradient>
			<path class="st12" d="M-86.1-20.5l-0.1-0.1L-86.1-20.5L-86.1-20.5L-86.1-20.5z"/>
			
				<linearGradient id="SVGID_6_" gradientUnits="userSpaceOnUse" x1="-112.5169" y1="9.5871" x2="-112.4349" y2="9.5871" gradientTransform="matrix(268.5875 0 0 -167.5852 30112.4727 1588.9264)">
				<stop  offset="9.192000e-02" style="stop-color:#6CC04A"/>
				<stop  offset="0.2864" style="stop-color:#66B848"/>
				<stop  offset="0.5968" style="stop-color:#54A044"/>
				<stop  offset="0.8624" style="stop-color:#41873F"/>
			</linearGradient>
			<path class="st13" d="M-87-20.3l-9.5,5.5c-0.1,0.1-0.3,0.1-0.4,0.1l0.2,0.3l10.6-6.1v-0.1l-0.3-0.5C-86.5-20.8-86.7-20.5-87-20.3
				L-87-20.3z"/>
			
				<linearGradient id="SVGID_7_" gradientUnits="userSpaceOnUse" x1="-112.423" y1="9.6917" x2="-112.4736" y2="9.5264" gradientTransform="matrix(268.5875 0 0 -167.5852 30112.4727 1588.9264)">
				<stop  offset="0" style="stop-color:#41873F"/>
				<stop  offset="0.3288" style="stop-color:#418B3D"/>
				<stop  offset="0.6352" style="stop-color:#419637"/>
				<stop  offset="0.9319" style="stop-color:#3FA92D"/>
				<stop  offset="1" style="stop-color:#3FAE2A"/>
			</linearGradient>
			<path class="st14" d="M-87-20.3l-9.5,5.5c-0.1,0.1-0.3,0.1-0.4,0.1l0.2,0.3l10.6-6.1v-0.1l-0.3-0.5C-86.5-20.8-86.7-20.5-87-20.3
				L-87-20.3z"/>
		</g>
	</g>
</g>
</svg>
