<?xml version="1.0" encoding="utf-8"?>
<!-- Generator: Adobe Illustrator 23.0.3, SVG Export Plug-In . SVG Version: 6.00 Build 0)  -->
<svg version="1.1" id="Layer_1" xmlns="http://www.w3.org/2000/svg" xmlns:xlink="http://www.w3.org/1999/xlink" x="0px" y="0px"
	 viewBox="0 0 100 100" style="enable-background:new 0 0 100 100;" xml:space="preserve">
<style type="text/css">
	.st0{fill:url(#SVGID_1_);}
	.st1{fill:#FF7F18;}
</style>
<radialGradient id="SVGID_1_" cx="-159.0607" cy="-253.6411" r="3.039865e-02" gradientTransform="matrix(2291.6716 0 0 -2218.7549 364549.3125 -562741.9375)" gradientUnits="userSpaceOnUse">
	<stop  offset="0" style="stop-color:#423325;stop-opacity:0.98"/>
	<stop  offset="1" style="stop-color:#1C0A00"/>
</radialGradient>
<path class="st0" d="M4.2,5.4h91.7v89.2H4.2V5.4z"/>
<path class="st1" d="M4.2,5.4h91.7v89.2H4.2V5.4z M0,98.8h100V1.3H0V98.8z M65.5,36c0-0.3,0.1-0.5,0.5-0.5h6.5
	c0.3,0,0.5,0.1,0.5,0.5v32.9c0,0.3-0.1,0.5-0.5,0.5h-6.5c-0.4,0-0.5-0.2-0.5-0.5L65.5,36L65.5,36L65.5,36z M65,26.5
	c0-2.7,1.9-4.2,4.2-4.2c2.5,0,4.2,1.7,4.2,4.2c0,2.7-1.8,4.2-4.3,4.2C66.8,30.8,65,29.3,65,26.5z M46.3,49.7
	c-1.2-4.6-3.9-14.7-5-19.6h-0.1c-0.9,4.9-3.1,13.1-4.8,19.6H46.3z M34.7,56.5L31.4,69c-0.1,0.3-0.2,0.4-0.6,0.4h-6.1
	c-0.4,0-0.5-0.1-0.4-0.6l11.8-41.4c0.2-0.7,0.3-1.4,0.4-3.5c0-0.3,0.1-0.4,0.3-0.4h8.7c0.3,0,0.4,0.1,0.5,0.4l13.2,45
	c0.1,0.3,0,0.5-0.3,0.5h-6.9c-0.3,0-0.5-0.1-0.6-0.4L48,56.5H34.7L34.7,56.5z"/>
</svg>
