<?xml version="1.0" encoding="utf-8"?>
<!-- Generator: Adobe Illustrator 23.0.3, SVG Export Plug-In . SVG Version: 6.00 Build 0)  -->
<svg version="1.1" id="Layer_1" xmlns="http://www.w3.org/2000/svg" xmlns:xlink="http://www.w3.org/1999/xlink" x="0px" y="0px"
	 viewBox="0 0 100 100" style="enable-background:new 0 0 100 100;" xml:space="preserve">
<style type="text/css">
	.st0{fill:url(#SVGID_1_);}
	.st1{fill:#D8A1FF;}
</style>
<radialGradient id="SVGID_1_" cx="-159.0607" cy="-253.6411" r="3.039865e-02" gradientTransform="matrix(2291.6716 0 0 -2218.7549 364549.3125 -562741.9375)" gradientUnits="userSpaceOnUse">
	<stop  offset="0" style="stop-color:#442F55;stop-opacity:0.98"/>
	<stop  offset="1" style="stop-color:#12002C"/>
</radialGradient>
<path class="st0" d="M4.2,5.4h91.7v89.2H4.2V5.4z"/>
<path class="st1" d="M4.2,5.4h91.7v89.2H4.2V5.4z M0,98.8h100V1.3H0V98.8z M70.8,48.3c2.1,0,2.9,0,3.1-0.1c0-0.3,0.1-0.5,0.1-0.7
	c0-2.2-1.1-6.4-5.4-6.4c-4,0-5.7,3.5-6.1,7.2H70.8L70.8,48.3z M62.3,54c0.1,5.6,2.7,9.4,9.1,9.4c2.5,0,4.6-0.3,6.8-1.3
	c0.3-0.1,0.5-0.1,0.5,0.3v5.2c0,0.4-0.1,0.6-0.4,0.8c-2.2,1.1-5,1.6-8.4,1.6c-11,0-15.1-8.1-15.1-17.2c0-9.8,5.1-17.9,14-17.9
	C77.9,35,81,42.6,81,48.8c0,2-0.1,3.6-0.3,4.4c-0.1,0.3-0.2,0.5-0.5,0.5c-0.8,0.1-3.3,0.3-7,0.3L62.3,54L62.3,54z M40,49.7
	c-1.2-4.6-4-14.7-5-19.6h-0.1C34,35,31.7,43.3,30,49.7H40z M28.3,56.5L25,68.9c-0.1,0.3-0.2,0.5-0.6,0.5h-6.1
	c-0.4,0-0.5-0.1-0.4-0.6l11.8-41.4C29.8,26.6,30,26,30,24c0-0.3,0.1-0.4,0.3-0.4h8.7c0.3,0,0.4,0.1,0.5,0.4l13.2,44.9
	c0.1,0.3,0,0.5-0.3,0.5h-6.9c-0.3,0-0.5-0.1-0.6-0.4l-3.4-12.5L28.3,56.5L28.3,56.5z"/>
</svg>
