<?xml version="1.0" encoding="utf-8"?>
<!-- Generator: Adobe Illustrator 23.0.3, SVG Export Plug-In . SVG Version: 6.00 Build 0)  -->
<svg version="1.1" id="Layer_1" xmlns="http://www.w3.org/2000/svg" xmlns:xlink="http://www.w3.org/1999/xlink" x="0px" y="0px"
	 viewBox="0 0 100 100" style="enable-background:new 0 0 100 100;" xml:space="preserve">
<style type="text/css">
	.st0{fill:url(#SVGID_1_);}
	.st1{fill:#31C5F0;}
</style>
<radialGradient id="SVGID_1_" cx="-159.0607" cy="-253.6408" r="3.039995e-02" gradientTransform="matrix(2291.6716 0 0 -2218.7549 364549.3125 -562741.9375)" gradientUnits="userSpaceOnUse">
	<stop  offset="0" style="stop-color:#34364E;stop-opacity:0.98"/>
	<stop  offset="1" style="stop-color:#0C0824"/>
</radialGradient>
<path class="st0" d="M4.2,4.9h91.7v89.2H4.2V4.9z"/>
<path class="st1" d="M4.2,4.9h91.7v89.2H4.2V4.9z M0,98.3h100V0.8H0V98.3z M67.4,40.8c-3.3,0-4.4,1.7-4.4,3c0,1.5,0.7,2.5,5.2,4.8
	c6.5,3.2,8.6,6.2,8.6,10.7c0,6.7-5.1,10.2-12,10.2c-3.6,0-6.8-0.8-8.5-1.8c-0.3-0.1-0.3-0.3-0.3-0.7V61c0-0.4,0.2-0.5,0.5-0.3
	c2.6,1.7,5.6,2.5,8.4,2.5c3.3,0,4.7-1.4,4.7-3.3c0-1.5-1-2.8-5.2-5c-5.9-2.8-8.4-5.7-8.4-10.5c0-5.4,4.2-9.8,11.5-9.8
	c3.6,0,6.1,0.5,7.5,1.2c0.3,0.2,0.4,0.5,0.4,0.8v5.7c0,0.3-0.2,0.5-0.6,0.4C72.8,41.5,70.1,40.8,67.4,40.8L67.4,40.8z M31.6,45.7
	c1,0.1,1.7,0.1,3.4,0.1c4.9,0,9.5-1.7,9.5-8.3c0-5.3-3.3-8-8.8-8c-1.7,0-3.3,0.1-4,0.1V45.7z M24.2,23.6c0-0.3,0.6-0.5,0.9-0.5
	c2.7-0.1,6.6-0.2,10.8-0.2c11.5,0,16,6.3,16,14.4c0,10.6-7.7,15.1-17.1,15.1c-1.6,0-2.1-0.1-3.3-0.1v16c0,0.3-0.1,0.5-0.5,0.5h-6.4
	c-0.3,0-0.5-0.1-0.5-0.5L24.2,23.6L24.2,23.6z"/>
</svg>
