<?xml version="1.0" encoding="utf-8"?>
<!-- Generator: Adobe Illustrator 23.0.3, SVG Export Plug-In . SVG Version: 6.00 Build 0)  -->
<svg version="1.1" id="Layer_1" xmlns="http://www.w3.org/2000/svg" xmlns:xlink="http://www.w3.org/1999/xlink" x="0px" y="0px"
	 viewBox="0 0 100 100" style="enable-background:new 0 0 100 100;" xml:space="preserve">
<style type="text/css">
	.st0{fill-rule:evenodd;clip-rule:evenodd;fill:#EA6C00;}
	.st1{fill-rule:evenodd;clip-rule:evenodd;fill:#FDAD00;}
	.st2{fill-rule:evenodd;clip-rule:evenodd;fill:#FDD231;}
	.st3{fill-rule:evenodd;clip-rule:evenodd;fill:#FEEEB7;}
</style>
<title>logo-symbol</title>
<desc>Created using Figma</desc>
<g transform="translate(.17 30.901)">
	<path id="a" class="st0" d="M20.3,37.5L50,95.7L0,37.5H20.3z"/>
</g>
<g transform="matrix(-1 0 0 1 94.64 30.901)">
	<path id="b" class="st0" d="M79.7,37.5L50,95.7l50-58.2H79.7z"/>
</g>
<g transform="translate(19.3 30.901)">
	<path id="c" class="st1" d="M20.2,37.5h59.5L50,95.7L20.2,37.5z"/>
</g>
<g transform="translate(19.3 .42)">
	<path id="d" class="st2" d="M50,5.2l-28.2,3l-1.6,29.3L50,5.2z"/>
</g>
<g transform="matrix(-1 0 0 1 75.5 .42)">
	<path id="e" class="st2" d="M50,5.2l28.2,3l1.6,29.3L50,5.2z"/>
</g>
<g transform="matrix(-1 0 0 1 94.64 3.234)">
	<path id="f" class="st1" d="M100,37.5L78.2,8.2l1.6,29.3H100z"/>
</g>
<g transform="translate(.17 3.234)">
	<path id="g" class="st1" d="M0,37.5L21.8,8.2l-1.6,29.3H0z"/>
</g>
<g transform="translate(19.3 .42)">
	<path id="h" class="st3" d="M50,5.2L20.2,37.5h59.5L50,5.2z"/>
</g>
</svg>
