<?xml version="1.0" encoding="utf-8"?>
<!-- Generator: Adobe Illustrator 21.1.0, SVG Export Plug-In . SVG Version: 6.00 Build 0)  -->
<svg version="1.1" id="Layer_1" xmlns="http://www.w3.org/2000/svg" xmlns:xlink="http://www.w3.org/1999/xlink" x="0px" y="0px"
	 viewBox="0 0 45 45" style="enable-background:new 0 0 45 45;" xml:space="preserve">
<style type="text/css">
	.st0{fill:#FFFFFF;}
	.st1{fill:#EC7323;}
</style>
<path class="st0" d="M30.7,24.8c-0.5-0.5-1.2-0.8-1.8-0.8c-0.7,0-1.3,0.3-1.8,0.8l-1.7,1.7c-0.1-0.1-0.3-0.1-0.4-0.2
	c-0.2-0.1-0.4-0.2-0.5-0.3c-1.6-1-3.1-2.3-4.4-4c-0.7-0.8-1.1-1.6-1.5-2.3c0.4-0.4,0.9-0.8,1.3-1.2c0.2-0.2,0.3-0.3,0.5-0.5
	c1.1-1.1,1.1-2.6,0-3.7l-1.5-1.5c-0.2-0.2-0.3-0.3-0.5-0.5c-0.3-0.3-0.7-0.7-1-1c-0.5-0.5-1.2-0.8-1.8-0.8c-0.7,0-1.3,0.3-1.8,0.8
	l0,0l-1.8,1.8c-0.7,0.7-1.1,1.5-1.2,2.5c-0.1,1.6,0.3,3,0.7,4c0.9,2.3,2.2,4.5,4.1,6.9c2.4,2.8,5.2,5,8.5,6.6
	c1.2,0.6,2.9,1.3,4.8,1.4c0.1,0,0.2,0,0.3,0c1.2,0,2.3-0.4,3.1-1.3c0,0,0,0,0,0c0.3-0.3,0.6-0.6,0.9-1c0.2-0.2,0.5-0.5,0.7-0.7
	c0.5-0.6,0.8-1.2,0.8-1.9c0-0.7-0.3-1.3-0.8-1.8L30.7,24.8z M32.6,30.5C32.6,30.5,32.6,30.5,32.6,30.5c-0.2,0.2-0.4,0.4-0.7,0.7
	c-0.4,0.3-0.7,0.7-1,1.1c-0.5,0.6-1.2,0.9-2,0.9c-0.1,0-0.2,0-0.2,0c-1.6-0.1-3.1-0.7-4.2-1.3c-3.1-1.5-5.7-3.6-8-6.2
	c-1.8-2.2-3.1-4.3-3.9-6.4c-0.5-1.3-0.7-2.4-0.6-3.4c0.1-0.6,0.3-1.2,0.7-1.6l1.8-1.8c0.3-0.2,0.5-0.4,0.8-0.4
	c0.3,0,0.6,0.2,0.8,0.4l0,0c0.3,0.3,0.6,0.6,1,1c0.2,0.2,0.3,0.3,0.5,0.5l1.5,1.5c0.6,0.6,0.6,1.1,0,1.7c-0.2,0.2-0.3,0.3-0.5,0.5
	c-0.5,0.5-0.9,0.9-1.4,1.3c0,0,0,0,0,0c-0.5,0.5-0.4,0.9-0.3,1.2l0,0c0.4,0.9,0.9,1.8,1.7,2.8l0,0c1.5,1.8,3.1,3.3,4.8,4.3
	c0.2,0.1,0.4,0.3,0.7,0.4c0.2,0.1,0.4,0.2,0.5,0.3c0,0,0,0,0.1,0C25,28,25.2,28,25.4,28c0.4,0,0.7-0.3,0.8-0.4l1.8-1.8
	c0.2-0.2,0.5-0.4,0.8-0.4c0.3,0,0.6,0.2,0.8,0.4l3,3C33.2,29.3,33.2,29.9,32.6,30.5L32.6,30.5z M32.6,30.5"/>
<g>
	<g>
		<path class="st1" d="M22.5,34.7c-0.5,0-0.9,0.4-0.9,0.9c0,0.5,0.4,0.9,0.9,0.9c0.5,0,0.9-0.4,0.9-0.9C23.4,35.1,23,34.7,22.5,34.7
			z M42.1,27.7c0-2.9-2.4-5.2-5.3-5.2c-2.9,0-5.3,2.4-5.3,5.2c0,2.9,2.4,5.2,5.3,5.2C39.7,33,42.1,30.6,42.1,27.7z M36.8,31.2
			c-1.9,0-3.5-1.6-3.5-3.5c0-1.9,1.6-3.5,3.5-3.5c1.9,0,3.5,1.6,3.5,3.5C40.3,29.7,38.8,31.2,36.8,31.2z M36.8,33
			c-2.2,0-4.4,0.9-5.9,2.4c-2-2.6-5-4.1-8.4-4.1c-3.2,0-6.3,1.5-8.4,4.1c-1.5-1.5-3.7-2.4-5.9-2.4C3.7,33,0,36.6,0,40.8v1.7
			c0,0.5,0.4,0.9,0.9,0.9h43.2c0.5,0,0.9-0.4,0.9-0.9v-1.7C45,36.6,41.3,33,36.8,33z M12,41.7H1.8v-0.9c0-3.3,2.9-6.1,6.4-6.1
			c1.9,0,3.8,0.8,5,2.2C12.4,38.4,12,40,12,41.7z M13.7,41.7c0-4.9,4-8.7,8.8-8.7c4.9,0,8.8,3.9,8.8,8.7H13.7z M43.2,41.7H33
			c0-1.7-0.4-3.3-1.2-4.8c1.2-1.3,3.1-2.2,5-2.2c3.5,0,6.4,2.8,6.4,6.1V41.7z M13.4,27.7c0-2.9-2.4-5.2-5.3-5.2
			c-2.9,0-5.3,2.4-5.3,5.2c0,2.9,2.4,5.2,5.3,5.2C11.1,33,13.4,30.6,13.4,27.7z M8.2,31.2c-1.9,0-3.5-1.6-3.5-3.5
			c0-1.9,1.6-3.5,3.5-3.5c1.9,0,3.5,1.6,3.5,3.5C11.7,29.7,10.1,31.2,8.2,31.2z M29.5,24.2c0-3.9-3.2-7-7-7c-3.9,0-7,3.1-7,7
			c0,3.9,3.2,7,7,7C26.4,31.2,29.5,28.1,29.5,24.2z M22.5,29.5c-2.9,0-5.3-2.4-5.3-5.2c0-2.9,2.4-5.2,5.3-5.2c2.9,0,5.3,2.4,5.3,5.2
			C27.8,27.1,25.4,29.5,22.5,29.5z M18.4,10.2l-0.6,3.8c-0.1,0.3,0.1,0.7,0.3,0.9c0.3,0.2,0.6,0.2,0.9,0.1l3.4-1.8l3.4,1.8
			c0.3,0.2,0.7,0.1,0.9-0.1c0.3-0.2,0.4-0.5,0.3-0.9l-0.6-3.8l2.7-2.7c0.2-0.2,0.3-0.6,0.2-0.9c-0.1-0.3-0.4-0.5-0.7-0.6L25,5.5
			L23.3,2c-0.1-0.3-0.5-0.5-0.8-0.5c-0.3,0-0.6,0.2-0.8,0.5L20,5.5L16.2,6c-0.3,0-0.6,0.3-0.7,0.6c-0.1,0.3,0,0.7,0.2,0.9L18.4,10.2
			z M20.7,7.1c0.3,0,0.5-0.2,0.7-0.5l1.1-2.3l1.1,2.3c0.1,0.3,0.4,0.4,0.7,0.5l2.5,0.4l-1.8,1.7c-0.2,0.2-0.3,0.5-0.3,0.8l0.4,2.5
			l-2.2-1.2c-0.3-0.1-0.6-0.1-0.8,0l-2.2,1.2l0.4-2.5c0-0.3,0-0.6-0.3-0.8l-1.8-1.7L20.7,7.1z M34.2,15.9l-0.4,2.5
			c-0.1,0.3,0.1,0.7,0.3,0.9c0.3,0.2,0.6,0.2,0.9,0.1l2.3-1.2l2.3,1.2c0.3,0.2,0.7,0.1,0.9-0.1c0.3-0.2,0.4-0.5,0.3-0.9l-0.4-2.5
			l1.9-1.8c0.2-0.2,0.3-0.6,0.2-0.9c-0.1-0.3-0.4-0.5-0.7-0.6l-2.6-0.4l-1.1-2.3c-0.1-0.3-0.5-0.5-0.8-0.5c0,0,0,0,0,0
			c-0.3,0-0.6,0.2-0.8,0.5l-1.1,2.3l-2.6,0.4c-0.3,0-0.6,0.3-0.7,0.6c-0.1,0.3,0,0.7,0.2,0.9L34.2,15.9z M36.2,13.9
			c0.3,0,0.5-0.2,0.7-0.5l0.6-1.1l0.6,1.1c0.1,0.3,0.4,0.4,0.7,0.5l1.3,0.2L39,14.9c-0.2,0.2-0.3,0.5-0.3,0.8l0.2,1.3l-1.1-0.6
			c-0.3-0.1-0.6-0.1-0.8,0L35.8,17l0.2-1.3c0-0.3,0-0.6-0.3-0.8L34.9,14L36.2,13.9z M4.4,15.9l-0.4,2.5c-0.1,0.3,0.1,0.7,0.3,0.9
			c0.3,0.2,0.6,0.2,0.9,0.1l2.3-1.2l2.3,1.2c0.3,0.2,0.7,0.1,0.9-0.1c0.3-0.2,0.4-0.5,0.3-0.9l-0.4-2.5l1.9-1.8
			c0.2-0.2,0.3-0.6,0.2-0.9c-0.1-0.3-0.4-0.5-0.7-0.6l-2.6-0.4L8.3,9.9C8.1,9.6,7.8,9.4,7.5,9.4c-0.3,0-0.6,0.2-0.8,0.5l-1.1,2.3
			L3,12.6c-0.3,0-0.6,0.3-0.7,0.6c-0.1,0.3,0,0.7,0.2,0.9L4.4,15.9z M6.3,13.9c0.3,0,0.5-0.2,0.7-0.5l0.6-1.1l0.6,1.1
			c0.1,0.3,0.4,0.4,0.7,0.5L10,14l-0.9,0.9c-0.2,0.2-0.3,0.5-0.3,0.8L9,17l-1.1-0.6c-0.3-0.1-0.6-0.1-0.8,0L6,17l0.2-1.3
			c0-0.3,0-0.6-0.3-0.8L5,14L6.3,13.9z M26.4,35.9c-0.4-0.3-1-0.2-1.2,0.3c-0.3,0.4-0.2,0.9,0.3,1.2c0.8,0.5,1.5,1.3,1.9,2.1
			c0.2,0.4,0.7,0.6,1.2,0.4c0.4-0.2,0.6-0.7,0.4-1.2C28.3,37.6,27.4,36.6,26.4,35.9z"/>
	</g>
</g>
</svg>
