<?xml version="1.0" encoding="utf-8"?>
<!-- Generator: Adobe Illustrator 23.0.3, SVG Export Plug-In . SVG Version: 6.00 Build 0)  -->
<svg version="1.1" id="Layer_1" xmlns="http://www.w3.org/2000/svg" xmlns:xlink="http://www.w3.org/1999/xlink" x="0px" y="0px"
	 viewBox="0 0 100 100" style="enable-background:new 0 0 100 100;" xml:space="preserve">
<style type="text/css">
	.st0{fill:#E76F00;}
	.st1{fill:#5382A1;}
</style>
<path class="st0" d="M74.5,78.7h-0.4v-0.2h1v0.2h-0.4v1h-0.3V78.7z M76.5,78.8L76.5,78.8l-0.4,1H76l-0.4-1h0v1h-0.2v-1.3h0.4
	l0.3,0.9l0.3-0.9h0.4v1.3h-0.2L76.5,78.8z"/>
<path class="st1" d="M40.9,53c0,0-2.6,1.5,1.9,2c5.4,0.6,8.2,0.5,14.1-0.6c0,0,1.6,1,3.8,1.8C47.3,62,30.5,56,40.9,53 M39.3,45.6
	c0,0-2.9,2.2,1.5,2.6c5.8,0.6,10.3,0.6,18.2-0.9c0,0,1.1,1.1,2.8,1.7C45.7,53.7,27.8,49.4,39.3,45.6"/>
<path class="st0" d="M53.1,32.9c3.3,3.8-0.9,7.2-0.9,7.2s8.4-4.3,4.5-9.7c-3.6-5-6.3-7.5,8.5-16.2C65.3,14.2,41.9,20,53.1,32.9"/>
<path class="st1" d="M70.7,58.6c0,0,1.9,1.6-2.1,2.8c-7.7,2.3-32.1,3-38.9,0.1c-2.4-1.1,2.1-2.5,3.6-2.8c1.5-0.3,2.4-0.3,2.4-0.3
	c-2.7-1.9-17.5,3.7-7.5,5.4C55.4,68.1,77.8,61.7,70.7,58.6 M42.2,37.8c0,0-12.4,2.9-4.4,4c3.4,0.5,10.1,0.4,16.4-0.2
	c5.1-0.4,10.3-1.4,10.3-1.4s-1.8,0.8-3.1,1.7c-12.6,3.3-36.9,1.8-29.9-1.6C37.4,37.5,42.2,37.8,42.2,37.8 M64.4,50.3
	c12.8-6.7,6.9-13,2.8-12.2c-1,0.2-1.5,0.4-1.5,0.4s0.4-0.6,1.1-0.8c8.2-2.9,14.5,8.5-2.6,13C64.2,50.6,64.4,50.4,64.4,50.3"/>
<path class="st0" d="M56.7,0.3c0,0,7.1,7.1-6.7,18C38.9,27,47.5,32,50,37.7c-6.5-5.8-11.2-11-8-15.7C46.6,14.9,59.6,11.5,56.7,0.3"
	/>
<path class="st1" d="M43.5,68.3c12.3,0.8,31.2-0.4,31.6-6.2c0,0-0.9,2.2-10.2,4c-10.5,2-23.4,1.7-31.1,0.5
	C33.8,66.5,35.4,67.8,43.5,68.3"/>
<path class="st0" d="M41.4,90.5c-1.2,1-2.4,1.6-3.5,1.6c-1.6,0-2.4-0.9-2.4-2.4c0-1.6,0.9-2.8,4.5-2.8h1.3L41.4,90.5 M44.6,94.1
	V82.9c0-2.9-1.6-4.7-5.6-4.7c-2.3,0-4.3,0.6-5.9,1.3l0.5,2c1.3-0.5,2.9-0.9,4.6-0.9c2.3,0,3.2,0.9,3.2,2.8v1.4h-1.1
	c-5.5,0-8,2.1-8,5.3c0,2.8,1.6,4.3,4.7,4.3c2,0,3.5-0.8,4.8-2l0.3,1.7L44.6,94.1L44.6,94.1z M55.3,94.1h-4l-4.8-15.6H50l3,9.6
	l0.7,2.9c1.5-4.2,2.6-8.4,3.1-12.5h3.4C59.2,83.6,57.6,89.3,55.3,94.1 M70.6,90.5c-1.2,1-2.4,1.6-3.5,1.6c-1.6,0-2.4-0.9-2.4-2.4
	c0-1.6,0.9-2.8,4.6-2.8h1.3V90.5 M73.8,94.1V82.9c0-2.9-1.6-4.7-5.6-4.7c-2.3,0-4.3,0.6-5.9,1.3l0.5,2c1.3-0.5,2.9-0.9,4.6-0.9
	c2.3,0,3.2,0.9,3.2,2.8v1.4h-1.1c-5.5,0-8,2.1-8,5.3c0,2.8,1.6,4.3,4.7,4.3c2,0,3.5-0.8,4.8-2l0.3,1.7L73.8,94.1L73.8,94.1z
	 M28.8,96.8c-0.9,1.3-2.4,2.4-4,3l-1.6-1.9c1.2-0.6,2.3-1.6,2.8-2.6c0.4-0.8,0.6-1.9,0.6-4.5V72.9H30v17.6
	C30,94,29.7,95.4,28.8,96.8"/>
</svg>
