<?xml version="1.0" encoding="utf-8"?>
<!-- Generator: Adobe Illustrator 23.0.3, SVG Export Plug-In . SVG Version: 6.00 Build 0)  -->
<svg version="1.1" id="Layer_1" xmlns="http://www.w3.org/2000/svg" xmlns:xlink="http://www.w3.org/1999/xlink" x="0px" y="0px"
	 viewBox="0 0 100 100" style="enable-background:new 0 0 100 100;" xml:space="preserve">
<path d="M27.8,19.8c-9.3,1.1-17.3,5.9-22.3,13.6c-1.9,2.9-3.5,7-4.3,10.6c-0.5,2.3-0.5,9,0,11.3c1.9,9.3,7.8,17,16.1,21.2
	c3.5,1.7,6.7,2.7,10.7,3.1c1.1,0.1,9.1,0.2,22.5,0.2c17.6,0,21.1,0,22.9-0.3c7.3-1,13.3-3.9,18.2-9c2.3-2.3,3.7-4.4,5.1-7.1
	C99,59,100,54.9,100,49.7s-1-9.2-3.2-13.7c-1.4-2.8-2.9-4.8-5.1-7.1c-4.9-5.1-10.9-8.1-18.2-9c-1.8-0.2-5.3-0.3-23.2-0.2
	C38.6,19.7,28.5,19.8,27.8,19.8L27.8,19.8z M72.2,40.2c3.6,1,6.5,3.8,7.3,7.1c0.3,1.3,0.3,3.6,0,4.9c-0.9,3.4-3.8,6.2-7.4,7.1
	c-1.1,0.3-2.7,0.3-21.8,0.3c-19.2,0-20.6,0-21.7-0.3c-3.5-1-5.9-3.1-7.2-6.2C21,52,21,51.6,21,49.7s0.1-2.2,0.5-3.3
	c1.4-3.5,4.4-5.9,8.3-6.4c0.6-0.1,10.1-0.1,21.2-0.1C69.4,39.9,71.2,39.9,72.2,40.2L72.2,40.2z"/>
</svg>
