<?xml version="1.0" encoding="utf-8"?>
<!-- Generator: Adobe Illustrator 23.0.3, SVG Export Plug-In . SVG Version: 6.00 Build 0)  -->
<svg version="1.1" id="Layer_1" xmlns="http://www.w3.org/2000/svg" xmlns:xlink="http://www.w3.org/1999/xlink" x="0px" y="0px"
	 viewBox="0 0 100 100" style="enable-background:new 0 0 100 100;" xml:space="preserve">
<style type="text/css">
	.st0{fill:#B6DEFF;}
	.st1{fill:#66CC66;}
	.st2{fill:#17AD49;}
</style>
<path class="st0" d="M50,8.3C23.1,8.3,2,42.9,0,72c8.4,14.8,28.8,20.3,50,20.3c21.2,0,41.6-5.6,50-20.3C98,42.9,76.9,8.3,50,8.3"/>
<path class="st1" d="M93,65.1c0,0-5.9-13-12-20.5c-6-7.6-13.4-15.8-17.8-15.8c-4.4,0-16.6,21.8-22.2,21.8c-5.6,0-8.5-9.9-15.4-9.9
	c-6.9,0-17.8,23.8-17.8,23.8l-0.7,4c0,0,3.8,17,43.6,17c39.8,0,42.9-16.7,42.9-16.7L93,65.1"/>
<path class="st2" d="M41.6,59.8c-6.2,0-9.3-6.1-11.1-9.9c-1.5-3.4-1.8-8.8-6.2-9c0.4-0.2,0.8-0.3,1.2-0.3c6.9,0,9.8,9.9,15.4,9.9
	c5.6,0,17.8-21.8,22.2-21.8c0.8,0,1.7,0.3,2.8,0.8c-0.7-0.1-1.7,0-2.4,0.7C62.1,31.7,49.3,59.8,41.6,59.8"/>
</svg>
