<?xml version="1.0" encoding="utf-8"?>
<!-- Generator: Adobe Illustrator 23.0.3, SVG Export Plug-In . SVG Version: 6.00 Build 0)  -->
<svg version="1.1" id="Layer_1" xmlns="http://www.w3.org/2000/svg" xmlns:xlink="http://www.w3.org/1999/xlink" x="0px" y="0px"
	 viewBox="0 0 100 100" style="enable-background:new 0 0 100 100;" xml:space="preserve">
<style type="text/css">
	.st0{fill:url(#SVGID_1_);}
	.st1{fill:#FFFFFF;}
	.st2{fill:#6FA14D;}
	.st3{fill:#77AB50;}
</style>
<linearGradient id="SVGID_1_" gradientUnits="userSpaceOnUse" x1="-1019.0904" y1="-1223.6962" x2="-1019.0904" y2="-1231.0576" gradientTransform="matrix(13.5826 0 0 13.5826 13891.8984 16720.9785)">
	<stop  offset="0" style="stop-color:#67974A"/>
	<stop  offset="0.495" style="stop-color:#82B750"/>
</linearGradient>
<path class="st0" d="M92.2,35.3c-1.5-8.3-5.1-15.5-10.9-21.7c-2.4-2.6-5.1-4.9-8.1-6.8C67.7,3.3,61.6,1.1,55,0.3
	c-0.8-0.1-1.6-0.1-2.4-0.3H47c-0.1,0.1-0.2,0.1-0.3,0.1c-1.5,0.1-2.9,0.3-4.4,0.6c-10.5,2-19.2,7.2-25.9,15.5
	C10.9,23.1,7.9,31,7.2,39.7c-0.3,4.2,0,8.5,0.9,12.6c0.7,3.1,1.7,6.1,3.1,8.9c0.1,0.2,0.2,0.5,0.4,0.7c2.3,4.5,5.2,8.5,8.9,12
	c1.9,1.8,4,3.5,6.3,4.9c6.9,4.4,14.4,6.7,22.6,6.8c0.5,0,0.6,0.1,0.6,0.6c0,4.4,0,8.7,0,13.1c0,0.2,0,0.3,0,0.5
	c0.1-0.1,0.2-0.1,0.3-0.1C58.5,96,66.1,91.1,72.8,85c1.3-1.2,2.6-2.5,3.8-3.8c0.5-0.6,1-1.1,1.6-1.7c0.8-0.9,1.5-1.8,2.3-2.8
	c0.9-1.1,1.7-2.2,2.5-3.3c1.7-2.5,3.3-5.1,4.6-7.9c0.7-1.4,1.3-2.8,1.8-4.2c0,0,0-0.1,0.1-0.1c1.5-3.9,2.5-8,3-12.2
	c0.2-1.5,0.3-2.9,0.4-4.4C93,41.5,92.8,38.4,92.2,35.3L92.2,35.3z M37,61.6c-0.7,0.2-1.5,0.3-2.2,0.4c-0.6,0.1-1-0.2-1.2-0.8l0-4.8
	c0-0.5-0.2-1,0.2-1.4c0.2-0.2,0.4-0.3,0.7-0.4c0.8-0.2,1.7-0.4,2.5-0.8c1.4-0.8,2.3-2.1,2.7-3.7c0.1-0.3,0.1-0.5,0.2-0.8
	c-3.4,0-6.8,0-10.2,0c-0.3,0-0.6,0-0.9-0.1c-0.9-0.2-1.5-1-1.5-1.9c0-5.1,0-10.3,0-15.4c-0.1-0.8,0-1.6,0.7-2.2
	c0.4-0.3,0.8-0.5,1.3-0.5c5,0,10,0,15,0c1.3,0,2.4,1.3,2,2.6c0.1,0.2,0.1,0.5,0.1,0.8c0,5.6,0,11.2,0,16.8c0,3.7-1.5,6.8-4.2,9.4
	c-0.1,0.1-0.3,0.3-0.4,0.4C40.2,60.2,38.7,61.1,37,61.6L37,61.6z M64.7,61.2c-0.1,0-0.1,0-0.2,0.1l-0.1,0.1c-1,0.3-1.9,0.5-2.9,0.6
	c-0.8,0.1-1.3-0.3-1.3-1.1c0-0.5,0-1.1,0-1.6l0-2.9c0-0.2,0-0.4,0-0.6c0-0.7,0.3-1.1,1.2-1.3c1.2-0.3,2.3-0.6,3.2-1.5
	c1.1-1,1.6-2.3,1.9-3.7l-9.4,0c-0.3,0-0.7,0-1,0c-1.3,0-2.2-0.9-2.2-2.2c0-5.1,0-10.2,0-15.2c0,0,0-0.1,0-0.1c-0.1-1,0.2-1.7,1-2.3
	c0.3-0.2,0.7-0.3,1.1-0.3c5,0,9.9,0,14.9,0c1.3,0,2.4,1.3,2,2.6c0.1,0.2,0.1,0.5,0.1,0.8c0,5.6,0,11.2,0,16.8c0,5-3.1,9.7-7.8,11.6
	C64.9,61.1,64.8,61.2,64.7,61.2L64.7,61.2z"/>
<path class="st1" d="M64.4,61.3c-1,0.3-1.9,0.5-2.9,0.6c-0.8,0.1-1.3-0.3-1.3-1.1c0-0.5,0-1.1,0-1.6l0-2.9c0.3-0.6,0.9-0.8,1.5-0.9
	c2.7-0.6,4.4-2.4,4.8-5.1c0-0.3,0.3-0.7,0-1.1l-9.4,0c-0.3,0-0.7,0-1,0c-1.3,0-2.2-0.9-2.2-2.2c0-5.1,0-10.2,0-15.2c0,0,0-0.1,0-0.1
	c0.1-0.1,0.1-0.2,0.2-0.3c0.4-0.8,1.1-1.2,1.9-1.2c4.9,0,9.9,0,14.8,0c1,0,1.8,0.6,2,1.6c0.1,0.2,0.1,0.5,0.1,0.8
	c0,5.6,0,11.2,0,16.8c0,5-3.1,9.7-7.8,11.6c-0.1,0-0.2,0.1-0.3,0.2c-0.1,0-0.1,0-0.2,0.1C64.4,61.3,64.4,61.3,64.4,61.3L64.4,61.3z
	 M41.7,59.2c-1.4,1.1-2.9,1.9-4.7,2.4c-0.7,0.2-1.5,0.3-2.2,0.4c-0.6,0.1-1-0.2-1.2-0.8l0-4.8c0.3-0.6,0.8-0.7,1.4-0.9
	c2.8-0.6,4.3-2.3,4.8-5.1c0.1-0.4,0.3-0.8,0-1.1c-3.4,0-6.8,0-10.2,0c-0.3,0-0.6,0-0.9-0.1c-0.9-0.2-1.5-1-1.5-1.9
	c0-5.1,0-10.3,0-15.4c0.4-1,1-1.6,2.1-1.6c5,0,9.9,0,14.9,0c1,0,1.7,0.6,2,1.6c0.1,0.2,0.1,0.5,0.1,0.8c0,5.6,0,11.2,0,16.8
	c0,3.7-1.5,6.8-4.2,9.4C41.9,58.9,41.8,59,41.7,59.2L41.7,59.2z"/>
<path class="st2" d="M46.2,31.8c-0.3-0.9-1-1.6-2-1.6c-5,0-9.9,0-14.9,0c-1.1,0-1.7,0.7-2.1,1.6c-0.1-0.8,0-1.6,0.7-2.2
	c0.4-0.3,0.8-0.5,1.3-0.5c5,0,10,0,15,0C45.5,29.2,46.6,30.5,46.2,31.8L46.2,31.8z M72.7,31.8c-0.3-1-1-1.6-2-1.6
	c-4.9,0-9.9,0-14.8,0c-0.9,0-1.5,0.4-1.9,1.2c-0.1,0.1-0.1,0.3-0.2,0.3c-0.1-1,0.2-1.7,1-2.3c0.3-0.2,0.7-0.3,1.1-0.3
	c5,0,9.9,0,14.9,0C72,29.2,73.1,30.5,72.7,31.8L72.7,31.8z M66.3,49.3c0.2,0.4,0,0.7,0,1.1c-0.4,2.7-2.1,4.5-4.8,5.1
	c-0.6,0.1-1.2,0.2-1.5,0.9c0-0.2,0-0.4,0-0.6c0-0.7,0.3-1.1,1.2-1.3c1.2-0.3,2.3-0.6,3.2-1.5C65.5,52,66.1,50.7,66.3,49.3z
	 M39.8,49.3c0.2,0.4,0,0.8,0,1.1c-0.5,2.8-2.1,4.4-4.8,5.1c-0.6,0.1-1.1,0.3-1.4,0.9c0-0.5-0.2-1,0.2-1.4c0.2-0.2,0.4-0.3,0.7-0.4
	c0.8-0.2,1.7-0.4,2.5-0.8c1.4-0.8,2.3-2.1,2.7-3.7C39.7,49.8,39.8,49.6,39.8,49.3L39.8,49.3z"/>
<path class="st3" d="M64.4,61.3"/>
</svg>
