<?xml version="1.0" encoding="utf-8"?>
<!-- Generator: Adobe Illustrator 23.0.3, SVG Export Plug-In . SVG Version: 6.00 Build 0)  -->
<svg version="1.1" id="Layer_1" xmlns="http://www.w3.org/2000/svg" xmlns:xlink="http://www.w3.org/1999/xlink" x="0px" y="0px"
	 viewBox="0 0 100 100" style="enable-background:new 0 0 100 100;" xml:space="preserve">
<style type="text/css">
	.st0{fill-rule:evenodd;clip-rule:evenodd;fill:#FF9900;}
</style>
<g>
	<path class="st0" d="M27.2,88.5L14.8,84V65.8L27.2,70V88.5 M29.5,88.5L42,84V65.8L29.5,70V88.5 M16.1,64.4l12.6-3.5l11.7,3.8
		l-11.7,4L16.1,64.4 M12.4,63L0,58.6V40.3l12.4,4.2V63 M14.7,63l12.4-4.5V40.3l-12.4,4.2L14.7,63 M1.3,39l12.6-3.5l11.7,3.8l-11.7,4
		L1.3,39 M41.5,63L29,58.6V40.3l12.4,4.2V63 M43.7,63l12.4-4.5V40.3l-12.4,4.2L43.7,63 M30.3,39l12.6-3.5l11.7,3.8l-11.7,4L30.3,39
		 M56.3,37.6l-12.4-4.5V14.9l12.4,4.2V37.6 M58.5,37.6L71,33.1V14.9l-12.4,4.2L58.5,37.6 M45.1,13.5L57.7,10l11.7,3.8l-11.7,4
		L45.1,13.5 M85.3,37.6l-12.4-4.5V14.9l12.4,4.2V37.6 M87.6,37.6l12.4-4.5V14.9l-12.4,4.2V37.6 M74.1,13.5L86.7,10l11.7,3.8l-11.7,4
		L74.1,13.5"/>
</g>
</svg>
