<?xml version="1.0" encoding="iso-8859-1"?>
<!-- Uploaded to: SVG Repo, www.svgrepo.com, Generator: SVG Repo Mixer Tools -->
<svg fill="#000000" height="800px" width="800px" version="1.1" id="Layer_1" xmlns="http://www.w3.org/2000/svg" xmlns:xlink="http://www.w3.org/1999/xlink" 
	 viewBox="0 0 512 512" xml:space="preserve">
<g>
	<g>
		<path d="M327.852,337.609c40.345-25.077,64.432-68.372,64.432-115.814c0-48.553-26.15-93.81-68.246-118.11
			c-3.834-2.214-8.738-0.899-10.95,2.935c-2.214,3.834-0.9,8.737,2.935,10.951c11.389,6.575,21.448,14.893,29.932,24.495
			l-3.027,7.568l-14.259,21.389h-21.363c-5.375,0-9.309,5.442-7.605,10.552l7.311,21.934l-8.257,12.385l-10.432-15.648
			c-1.487-2.23-3.989-3.57-6.67-3.57h-29.249l-12.806-25.612l14.522-21.782c2.638-3.956,1.159-9.495-3.085-11.617l-33.93-16.966
			l-12.506-7.504c15.123-7.23,31.956-11.392,49.682-11.639c11.468-0.164,22.85,1.291,33.792,4.31
			c4.265,1.179,8.682-1.328,9.861-5.595c1.179-4.268-1.326-8.683-5.595-9.861c-12.403-3.424-25.287-5.058-38.28-4.887
			c-73.947,1.031-134.212,62.051-134.343,136.025c-0.083,47.67,24.101,91.119,64.696,116.223
			c7.566,4.679,12.264,13.174,12.264,22.172v16.305h-9.086c-4.428,0-8.017,3.589-8.017,8.017v68.409
			c0,32.711,26.612,59.324,59.324,59.324h34.205c32.711,0,59.324-26.612,59.324-59.324v-68.409c0-4.427-3.588-8.017-8.017-8.017
			h-9.086v-16.511C315.324,350.758,320.008,342.485,327.852,337.609z M342.468,305.414l-1.646-8.232
			c-0.205-1.026-0.609-2.003-1.191-2.874l-13.851-20.776l28.56-35.699l21.207-3.029C372.68,261.632,361.01,286.328,342.468,305.414z
			 M195.684,326.085c-0.919-0.682-1.859-1.341-2.839-1.948c-35.826-22.156-57.17-60.496-57.096-102.559
			c0.001-0.631,0.016-1.259,0.028-1.888l13.162,8.775c1.317,0.878,2.865,1.347,4.447,1.347h22.333l23.305,23.305
			c1.504,1.504,3.542,2.348,5.669,2.348h29.249l9.086,18.171h-38.336c-5.847,0-9.792,6.362-7.17,11.602l7.065,14.133
			L195.684,326.085z M273.102,495.967h-34.205c-21.131,0-38.762-15.222-42.533-35.273h119.272
			C311.865,480.745,294.233,495.967,273.102,495.967z M316.393,444.66H195.608v-18.171h120.785V444.66z M316.393,392.284v18.171
			H195.608v-18.171H316.393z M299.29,359.739v16.511h-86.58v-16.305c0-6.925-1.751-13.663-4.897-19.646
			c0.048-0.124,0.112-0.236,0.155-0.365l12.881-38.645c1.384-4.155-1.4-8.05-3.184-11.621H256c5.847,0,9.792-6.362,7.17-11.602
			l-17.102-34.205c-1.359-2.716-4.133-4.432-7.17-4.432h-30.885l-23.305-23.305c-1.504-1.504-3.542-2.348-5.669-2.348h-23.226
			l-18.332-12.221c5.634-32.728,24.669-61.122,51.209-79.208l20.43,12.258c0.175,0.106,0.356,0.204,0.539,0.296l26.082,13.042
			l-12.064,18.097c-1.596,2.393-1.787,5.459-0.5,8.032l17.102,34.205c1.359,2.716,4.133,4.432,7.17,4.432h29.914l14.722,22.083
			c3.118,4.677,10.222,4.679,13.34,0l17.102-25.653c1.372-2.059,1.717-4.635,0.935-6.982l-5.033-15.101h14.532
			c2.681,0,5.184-1.339,6.67-3.57l17.102-25.653c0.178-0.268,0.336-0.549,0.481-0.837c11.626,18.175,18.372,39.399,18.981,61.519
			l-27.266,3.895c-2.019,0.289-3.852,1.336-5.126,2.929l-34.205,42.756c-2.181,2.726-2.346,6.55-0.41,9.454l16.223,24.334
			l3.161,15.801c-2.945,2.223-6.004,4.332-9.182,6.308C306.803,331.816,299.29,345.179,299.29,359.739z"/>
	</g>
</g>
<g>
	<g>
		<path d="M256,0c-4.428,0-8.017,3.589-8.017,8.017v42.756c0,4.427,3.588,8.017,8.017,8.017c4.428,0,8.017-3.589,8.017-8.017V8.017
			C264.017,3.589,260.428,0,256,0z"/>
	</g>
</g>
<g>
	<g>
		<path d="M173.156,70.823l-21.378-37.028c-2.213-3.835-7.119-5.149-10.951-2.934c-3.834,2.214-5.148,7.117-2.934,10.951
			l21.377,37.028c2.356,4.082,7.897,5.242,11.7,2.446C174.217,78.897,175.169,74.311,173.156,70.823z"/>
	</g>
</g>
<g>
	<g>
		<path d="M104.493,133.617l-37.028-21.378c-3.837-2.214-8.738-0.901-10.951,2.934c-2.214,3.834-0.9,8.737,2.934,10.951
			l37.028,21.378c4.091,2.361,9.463,0.583,11.355-3.733C109.449,140.078,107.98,135.63,104.493,133.617z"/>
	</g>
</g>
<g>
	<g>
		<path d="M76.426,222.33H33.67c-4.428,0-8.017,3.589-8.017,8.017s3.588,8.017,8.017,8.017h42.756c4.428,0,8.017-3.589,8.017-8.017
			S80.854,222.33,76.426,222.33z"/>
	</g>
</g>
<g>
	<g>
		<path d="M107.427,316.126c-2.215-3.835-7.118-5.15-10.951-2.935l-37.028,21.378c-3.488,2.014-4.956,6.461-3.338,10.153
			c1.891,4.314,7.265,6.095,11.355,3.733l37.028-21.378C108.327,324.863,109.641,319.96,107.427,316.126z"/>
	</g>
</g>
<g>
	<g>
		<path d="M452.551,334.569l-37.028-21.378c-3.837-2.215-8.738-0.901-10.951,2.934c-2.214,3.834-0.9,8.737,2.934,10.951
			l37.028,21.378c4.091,2.361,9.463,0.583,11.355-3.733C457.508,341.03,456.038,336.582,452.551,334.569z"/>
	</g>
</g>
<g>
	<g>
		<path d="M478.33,222.33h-42.756c-4.428,0-8.017,3.589-8.017,8.017s3.588,8.017,8.017,8.017h42.756
			c4.428,0,8.017-3.589,8.017-8.017S482.758,222.33,478.33,222.33z"/>
	</g>
</g>
<g>
	<g>
		<path d="M455.485,115.173c-2.215-3.835-7.119-5.148-10.951-2.934l-37.028,21.378c-3.147,1.817-4.719,5.735-3.678,9.219
			c0.997,3.338,4.208,5.741,7.694,5.741c1.36,0,2.74-0.346,4.001-1.075l37.028-21.378
			C456.385,123.91,457.699,119.007,455.485,115.173z"/>
	</g>
</g>
<g>
	<g>
		<path d="M371.173,30.861c-3.837-2.216-8.738-0.9-10.951,2.934l-21.378,37.028c-2.214,3.834-0.9,8.737,2.934,10.951
			c3.787,2.187,8.768,0.848,10.951-2.934l21.378-37.028C376.321,37.978,375.007,33.075,371.173,30.861z"/>
	</g>
</g>
</svg>